<?xml version="1.0" encoding="utf-8" standalone="no"?>
<!DOCTYPE svg PUBLIC "-//W3C//DTD SVG 1.1//EN"
  "http://www.w3.org/Graphics/SVG/1.1/DTD/svg11.dtd">
<!-- Created with matplotlib (https://matplotlib.org/) -->
<svg height="432pt" version="1.1" viewBox="0 0 576 432" width="576pt" xmlns="http://www.w3.org/2000/svg" xmlns:xlink="http://www.w3.org/1999/xlink">
 <defs>
  <style type="text/css">
*{stroke-linecap:butt;stroke-linejoin:round;}
  </style>
 </defs>
 <g id="figure_1">
  <g id="patch_1">
   <path d="M 0 432 
L 576 432 
L 576 0 
L 0 0 
z
" style="fill:#ffffff;"/>
  </g>
  <g id="axes_1">
   <g id="patch_2">
    <path d="M 72 378 
L 518.4 378 
L 518.4 51.84 
L 72 51.84 
z
" style="fill:#ffffff;"/>
   </g>
   <g id="patch_3">
    <path clip-path="url(#p87deac8969)" d="M 59.502395 378 
L 66.465618 378 
L 66.465618 373.226253 
L 59.502395 373.226253 
z
" style="fill:#0000ff;fill-opacity:0.2;stroke:#0000ff;stroke-linejoin:miter;"/>
   </g>
   <g id="patch_4">
    <path clip-path="url(#p87deac8969)" d="M 66.465618 378 
L 73.42884 378 
L 73.42884 358.514178 
L 66.465618 358.514178 
z
" style="fill:#0000ff;fill-opacity:0.2;stroke:#0000ff;stroke-linejoin:miter;"/>
   </g>
   <g id="patch_5">
    <path clip-path="url(#p87deac8969)" d="M 73.42884 378 
L 80.392063 378 
L 80.392063 330.039194 
L 73.42884 330.039194 
z
" style="fill:#0000ff;fill-opacity:0.2;stroke:#0000ff;stroke-linejoin:miter;"/>
   </g>
   <g id="patch_6">
    <path clip-path="url(#p87deac8969)" d="M 80.392063 378 
L 87.355286 378 
L 87.355286 283.094555 
L 80.392063 283.094555 
z
" style="fill:#0000ff;fill-opacity:0.2;stroke:#0000ff;stroke-linejoin:miter;"/>
   </g>
   <g id="patch_7">
    <path clip-path="url(#p87deac8969)" d="M 87.355286 378 
L 94.318508 378 
L 94.318508 239.566913 
L 87.355286 239.566913 
z
" style="fill:#0000ff;fill-opacity:0.2;stroke:#0000ff;stroke-linejoin:miter;"/>
   </g>
   <g id="patch_8">
    <path clip-path="url(#p87deac8969)" d="M 94.318508 378 
L 101.281731 378 
L 101.281731 192.13094 
L 94.318508 192.13094 
z
" style="fill:#0000ff;fill-opacity:0.2;stroke:#0000ff;stroke-linejoin:miter;"/>
   </g>
   <g id="patch_9">
    <path clip-path="url(#p87deac8969)" d="M 101.281731 378 
L 108.244953 378 
L 108.244953 142.645885 
L 101.281731 142.645885 
z
" style="fill:#0000ff;fill-opacity:0.2;stroke:#0000ff;stroke-linejoin:miter;"/>
   </g>
   <g id="patch_10">
    <path clip-path="url(#p87deac8969)" d="M 108.244953 378 
L 115.208176 378 
L 115.208176 113.093319 
L 108.244953 113.093319 
z
" style="fill:#0000ff;fill-opacity:0.2;stroke:#0000ff;stroke-linejoin:miter;"/>
   </g>
   <g id="patch_11">
    <path clip-path="url(#p87deac8969)" d="M 115.208176 378 
L 122.171399 378 
L 122.171399 80.938921 
L 115.208176 80.938921 
z
" style="fill:#0000ff;fill-opacity:0.2;stroke:#0000ff;stroke-linejoin:miter;"/>
   </g>
   <g id="patch_12">
    <path clip-path="url(#p87deac8969)" d="M 122.171399 378 
L 129.134621 378 
L 129.134621 69.560094 
L 122.171399 69.560094 
z
" style="fill:#0000ff;fill-opacity:0.2;stroke:#0000ff;stroke-linejoin:miter;"/>
   </g>
   <g id="patch_13">
    <path clip-path="url(#p87deac8969)" d="M 129.134621 378 
L 136.097844 378 
L 136.097844 68.722594 
L 129.134621 68.722594 
z
" style="fill:#0000ff;fill-opacity:0.2;stroke:#0000ff;stroke-linejoin:miter;"/>
   </g>
   <g id="patch_14">
    <path clip-path="url(#p87deac8969)" d="M 136.097844 378 
L 143.061067 378 
L 143.061067 67.801345 
L 136.097844 67.801345 
z
" style="fill:#0000ff;fill-opacity:0.2;stroke:#0000ff;stroke-linejoin:miter;"/>
   </g>
   <g id="patch_15">
    <path clip-path="url(#p87deac8969)" d="M 143.061067 378 
L 150.024289 378 
L 150.024289 79.319755 
L 143.061067 79.319755 
z
" style="fill:#0000ff;fill-opacity:0.2;stroke:#0000ff;stroke-linejoin:miter;"/>
   </g>
   <g id="patch_16">
    <path clip-path="url(#p87deac8969)" d="M 150.024289 378 
L 156.987512 378 
L 156.987512 87.482584 
L 150.024289 87.482584 
z
" style="fill:#0000ff;fill-opacity:0.2;stroke:#0000ff;stroke-linejoin:miter;"/>
   </g>
   <g id="patch_17">
    <path clip-path="url(#p87deac8969)" d="M 156.987512 378 
L 163.950735 378 
L 163.950735 101.184076 
L 156.987512 101.184076 
z
" style="fill:#0000ff;fill-opacity:0.2;stroke:#0000ff;stroke-linejoin:miter;"/>
   </g>
   <g id="patch_18">
    <path clip-path="url(#p87deac8969)" d="M 163.950735 378 
L 170.913957 378 
L 170.913957 118.564982 
L 163.950735 118.564982 
z
" style="fill:#0000ff;fill-opacity:0.2;stroke:#0000ff;stroke-linejoin:miter;"/>
   </g>
   <g id="patch_19">
    <path clip-path="url(#p87deac8969)" d="M 170.913957 378 
L 177.87718 378 
L 177.87718 137.241222 
L 170.913957 137.241222 
z
" style="fill:#0000ff;fill-opacity:0.2;stroke:#0000ff;stroke-linejoin:miter;"/>
   </g>
   <g id="patch_20">
    <path clip-path="url(#p87deac8969)" d="M 177.87718 378 
L 184.840403 378 
L 184.840403 150.121964 
L 177.87718 150.121964 
z
" style="fill:#0000ff;fill-opacity:0.2;stroke:#0000ff;stroke-linejoin:miter;"/>
   </g>
   <g id="patch_21">
    <path clip-path="url(#p87deac8969)" d="M 184.840403 378 
L 191.803625 378 
L 191.803625 168.39062 
L 184.840403 168.39062 
z
" style="fill:#0000ff;fill-opacity:0.2;stroke:#0000ff;stroke-linejoin:miter;"/>
   </g>
   <g id="patch_22">
    <path clip-path="url(#p87deac8969)" d="M 191.803625 378 
L 198.766848 378 
L 198.766848 186.592277 
L 191.803625 186.592277 
z
" style="fill:#0000ff;fill-opacity:0.2;stroke:#0000ff;stroke-linejoin:miter;"/>
   </g>
   <g id="patch_23">
    <path clip-path="url(#p87deac8969)" d="M 198.766848 378 
L 205.73007 378 
L 205.73007 203.459517 
L 198.766848 203.459517 
z
" style="fill:#0000ff;fill-opacity:0.2;stroke:#0000ff;stroke-linejoin:miter;"/>
   </g>
   <g id="patch_24">
    <path clip-path="url(#p87deac8969)" d="M 205.73007 378 
L 212.693293 378 
L 212.693293 220.488674 
L 205.73007 220.488674 
z
" style="fill:#0000ff;fill-opacity:0.2;stroke:#0000ff;stroke-linejoin:miter;"/>
   </g>
   <g id="patch_25">
    <path clip-path="url(#p87deac8969)" d="M 212.693293 378 
L 219.656516 378 
L 219.656516 238.03708 
L 212.693293 238.03708 
z
" style="fill:#0000ff;fill-opacity:0.2;stroke:#0000ff;stroke-linejoin:miter;"/>
   </g>
   <g id="patch_26">
    <path clip-path="url(#p87deac8969)" d="M 219.656516 378 
L 226.619738 378 
L 226.619738 250.52699 
L 219.656516 250.52699 
z
" style="fill:#0000ff;fill-opacity:0.2;stroke:#0000ff;stroke-linejoin:miter;"/>
   </g>
   <g id="patch_27">
    <path clip-path="url(#p87deac8969)" d="M 226.619738 378 
L 233.582961 378 
L 233.582961 265.373065 
L 226.619738 265.373065 
z
" style="fill:#0000ff;fill-opacity:0.2;stroke:#0000ff;stroke-linejoin:miter;"/>
   </g>
   <g id="patch_28">
    <path clip-path="url(#p87deac8969)" d="M 233.582961 378 
L 240.546184 378 
L 240.546184 281.134806 
L 233.582961 281.134806 
z
" style="fill:#0000ff;fill-opacity:0.2;stroke:#0000ff;stroke-linejoin:miter;"/>
   </g>
   <g id="patch_29">
    <path clip-path="url(#p87deac8969)" d="M 240.546184 378 
L 247.509406 378 
L 247.509406 293.122215 
L 240.546184 293.122215 
z
" style="fill:#0000ff;fill-opacity:0.2;stroke:#0000ff;stroke-linejoin:miter;"/>
   </g>
   <g id="patch_30">
    <path clip-path="url(#p87deac8969)" d="M 247.509406 378 
L 254.472629 378 
L 254.472629 305.416708 
L 247.509406 305.416708 
z
" style="fill:#0000ff;fill-opacity:0.2;stroke:#0000ff;stroke-linejoin:miter;"/>
   </g>
   <g id="patch_31">
    <path clip-path="url(#p87deac8969)" d="M 254.472629 378 
L 261.435852 378 
L 261.435852 314.098787 
L 254.472629 314.098787 
z
" style="fill:#0000ff;fill-opacity:0.2;stroke:#0000ff;stroke-linejoin:miter;"/>
   </g>
   <g id="patch_32">
    <path clip-path="url(#p87deac8969)" d="M 261.435852 378 
L 268.399074 378 
L 268.399074 322.987448 
L 261.435852 322.987448 
z
" style="fill:#0000ff;fill-opacity:0.2;stroke:#0000ff;stroke-linejoin:miter;"/>
   </g>
   <g id="patch_33">
    <path clip-path="url(#p87deac8969)" d="M 268.399074 378 
L 275.362297 378 
L 275.362297 331.00511 
L 268.399074 331.00511 
z
" style="fill:#0000ff;fill-opacity:0.2;stroke:#0000ff;stroke-linejoin:miter;"/>
   </g>
   <g id="patch_34">
    <path clip-path="url(#p87deac8969)" d="M 275.362297 378 
L 282.32552 378 
L 282.32552 338.944606 
L 275.362297 338.944606 
z
" style="fill:#0000ff;fill-opacity:0.2;stroke:#0000ff;stroke-linejoin:miter;"/>
   </g>
   <g id="patch_35">
    <path clip-path="url(#p87deac8969)" d="M 282.32552 378 
L 289.288742 378 
L 289.288742 344.650769 
L 282.32552 344.650769 
z
" style="fill:#0000ff;fill-opacity:0.2;stroke:#0000ff;stroke-linejoin:miter;"/>
   </g>
   <g id="patch_36">
    <path clip-path="url(#p87deac8969)" d="M 289.288742 378 
L 296.251965 378 
L 296.251965 350.256433 
L 289.288742 350.256433 
z
" style="fill:#0000ff;fill-opacity:0.2;stroke:#0000ff;stroke-linejoin:miter;"/>
   </g>
   <g id="patch_37">
    <path clip-path="url(#p87deac8969)" d="M 296.251965 378 
L 303.215187 378 
L 303.215187 354.254097 
L 296.251965 354.254097 
z
" style="fill:#0000ff;fill-opacity:0.2;stroke:#0000ff;stroke-linejoin:miter;"/>
   </g>
   <g id="patch_38">
    <path clip-path="url(#p87deac8969)" d="M 303.215187 378 
L 310.17841 378 
L 310.17841 357.967012 
L 303.215187 357.967012 
z
" style="fill:#0000ff;fill-opacity:0.2;stroke:#0000ff;stroke-linejoin:miter;"/>
   </g>
   <g id="patch_39">
    <path clip-path="url(#p87deac8969)" d="M 310.17841 378 
L 317.141633 378 
L 317.141633 361.724593 
L 310.17841 361.724593 
z
" style="fill:#0000ff;fill-opacity:0.2;stroke:#0000ff;stroke-linejoin:miter;"/>
   </g>
   <g id="patch_40">
    <path clip-path="url(#p87deac8969)" d="M 317.141633 378 
L 324.104855 378 
L 324.104855 363.650842 
L 317.141633 363.650842 
z
" style="fill:#0000ff;fill-opacity:0.2;stroke:#0000ff;stroke-linejoin:miter;"/>
   </g>
   <g id="patch_41">
    <path clip-path="url(#p87deac8969)" d="M 324.104855 378 
L 331.068078 378 
L 331.068078 366.409007 
L 324.104855 366.409007 
z
" style="fill:#0000ff;fill-opacity:0.2;stroke:#0000ff;stroke-linejoin:miter;"/>
   </g>
   <g id="patch_42">
    <path clip-path="url(#p87deac8969)" d="M 331.068078 378 
L 338.031301 378 
L 338.031301 368.128672 
L 331.068078 368.128672 
z
" style="fill:#0000ff;fill-opacity:0.2;stroke:#0000ff;stroke-linejoin:miter;"/>
   </g>
   <g id="patch_43">
    <path clip-path="url(#p87deac8969)" d="M 338.031301 378 
L 344.994523 378 
L 344.994523 369.887421 
L 338.031301 369.887421 
z
" style="fill:#0000ff;fill-opacity:0.2;stroke:#0000ff;stroke-linejoin:miter;"/>
   </g>
   <g id="patch_44">
    <path clip-path="url(#p87deac8969)" d="M 344.994523 378 
L 351.957746 378 
L 351.957746 371.802504 
L 344.994523 371.802504 
z
" style="fill:#0000ff;fill-opacity:0.2;stroke:#0000ff;stroke-linejoin:miter;"/>
   </g>
   <g id="patch_45">
    <path clip-path="url(#p87deac8969)" d="M 351.957746 378 
L 358.920969 378 
L 358.920969 372.51717 
L 351.957746 372.51717 
z
" style="fill:#0000ff;fill-opacity:0.2;stroke:#0000ff;stroke-linejoin:miter;"/>
   </g>
   <g id="patch_46">
    <path clip-path="url(#p87deac8969)" d="M 358.920969 378 
L 365.884191 378 
L 365.884191 373.700836 
L 358.920969 373.700836 
z
" style="fill:#0000ff;fill-opacity:0.2;stroke:#0000ff;stroke-linejoin:miter;"/>
   </g>
   <g id="patch_47">
    <path clip-path="url(#p87deac8969)" d="M 365.884191 378 
L 372.847414 378 
L 372.847414 374.281502 
L 365.884191 374.281502 
z
" style="fill:#0000ff;fill-opacity:0.2;stroke:#0000ff;stroke-linejoin:miter;"/>
   </g>
   <g id="patch_48">
    <path clip-path="url(#p87deac8969)" d="M 372.847414 378 
L 379.810636 378 
L 379.810636 375.091085 
L 372.847414 375.091085 
z
" style="fill:#0000ff;fill-opacity:0.2;stroke:#0000ff;stroke-linejoin:miter;"/>
   </g>
   <g id="patch_49">
    <path clip-path="url(#p87deac8969)" d="M 379.810636 378 
L 386.773859 378 
L 386.773859 375.649418 
L 379.810636 375.649418 
z
" style="fill:#0000ff;fill-opacity:0.2;stroke:#0000ff;stroke-linejoin:miter;"/>
   </g>
   <g id="patch_50">
    <path clip-path="url(#p87deac8969)" d="M 386.773859 378 
L 393.737082 378 
L 393.737082 376.006751 
L 386.773859 376.006751 
z
" style="fill:#0000ff;fill-opacity:0.2;stroke:#0000ff;stroke-linejoin:miter;"/>
   </g>
   <g id="patch_51">
    <path clip-path="url(#p87deac8969)" d="M 393.737082 378 
L 400.700304 378 
L 400.700304 376.375251 
L 393.737082 376.375251 
z
" style="fill:#0000ff;fill-opacity:0.2;stroke:#0000ff;stroke-linejoin:miter;"/>
   </g>
   <g id="patch_52">
    <path clip-path="url(#p87deac8969)" d="M 400.700304 378 
L 407.663527 378 
L 407.663527 376.710251 
L 400.700304 376.710251 
z
" style="fill:#0000ff;fill-opacity:0.2;stroke:#0000ff;stroke-linejoin:miter;"/>
   </g>
   <g id="patch_53">
    <path clip-path="url(#p87deac8969)" d="M 407.663527 378 
L 414.62675 378 
L 414.62675 377.000584 
L 407.663527 377.000584 
z
" style="fill:#0000ff;fill-opacity:0.2;stroke:#0000ff;stroke-linejoin:miter;"/>
   </g>
   <g id="patch_54">
    <path clip-path="url(#p87deac8969)" d="M 414.62675 378 
L 421.589972 378 
L 421.589972 377.134584 
L 414.62675 377.134584 
z
" style="fill:#0000ff;fill-opacity:0.2;stroke:#0000ff;stroke-linejoin:miter;"/>
   </g>
   <g id="patch_55">
    <path clip-path="url(#p87deac8969)" d="M 421.589972 378 
L 428.553195 378 
L 428.553195 377.357917 
L 421.589972 377.357917 
z
" style="fill:#0000ff;fill-opacity:0.2;stroke:#0000ff;stroke-linejoin:miter;"/>
   </g>
   <g id="patch_56">
    <path clip-path="url(#p87deac8969)" d="M 428.553195 378 
L 435.516418 378 
L 435.516418 377.4975 
L 428.553195 377.4975 
z
" style="fill:#0000ff;fill-opacity:0.2;stroke:#0000ff;stroke-linejoin:miter;"/>
   </g>
   <g id="patch_57">
    <path clip-path="url(#p87deac8969)" d="M 435.516418 378 
L 442.47964 378 
L 442.47964 377.542167 
L 435.516418 377.542167 
z
" style="fill:#0000ff;fill-opacity:0.2;stroke:#0000ff;stroke-linejoin:miter;"/>
   </g>
   <g id="patch_58">
    <path clip-path="url(#p87deac8969)" d="M 442.47964 378 
L 449.442863 378 
L 449.442863 377.720833 
L 442.47964 377.720833 
z
" style="fill:#0000ff;fill-opacity:0.2;stroke:#0000ff;stroke-linejoin:miter;"/>
   </g>
   <g id="patch_59">
    <path clip-path="url(#p87deac8969)" d="M 449.442863 378 
L 456.406086 378 
L 456.406086 377.71525 
L 449.442863 377.71525 
z
" style="fill:#0000ff;fill-opacity:0.2;stroke:#0000ff;stroke-linejoin:miter;"/>
   </g>
   <g id="patch_60">
    <path clip-path="url(#p87deac8969)" d="M 456.406086 378 
L 463.369308 378 
L 463.369308 377.804583 
L 456.406086 377.804583 
z
" style="fill:#0000ff;fill-opacity:0.2;stroke:#0000ff;stroke-linejoin:miter;"/>
   </g>
   <g id="patch_61">
    <path clip-path="url(#p87deac8969)" d="M 463.369308 378 
L 470.332531 378 
L 470.332531 377.826917 
L 463.369308 377.826917 
z
" style="fill:#0000ff;fill-opacity:0.2;stroke:#0000ff;stroke-linejoin:miter;"/>
   </g>
   <g id="patch_62">
    <path clip-path="url(#p87deac8969)" d="M 470.332531 378 
L 477.295753 378 
L 477.295753 377.838083 
L 470.332531 377.838083 
z
" style="fill:#0000ff;fill-opacity:0.2;stroke:#0000ff;stroke-linejoin:miter;"/>
   </g>
   <g id="patch_63">
    <path clip-path="url(#p87deac8969)" d="M 477.295753 378 
L 484.258976 378 
L 484.258976 377.838083 
L 477.295753 377.838083 
z
" style="fill:#0000ff;fill-opacity:0.2;stroke:#0000ff;stroke-linejoin:miter;"/>
   </g>
   <g id="patch_64">
    <path clip-path="url(#p87deac8969)" d="M 484.258976 378 
L 491.222199 378 
L 491.222199 377.927417 
L 484.258976 377.927417 
z
" style="fill:#0000ff;fill-opacity:0.2;stroke:#0000ff;stroke-linejoin:miter;"/>
   </g>
   <g id="patch_65">
    <path clip-path="url(#p87deac8969)" d="M 491.222199 378 
L 498.185421 378 
L 498.185421 377.944167 
L 491.222199 377.944167 
z
" style="fill:#0000ff;fill-opacity:0.2;stroke:#0000ff;stroke-linejoin:miter;"/>
   </g>
   <g id="patch_66">
    <path clip-path="url(#p87deac8969)" d="M 498.185421 378 
L 505.148644 378 
L 505.148644 377.938583 
L 498.185421 377.938583 
z
" style="fill:#0000ff;fill-opacity:0.2;stroke:#0000ff;stroke-linejoin:miter;"/>
   </g>
   <g id="patch_67">
    <path clip-path="url(#p87deac8969)" d="M 505.148644 378 
L 512.111867 378 
L 512.111867 377.927417 
L 505.148644 377.927417 
z
" style="fill:#0000ff;fill-opacity:0.2;stroke:#0000ff;stroke-linejoin:miter;"/>
   </g>
   <g id="patch_68">
    <path clip-path="url(#p87deac8969)" d="M 512.111867 378 
L 519.075089 378 
L 519.075089 377.944167 
L 512.111867 377.944167 
z
" style="fill:#0000ff;fill-opacity:0.2;stroke:#0000ff;stroke-linejoin:miter;"/>
   </g>
   <g id="patch_69">
    <path clip-path="url(#p87deac8969)" d="M 519.075089 378 
L 526.038312 378 
L 526.038312 377.960917 
L 519.075089 377.960917 
z
" style="fill:#0000ff;fill-opacity:0.2;stroke:#0000ff;stroke-linejoin:miter;"/>
   </g>
   <g id="patch_70">
    <path clip-path="url(#p87deac8969)" d="M 526.038312 378 
L 533.001535 378 
L 533.001535 377.9665 
L 526.038312 377.9665 
z
" style="fill:#0000ff;fill-opacity:0.2;stroke:#0000ff;stroke-linejoin:miter;"/>
   </g>
   <g id="patch_71">
    <path clip-path="url(#p87deac8969)" d="M 533.001535 378 
L 539.964757 378 
L 539.964757 377.98325 
L 533.001535 377.98325 
z
" style="fill:#0000ff;fill-opacity:0.2;stroke:#0000ff;stroke-linejoin:miter;"/>
   </g>
   <g id="patch_72">
    <path clip-path="url(#p87deac8969)" d="M 539.964757 378 
L 546.92798 378 
L 546.92798 377.98325 
L 539.964757 377.98325 
z
" style="fill:#0000ff;fill-opacity:0.2;stroke:#0000ff;stroke-linejoin:miter;"/>
   </g>
   <g id="patch_73">
    <path clip-path="url(#p87deac8969)" d="M 546.92798 378 
L 553.891202 378 
L 553.891202 377.977667 
L 546.92798 377.977667 
z
" style="fill:#0000ff;fill-opacity:0.2;stroke:#0000ff;stroke-linejoin:miter;"/>
   </g>
   <g id="patch_74">
    <path clip-path="url(#p87deac8969)" d="M 553.891202 378 
L 560.854425 378 
L 560.854425 377.98325 
L 553.891202 377.98325 
z
" style="fill:#0000ff;fill-opacity:0.2;stroke:#0000ff;stroke-linejoin:miter;"/>
   </g>
   <g id="patch_75">
    <path clip-path="url(#p87deac8969)" d="M 560.854425 378 
L 567.817648 378 
L 567.817648 377.994417 
L 560.854425 377.994417 
z
" style="fill:#0000ff;fill-opacity:0.2;stroke:#0000ff;stroke-linejoin:miter;"/>
   </g>
   <g id="patch_76">
    <path clip-path="url(#p87deac8969)" d="M 567.817648 378 
L 574.78087 378 
L 574.78087 377.988833 
L 567.817648 377.988833 
z
" style="fill:#0000ff;fill-opacity:0.2;stroke:#0000ff;stroke-linejoin:miter;"/>
   </g>
   <g id="patch_77">
    <path clip-path="url(#p87deac8969)" d="M 574.78087 378 
L 581.744093 378 
L 581.744093 377.994417 
L 574.78087 377.994417 
z
" style="fill:#0000ff;fill-opacity:0.2;stroke:#0000ff;stroke-linejoin:miter;"/>
   </g>
   <g id="patch_78">
    <path clip-path="url(#p87deac8969)" d="M 581.744093 378 
L 588.707316 378 
L 588.707316 378 
L 581.744093 378 
z
" style="fill:#0000ff;fill-opacity:0.2;stroke:#0000ff;stroke-linejoin:miter;"/>
   </g>
   <g id="patch_79">
    <path clip-path="url(#p87deac8969)" d="M 588.707316 378 
L 595.670538 378 
L 595.670538 378 
L 588.707316 378 
z
" style="fill:#0000ff;fill-opacity:0.2;stroke:#0000ff;stroke-linejoin:miter;"/>
   </g>
   <g id="patch_80">
    <path clip-path="url(#p87deac8969)" d="M 595.670538 378 
L 602.633761 378 
L 602.633761 377.994417 
L 595.670538 377.994417 
z
" style="fill:#0000ff;fill-opacity:0.2;stroke:#0000ff;stroke-linejoin:miter;"/>
   </g>
   <g id="patch_81">
    <path clip-path="url(#p87deac8969)" d="M 602.633761 378 
L 609.596984 378 
L 609.596984 378 
L 602.633761 378 
z
" style="fill:#0000ff;fill-opacity:0.2;stroke:#0000ff;stroke-linejoin:miter;"/>
   </g>
   <g id="patch_82">
    <path clip-path="url(#p87deac8969)" d="M 609.596984 378 
L 616.560206 378 
L 616.560206 377.994417 
L 609.596984 377.994417 
z
" style="fill:#0000ff;fill-opacity:0.2;stroke:#0000ff;stroke-linejoin:miter;"/>
   </g>
   <g id="patch_83">
    <path clip-path="url(#p87deac8969)" d="M 59.502395 378 
L 66.465618 378 
L 66.465618 373.466336 
L 59.502395 373.466336 
z
" style="fill:#ff0000;fill-opacity:0.2;stroke:#ff0000;stroke-linejoin:miter;"/>
   </g>
   <g id="patch_84">
    <path clip-path="url(#p87deac8969)" d="M 66.465618 378 
L 73.42884 378 
L 73.42884 358.737511 
L 66.465618 358.737511 
z
" style="fill:#ff0000;fill-opacity:0.2;stroke:#ff0000;stroke-linejoin:miter;"/>
   </g>
   <g id="patch_85">
    <path clip-path="url(#p87deac8969)" d="M 73.42884 378 
L 80.392063 378 
L 80.392063 330.435611 
L 73.42884 330.435611 
z
" style="fill:#ff0000;fill-opacity:0.2;stroke:#ff0000;stroke-linejoin:miter;"/>
   </g>
   <g id="patch_86">
    <path clip-path="url(#p87deac8969)" d="M 80.392063 378 
L 87.355286 378 
L 87.355286 285.020803 
L 80.392063 285.020803 
z
" style="fill:#ff0000;fill-opacity:0.2;stroke:#ff0000;stroke-linejoin:miter;"/>
   </g>
   <g id="patch_87">
    <path clip-path="url(#p87deac8969)" d="M 87.355286 378 
L 94.318508 378 
L 94.318508 239.572496 
L 87.355286 239.572496 
z
" style="fill:#ff0000;fill-opacity:0.2;stroke:#ff0000;stroke-linejoin:miter;"/>
   </g>
   <g id="patch_88">
    <path clip-path="url(#p87deac8969)" d="M 94.318508 378 
L 101.281731 378 
L 101.281731 190.104191 
L 94.318508 190.104191 
z
" style="fill:#ff0000;fill-opacity:0.2;stroke:#ff0000;stroke-linejoin:miter;"/>
   </g>
   <g id="patch_89">
    <path clip-path="url(#p87deac8969)" d="M 101.281731 378 
L 108.244953 378 
L 108.244953 142.416969 
L 101.281731 142.416969 
z
" style="fill:#ff0000;fill-opacity:0.2;stroke:#ff0000;stroke-linejoin:miter;"/>
   </g>
   <g id="patch_90">
    <path clip-path="url(#p87deac8969)" d="M 108.244953 378 
L 115.208176 378 
L 115.208176 114.187652 
L 108.244953 114.187652 
z
" style="fill:#ff0000;fill-opacity:0.2;stroke:#ff0000;stroke-linejoin:miter;"/>
   </g>
   <g id="patch_91">
    <path clip-path="url(#p87deac8969)" d="M 115.208176 378 
L 122.171399 378 
L 122.171399 83.021503 
L 115.208176 83.021503 
z
" style="fill:#ff0000;fill-opacity:0.2;stroke:#ff0000;stroke-linejoin:miter;"/>
   </g>
   <g id="patch_92">
    <path clip-path="url(#p87deac8969)" d="M 122.171399 378 
L 129.134621 378 
L 129.134621 68.689094 
L 122.171399 68.689094 
z
" style="fill:#ff0000;fill-opacity:0.2;stroke:#ff0000;stroke-linejoin:miter;"/>
   </g>
   <g id="patch_93">
    <path clip-path="url(#p87deac8969)" d="M 129.134621 378 
L 136.097844 378 
L 136.097844 67.589178 
L 129.134621 67.589178 
z
" style="fill:#ff0000;fill-opacity:0.2;stroke:#ff0000;stroke-linejoin:miter;"/>
   </g>
   <g id="patch_94">
    <path clip-path="url(#p87deac8969)" d="M 136.097844 378 
L 143.061067 378 
L 143.061067 67.371429 
L 136.097844 67.371429 
z
" style="fill:#ff0000;fill-opacity:0.2;stroke:#ff0000;stroke-linejoin:miter;"/>
   </g>
   <g id="patch_95">
    <path clip-path="url(#p87deac8969)" d="M 143.061067 378 
L 150.024289 378 
L 150.024289 81.218087 
L 143.061067 81.218087 
z
" style="fill:#ff0000;fill-opacity:0.2;stroke:#ff0000;stroke-linejoin:miter;"/>
   </g>
   <g id="patch_96">
    <path clip-path="url(#p87deac8969)" d="M 150.024289 378 
L 156.987512 378 
L 156.987512 89.967166 
L 150.024289 89.967166 
z
" style="fill:#ff0000;fill-opacity:0.2;stroke:#ff0000;stroke-linejoin:miter;"/>
   </g>
   <g id="patch_97">
    <path clip-path="url(#p87deac8969)" d="M 156.987512 378 
L 163.950735 378 
L 163.950735 101.122659 
L 156.987512 101.122659 
z
" style="fill:#ff0000;fill-opacity:0.2;stroke:#ff0000;stroke-linejoin:miter;"/>
   </g>
   <g id="patch_98">
    <path clip-path="url(#p87deac8969)" d="M 163.950735 378 
L 170.913957 378 
L 170.913957 116.956983 
L 163.950735 116.956983 
z
" style="fill:#ff0000;fill-opacity:0.2;stroke:#ff0000;stroke-linejoin:miter;"/>
   </g>
   <g id="patch_99">
    <path clip-path="url(#p87deac8969)" d="M 170.913957 378 
L 177.87718 378 
L 177.87718 135.884473 
L 170.913957 135.884473 
z
" style="fill:#ff0000;fill-opacity:0.2;stroke:#ff0000;stroke-linejoin:miter;"/>
   </g>
   <g id="patch_100">
    <path clip-path="url(#p87deac8969)" d="M 177.87718 378 
L 184.840403 378 
L 184.840403 151.75788 
L 177.87718 151.75788 
z
" style="fill:#ff0000;fill-opacity:0.2;stroke:#ff0000;stroke-linejoin:miter;"/>
   </g>
   <g id="patch_101">
    <path clip-path="url(#p87deac8969)" d="M 184.840403 378 
L 191.803625 378 
L 191.803625 167.731788 
L 184.840403 167.731788 
z
" style="fill:#ff0000;fill-opacity:0.2;stroke:#ff0000;stroke-linejoin:miter;"/>
   </g>
   <g id="patch_102">
    <path clip-path="url(#p87deac8969)" d="M 191.803625 378 
L 198.766848 378 
L 198.766848 186.167944 
L 191.803625 186.167944 
z
" style="fill:#ff0000;fill-opacity:0.2;stroke:#ff0000;stroke-linejoin:miter;"/>
   </g>
   <g id="patch_103">
    <path clip-path="url(#p87deac8969)" d="M 198.766848 378 
L 205.73007 378 
L 205.73007 202.917934 
L 198.766848 202.917934 
z
" style="fill:#ff0000;fill-opacity:0.2;stroke:#ff0000;stroke-linejoin:miter;"/>
   </g>
   <g id="patch_104">
    <path clip-path="url(#p87deac8969)" d="M 205.73007 378 
L 212.693293 378 
L 212.693293 221.393173 
L 205.73007 221.393173 
z
" style="fill:#ff0000;fill-opacity:0.2;stroke:#ff0000;stroke-linejoin:miter;"/>
   </g>
   <g id="patch_105">
    <path clip-path="url(#p87deac8969)" d="M 212.693293 378 
L 219.656516 378 
L 219.656516 237.607164 
L 212.693293 237.607164 
z
" style="fill:#ff0000;fill-opacity:0.2;stroke:#ff0000;stroke-linejoin:miter;"/>
   </g>
   <g id="patch_106">
    <path clip-path="url(#p87deac8969)" d="M 219.656516 378 
L 226.619738 378 
L 226.619738 251.319823 
L 219.656516 251.319823 
z
" style="fill:#ff0000;fill-opacity:0.2;stroke:#ff0000;stroke-linejoin:miter;"/>
   </g>
   <g id="patch_107">
    <path clip-path="url(#p87deac8969)" d="M 226.619738 378 
L 233.582961 378 
L 233.582961 265.127398 
L 226.619738 265.127398 
z
" style="fill:#ff0000;fill-opacity:0.2;stroke:#ff0000;stroke-linejoin:miter;"/>
   </g>
   <g id="patch_108">
    <path clip-path="url(#p87deac8969)" d="M 233.582961 378 
L 240.546184 378 
L 240.546184 280.012556 
L 233.582961 280.012556 
z
" style="fill:#ff0000;fill-opacity:0.2;stroke:#ff0000;stroke-linejoin:miter;"/>
   </g>
   <g id="patch_109">
    <path clip-path="url(#p87deac8969)" d="M 240.546184 378 
L 247.509406 378 
L 247.509406 293.272965 
L 240.546184 293.272965 
z
" style="fill:#ff0000;fill-opacity:0.2;stroke:#ff0000;stroke-linejoin:miter;"/>
   </g>
   <g id="patch_110">
    <path clip-path="url(#p87deac8969)" d="M 247.509406 378 
L 254.472629 378 
L 254.472629 304.545709 
L 247.509406 304.545709 
z
" style="fill:#ff0000;fill-opacity:0.2;stroke:#ff0000;stroke-linejoin:miter;"/>
   </g>
   <g id="patch_111">
    <path clip-path="url(#p87deac8969)" d="M 254.472629 378 
L 261.435852 378 
L 261.435852 314.45612 
L 254.472629 314.45612 
z
" style="fill:#ff0000;fill-opacity:0.2;stroke:#ff0000;stroke-linejoin:miter;"/>
   </g>
   <g id="patch_112">
    <path clip-path="url(#p87deac8969)" d="M 261.435852 378 
L 268.399074 378 
L 268.399074 323.478781 
L 261.435852 323.478781 
z
" style="fill:#ff0000;fill-opacity:0.2;stroke:#ff0000;stroke-linejoin:miter;"/>
   </g>
   <g id="patch_113">
    <path clip-path="url(#p87deac8969)" d="M 268.399074 378 
L 275.362297 378 
L 275.362297 331.401527 
L 268.399074 331.401527 
z
" style="fill:#ff0000;fill-opacity:0.2;stroke:#ff0000;stroke-linejoin:miter;"/>
   </g>
   <g id="patch_114">
    <path clip-path="url(#p87deac8969)" d="M 275.362297 378 
L 282.32552 378 
L 282.32552 337.867023 
L 275.362297 337.867023 
z
" style="fill:#ff0000;fill-opacity:0.2;stroke:#ff0000;stroke-linejoin:miter;"/>
   </g>
   <g id="patch_115">
    <path clip-path="url(#p87deac8969)" d="M 282.32552 378 
L 289.288742 378 
L 289.288742 344.170603 
L 282.32552 344.170603 
z
" style="fill:#ff0000;fill-opacity:0.2;stroke:#ff0000;stroke-linejoin:miter;"/>
   </g>
   <g id="patch_116">
    <path clip-path="url(#p87deac8969)" d="M 289.288742 378 
L 296.251965 378 
L 296.251965 349.452433 
L 289.288742 349.452433 
z
" style="fill:#ff0000;fill-opacity:0.2;stroke:#ff0000;stroke-linejoin:miter;"/>
   </g>
   <g id="patch_117">
    <path clip-path="url(#p87deac8969)" d="M 296.251965 378 
L 303.215187 378 
L 303.215187 353.567347 
L 296.251965 353.567347 
z
" style="fill:#ff0000;fill-opacity:0.2;stroke:#ff0000;stroke-linejoin:miter;"/>
   </g>
   <g id="patch_118">
    <path clip-path="url(#p87deac8969)" d="M 303.215187 378 
L 310.17841 378 
L 310.17841 357.872095 
L 303.215187 357.872095 
z
" style="fill:#ff0000;fill-opacity:0.2;stroke:#ff0000;stroke-linejoin:miter;"/>
   </g>
   <g id="patch_119">
    <path clip-path="url(#p87deac8969)" d="M 310.17841 378 
L 317.141633 378 
L 317.141633 360.808927 
L 310.17841 360.808927 
z
" style="fill:#ff0000;fill-opacity:0.2;stroke:#ff0000;stroke-linejoin:miter;"/>
   </g>
   <g id="patch_120">
    <path clip-path="url(#p87deac8969)" d="M 317.141633 378 
L 324.104855 378 
L 324.104855 363.835091 
L 317.141633 363.835091 
z
" style="fill:#ff0000;fill-opacity:0.2;stroke:#ff0000;stroke-linejoin:miter;"/>
   </g>
   <g id="patch_121">
    <path clip-path="url(#p87deac8969)" d="M 324.104855 378 
L 331.068078 378 
L 331.068078 366.168923 
L 324.104855 366.168923 
z
" style="fill:#ff0000;fill-opacity:0.2;stroke:#ff0000;stroke-linejoin:miter;"/>
   </g>
   <g id="patch_122">
    <path clip-path="url(#p87deac8969)" d="M 331.068078 378 
L 338.031301 378 
L 338.031301 368.223589 
L 331.068078 368.223589 
z
" style="fill:#ff0000;fill-opacity:0.2;stroke:#ff0000;stroke-linejoin:miter;"/>
   </g>
   <g id="patch_123">
    <path clip-path="url(#p87deac8969)" d="M 338.031301 378 
L 344.994523 378 
L 344.994523 370.311754 
L 338.031301 370.311754 
z
" style="fill:#ff0000;fill-opacity:0.2;stroke:#ff0000;stroke-linejoin:miter;"/>
   </g>
   <g id="patch_124">
    <path clip-path="url(#p87deac8969)" d="M 344.994523 378 
L 351.957746 378 
L 351.957746 371.434004 
L 344.994523 371.434004 
z
" style="fill:#ff0000;fill-opacity:0.2;stroke:#ff0000;stroke-linejoin:miter;"/>
   </g>
   <g id="patch_125">
    <path clip-path="url(#p87deac8969)" d="M 351.957746 378 
L 358.920969 378 
L 358.920969 373.192753 
L 351.957746 373.192753 
z
" style="fill:#ff0000;fill-opacity:0.2;stroke:#ff0000;stroke-linejoin:miter;"/>
   </g>
   <g id="patch_126">
    <path clip-path="url(#p87deac8969)" d="M 358.920969 378 
L 365.884191 378 
L 365.884191 373.712002 
L 358.920969 373.712002 
z
" style="fill:#ff0000;fill-opacity:0.2;stroke:#ff0000;stroke-linejoin:miter;"/>
   </g>
   <g id="patch_127">
    <path clip-path="url(#p87deac8969)" d="M 365.884191 378 
L 372.847414 378 
L 372.847414 374.359669 
L 365.884191 374.359669 
z
" style="fill:#ff0000;fill-opacity:0.2;stroke:#ff0000;stroke-linejoin:miter;"/>
   </g>
   <g id="patch_128">
    <path clip-path="url(#p87deac8969)" d="M 372.847414 378 
L 379.810636 378 
L 379.810636 375.012918 
L 372.847414 375.012918 
z
" style="fill:#ff0000;fill-opacity:0.2;stroke:#ff0000;stroke-linejoin:miter;"/>
   </g>
   <g id="patch_129">
    <path clip-path="url(#p87deac8969)" d="M 379.810636 378 
L 386.773859 378 
L 386.773859 375.666168 
L 379.810636 375.666168 
z
" style="fill:#ff0000;fill-opacity:0.2;stroke:#ff0000;stroke-linejoin:miter;"/>
   </g>
   <g id="patch_130">
    <path clip-path="url(#p87deac8969)" d="M 386.773859 378 
L 393.737082 378 
L 393.737082 376.124001 
L 386.773859 376.124001 
z
" style="fill:#ff0000;fill-opacity:0.2;stroke:#ff0000;stroke-linejoin:miter;"/>
   </g>
   <g id="patch_131">
    <path clip-path="url(#p87deac8969)" d="M 393.737082 378 
L 400.700304 378 
L 400.700304 376.498084 
L 393.737082 376.498084 
z
" style="fill:#ff0000;fill-opacity:0.2;stroke:#ff0000;stroke-linejoin:miter;"/>
   </g>
   <g id="patch_132">
    <path clip-path="url(#p87deac8969)" d="M 400.700304 378 
L 407.663527 378 
L 407.663527 376.704667 
L 400.700304 376.704667 
z
" style="fill:#ff0000;fill-opacity:0.2;stroke:#ff0000;stroke-linejoin:miter;"/>
   </g>
   <g id="patch_133">
    <path clip-path="url(#p87deac8969)" d="M 407.663527 378 
L 414.62675 378 
L 414.62675 377.006167 
L 407.663527 377.006167 
z
" style="fill:#ff0000;fill-opacity:0.2;stroke:#ff0000;stroke-linejoin:miter;"/>
   </g>
   <g id="patch_134">
    <path clip-path="url(#p87deac8969)" d="M 414.62675 378 
L 421.589972 378 
L 421.589972 377.17925 
L 414.62675 377.17925 
z
" style="fill:#ff0000;fill-opacity:0.2;stroke:#ff0000;stroke-linejoin:miter;"/>
   </g>
   <g id="patch_135">
    <path clip-path="url(#p87deac8969)" d="M 421.589972 378 
L 428.553195 378 
L 428.553195 377.357917 
L 421.589972 377.357917 
z
" style="fill:#ff0000;fill-opacity:0.2;stroke:#ff0000;stroke-linejoin:miter;"/>
   </g>
   <g id="patch_136">
    <path clip-path="url(#p87deac8969)" d="M 428.553195 378 
L 435.516418 378 
L 435.516418 377.436084 
L 428.553195 377.436084 
z
" style="fill:#ff0000;fill-opacity:0.2;stroke:#ff0000;stroke-linejoin:miter;"/>
   </g>
   <g id="patch_137">
    <path clip-path="url(#p87deac8969)" d="M 435.516418 378 
L 442.47964 378 
L 442.47964 377.558917 
L 435.516418 377.558917 
z
" style="fill:#ff0000;fill-opacity:0.2;stroke:#ff0000;stroke-linejoin:miter;"/>
   </g>
   <g id="patch_138">
    <path clip-path="url(#p87deac8969)" d="M 442.47964 378 
L 449.442863 378 
L 449.442863 377.676167 
L 442.47964 377.676167 
z
" style="fill:#ff0000;fill-opacity:0.2;stroke:#ff0000;stroke-linejoin:miter;"/>
   </g>
   <g id="patch_139">
    <path clip-path="url(#p87deac8969)" d="M 449.442863 378 
L 456.406086 378 
L 456.406086 377.692917 
L 449.442863 377.692917 
z
" style="fill:#ff0000;fill-opacity:0.2;stroke:#ff0000;stroke-linejoin:miter;"/>
   </g>
   <g id="patch_140">
    <path clip-path="url(#p87deac8969)" d="M 456.406086 378 
L 463.369308 378 
L 463.369308 377.754333 
L 456.406086 377.754333 
z
" style="fill:#ff0000;fill-opacity:0.2;stroke:#ff0000;stroke-linejoin:miter;"/>
   </g>
   <g id="patch_141">
    <path clip-path="url(#p87deac8969)" d="M 463.369308 378 
L 470.332531 378 
L 470.332531 377.787833 
L 463.369308 377.787833 
z
" style="fill:#ff0000;fill-opacity:0.2;stroke:#ff0000;stroke-linejoin:miter;"/>
   </g>
   <g id="patch_142">
    <path clip-path="url(#p87deac8969)" d="M 470.332531 378 
L 477.295753 378 
L 477.295753 377.84925 
L 470.332531 377.84925 
z
" style="fill:#ff0000;fill-opacity:0.2;stroke:#ff0000;stroke-linejoin:miter;"/>
   </g>
   <g id="patch_143">
    <path clip-path="url(#p87deac8969)" d="M 477.295753 378 
L 484.258976 378 
L 484.258976 377.8995 
L 477.295753 377.8995 
z
" style="fill:#ff0000;fill-opacity:0.2;stroke:#ff0000;stroke-linejoin:miter;"/>
   </g>
   <g id="patch_144">
    <path clip-path="url(#p87deac8969)" d="M 484.258976 378 
L 491.222199 378 
L 491.222199 377.893917 
L 484.258976 377.893917 
z
" style="fill:#ff0000;fill-opacity:0.2;stroke:#ff0000;stroke-linejoin:miter;"/>
   </g>
   <g id="patch_145">
    <path clip-path="url(#p87deac8969)" d="M 491.222199 378 
L 498.185421 378 
L 498.185421 377.955333 
L 491.222199 377.955333 
z
" style="fill:#ff0000;fill-opacity:0.2;stroke:#ff0000;stroke-linejoin:miter;"/>
   </g>
   <g id="patch_146">
    <path clip-path="url(#p87deac8969)" d="M 498.185421 378 
L 505.148644 378 
L 505.148644 377.927417 
L 498.185421 377.927417 
z
" style="fill:#ff0000;fill-opacity:0.2;stroke:#ff0000;stroke-linejoin:miter;"/>
   </g>
   <g id="patch_147">
    <path clip-path="url(#p87deac8969)" d="M 505.148644 378 
L 512.111867 378 
L 512.111867 377.972083 
L 505.148644 377.972083 
z
" style="fill:#ff0000;fill-opacity:0.2;stroke:#ff0000;stroke-linejoin:miter;"/>
   </g>
   <g id="patch_148">
    <path clip-path="url(#p87deac8969)" d="M 512.111867 378 
L 519.075089 378 
L 519.075089 377.972083 
L 512.111867 377.972083 
z
" style="fill:#ff0000;fill-opacity:0.2;stroke:#ff0000;stroke-linejoin:miter;"/>
   </g>
   <g id="patch_149">
    <path clip-path="url(#p87deac8969)" d="M 519.075089 378 
L 526.038312 378 
L 526.038312 377.972083 
L 519.075089 377.972083 
z
" style="fill:#ff0000;fill-opacity:0.2;stroke:#ff0000;stroke-linejoin:miter;"/>
   </g>
   <g id="patch_150">
    <path clip-path="url(#p87deac8969)" d="M 526.038312 378 
L 533.001535 378 
L 533.001535 377.94975 
L 526.038312 377.94975 
z
" style="fill:#ff0000;fill-opacity:0.2;stroke:#ff0000;stroke-linejoin:miter;"/>
   </g>
   <g id="patch_151">
    <path clip-path="url(#p87deac8969)" d="M 533.001535 378 
L 539.964757 378 
L 539.964757 377.972083 
L 533.001535 377.972083 
z
" style="fill:#ff0000;fill-opacity:0.2;stroke:#ff0000;stroke-linejoin:miter;"/>
   </g>
   <g id="patch_152">
    <path clip-path="url(#p87deac8969)" d="M 539.964757 378 
L 546.92798 378 
L 546.92798 377.977667 
L 539.964757 377.977667 
z
" style="fill:#ff0000;fill-opacity:0.2;stroke:#ff0000;stroke-linejoin:miter;"/>
   </g>
   <g id="patch_153">
    <path clip-path="url(#p87deac8969)" d="M 546.92798 378 
L 553.891202 378 
L 553.891202 377.988833 
L 546.92798 377.988833 
z
" style="fill:#ff0000;fill-opacity:0.2;stroke:#ff0000;stroke-linejoin:miter;"/>
   </g>
   <g id="patch_154">
    <path clip-path="url(#p87deac8969)" d="M 553.891202 378 
L 560.854425 378 
L 560.854425 377.988833 
L 553.891202 377.988833 
z
" style="fill:#ff0000;fill-opacity:0.2;stroke:#ff0000;stroke-linejoin:miter;"/>
   </g>
   <g id="patch_155">
    <path clip-path="url(#p87deac8969)" d="M 560.854425 378 
L 567.817648 378 
L 567.817648 377.994417 
L 560.854425 377.994417 
z
" style="fill:#ff0000;fill-opacity:0.2;stroke:#ff0000;stroke-linejoin:miter;"/>
   </g>
   <g id="patch_156">
    <path clip-path="url(#p87deac8969)" d="M 567.817648 378 
L 574.78087 378 
L 574.78087 377.994417 
L 567.817648 377.994417 
z
" style="fill:#ff0000;fill-opacity:0.2;stroke:#ff0000;stroke-linejoin:miter;"/>
   </g>
   <g id="patch_157">
    <path clip-path="url(#p87deac8969)" d="M 574.78087 378 
L 581.744093 378 
L 581.744093 378 
L 574.78087 378 
z
" style="fill:#ff0000;fill-opacity:0.2;stroke:#ff0000;stroke-linejoin:miter;"/>
   </g>
   <g id="patch_158">
    <path clip-path="url(#p87deac8969)" d="M 581.744093 378 
L 588.707316 378 
L 588.707316 377.988833 
L 581.744093 377.988833 
z
" style="fill:#ff0000;fill-opacity:0.2;stroke:#ff0000;stroke-linejoin:miter;"/>
   </g>
   <g id="patch_159">
    <path clip-path="url(#p87deac8969)" d="M 588.707316 378 
L 595.670538 378 
L 595.670538 378 
L 588.707316 378 
z
" style="fill:#ff0000;fill-opacity:0.2;stroke:#ff0000;stroke-linejoin:miter;"/>
   </g>
   <g id="patch_160">
    <path clip-path="url(#p87deac8969)" d="M 595.670538 378 
L 602.633761 378 
L 602.633761 377.994417 
L 595.670538 377.994417 
z
" style="fill:#ff0000;fill-opacity:0.2;stroke:#ff0000;stroke-linejoin:miter;"/>
   </g>
   <g id="patch_161">
    <path clip-path="url(#p87deac8969)" d="M 602.633761 378 
L 609.596984 378 
L 609.596984 378 
L 602.633761 378 
z
" style="fill:#ff0000;fill-opacity:0.2;stroke:#ff0000;stroke-linejoin:miter;"/>
   </g>
   <g id="patch_162">
    <path clip-path="url(#p87deac8969)" d="M 609.596984 378 
L 616.560206 378 
L 616.560206 378 
L 609.596984 378 
z
" style="fill:#ff0000;fill-opacity:0.2;stroke:#ff0000;stroke-linejoin:miter;"/>
   </g>
   <g id="matplotlib.axis_1">
    <g id="xtick_1">
     <g id="line2d_1">
      <defs>
       <path d="M 0 0 
L 0 3.5 
" id="m8cc8819eaa" style="stroke:#000000;stroke-width:0.8;"/>
      </defs>
      <g>
       <use style="stroke:#000000;stroke-width:0.8;" x="110.262857" xlink:href="#m8cc8819eaa" y="378"/>
      </g>
     </g>
     <g id="text_1">
      <!-- 0.04 -->
      <defs>
       <path d="M 31.78125 66.40625 
Q 24.171875 66.40625 20.328125 58.90625 
Q 16.5 51.421875 16.5 36.375 
Q 16.5 21.390625 20.328125 13.890625 
Q 24.171875 6.390625 31.78125 6.390625 
Q 39.453125 6.390625 43.28125 13.890625 
Q 47.125 21.390625 47.125 36.375 
Q 47.125 51.421875 43.28125 58.90625 
Q 39.453125 66.40625 31.78125 66.40625 
z
M 31.78125 74.21875 
Q 44.046875 74.21875 50.515625 64.515625 
Q 56.984375 54.828125 56.984375 36.375 
Q 56.984375 17.96875 50.515625 8.265625 
Q 44.046875 -1.421875 31.78125 -1.421875 
Q 19.53125 -1.421875 13.0625 8.265625 
Q 6.59375 17.96875 6.59375 36.375 
Q 6.59375 54.828125 13.0625 64.515625 
Q 19.53125 74.21875 31.78125 74.21875 
z
" id="DejaVuSans-48"/>
       <path d="M 10.6875 12.40625 
L 21 12.40625 
L 21 0 
L 10.6875 0 
z
" id="DejaVuSans-46"/>
       <path d="M 37.796875 64.3125 
L 12.890625 25.390625 
L 37.796875 25.390625 
z
M 35.203125 72.90625 
L 47.609375 72.90625 
L 47.609375 25.390625 
L 58.015625 25.390625 
L 58.015625 17.1875 
L 47.609375 17.1875 
L 47.609375 0 
L 37.796875 0 
L 37.796875 17.1875 
L 4.890625 17.1875 
L 4.890625 26.703125 
z
" id="DejaVuSans-52"/>
      </defs>
      <g transform="translate(99.130045 392.598437)scale(0.1 -0.1)">
       <use xlink:href="#DejaVuSans-48"/>
       <use x="63.623047" xlink:href="#DejaVuSans-46"/>
       <use x="95.410156" xlink:href="#DejaVuSans-48"/>
       <use x="159.033203" xlink:href="#DejaVuSans-52"/>
      </g>
     </g>
    </g>
    <g id="xtick_2">
     <g id="line2d_2">
      <g>
       <use style="stroke:#000000;stroke-width:0.8;" x="161.28" xlink:href="#m8cc8819eaa" y="378"/>
      </g>
     </g>
     <g id="text_2">
      <!-- 0.06 -->
      <defs>
       <path d="M 33.015625 40.375 
Q 26.375 40.375 22.484375 35.828125 
Q 18.609375 31.296875 18.609375 23.390625 
Q 18.609375 15.53125 22.484375 10.953125 
Q 26.375 6.390625 33.015625 6.390625 
Q 39.65625 6.390625 43.53125 10.953125 
Q 47.40625 15.53125 47.40625 23.390625 
Q 47.40625 31.296875 43.53125 35.828125 
Q 39.65625 40.375 33.015625 40.375 
z
M 52.59375 71.296875 
L 52.59375 62.3125 
Q 48.875 64.0625 45.09375 64.984375 
Q 41.3125 65.921875 37.59375 65.921875 
Q 27.828125 65.921875 22.671875 59.328125 
Q 17.53125 52.734375 16.796875 39.40625 
Q 19.671875 43.65625 24.015625 45.921875 
Q 28.375 48.1875 33.59375 48.1875 
Q 44.578125 48.1875 50.953125 41.515625 
Q 57.328125 34.859375 57.328125 23.390625 
Q 57.328125 12.15625 50.6875 5.359375 
Q 44.046875 -1.421875 33.015625 -1.421875 
Q 20.359375 -1.421875 13.671875 8.265625 
Q 6.984375 17.96875 6.984375 36.375 
Q 6.984375 53.65625 15.1875 63.9375 
Q 23.390625 74.21875 37.203125 74.21875 
Q 40.921875 74.21875 44.703125 73.484375 
Q 48.484375 72.75 52.59375 71.296875 
z
" id="DejaVuSans-54"/>
      </defs>
      <g transform="translate(150.147187 392.598437)scale(0.1 -0.1)">
       <use xlink:href="#DejaVuSans-48"/>
       <use x="63.623047" xlink:href="#DejaVuSans-46"/>
       <use x="95.410156" xlink:href="#DejaVuSans-48"/>
       <use x="159.033203" xlink:href="#DejaVuSans-54"/>
      </g>
     </g>
    </g>
    <g id="xtick_3">
     <g id="line2d_3">
      <g>
       <use style="stroke:#000000;stroke-width:0.8;" x="212.297143" xlink:href="#m8cc8819eaa" y="378"/>
      </g>
     </g>
     <g id="text_3">
      <!-- 0.08 -->
      <defs>
       <path d="M 31.78125 34.625 
Q 24.75 34.625 20.71875 30.859375 
Q 16.703125 27.09375 16.703125 20.515625 
Q 16.703125 13.921875 20.71875 10.15625 
Q 24.75 6.390625 31.78125 6.390625 
Q 38.8125 6.390625 42.859375 10.171875 
Q 46.921875 13.96875 46.921875 20.515625 
Q 46.921875 27.09375 42.890625 30.859375 
Q 38.875 34.625 31.78125 34.625 
z
M 21.921875 38.8125 
Q 15.578125 40.375 12.03125 44.71875 
Q 8.5 49.078125 8.5 55.328125 
Q 8.5 64.0625 14.71875 69.140625 
Q 20.953125 74.21875 31.78125 74.21875 
Q 42.671875 74.21875 48.875 69.140625 
Q 55.078125 64.0625 55.078125 55.328125 
Q 55.078125 49.078125 51.53125 44.71875 
Q 48 40.375 41.703125 38.8125 
Q 48.828125 37.15625 52.796875 32.3125 
Q 56.78125 27.484375 56.78125 20.515625 
Q 56.78125 9.90625 50.3125 4.234375 
Q 43.84375 -1.421875 31.78125 -1.421875 
Q 19.734375 -1.421875 13.25 4.234375 
Q 6.78125 9.90625 6.78125 20.515625 
Q 6.78125 27.484375 10.78125 32.3125 
Q 14.796875 37.15625 21.921875 38.8125 
z
M 18.3125 54.390625 
Q 18.3125 48.734375 21.84375 45.5625 
Q 25.390625 42.390625 31.78125 42.390625 
Q 38.140625 42.390625 41.71875 45.5625 
Q 45.3125 48.734375 45.3125 54.390625 
Q 45.3125 60.0625 41.71875 63.234375 
Q 38.140625 66.40625 31.78125 66.40625 
Q 25.390625 66.40625 21.84375 63.234375 
Q 18.3125 60.0625 18.3125 54.390625 
z
" id="DejaVuSans-56"/>
      </defs>
      <g transform="translate(201.16433 392.598437)scale(0.1 -0.1)">
       <use xlink:href="#DejaVuSans-48"/>
       <use x="63.623047" xlink:href="#DejaVuSans-46"/>
       <use x="95.410156" xlink:href="#DejaVuSans-48"/>
       <use x="159.033203" xlink:href="#DejaVuSans-56"/>
      </g>
     </g>
    </g>
    <g id="xtick_4">
     <g id="line2d_4">
      <g>
       <use style="stroke:#000000;stroke-width:0.8;" x="263.314286" xlink:href="#m8cc8819eaa" y="378"/>
      </g>
     </g>
     <g id="text_4">
      <!-- 0.10 -->
      <defs>
       <path d="M 12.40625 8.296875 
L 28.515625 8.296875 
L 28.515625 63.921875 
L 10.984375 60.40625 
L 10.984375 69.390625 
L 28.421875 72.90625 
L 38.28125 72.90625 
L 38.28125 8.296875 
L 54.390625 8.296875 
L 54.390625 0 
L 12.40625 0 
z
" id="DejaVuSans-49"/>
      </defs>
      <g transform="translate(252.181473 392.598437)scale(0.1 -0.1)">
       <use xlink:href="#DejaVuSans-48"/>
       <use x="63.623047" xlink:href="#DejaVuSans-46"/>
       <use x="95.410156" xlink:href="#DejaVuSans-49"/>
       <use x="159.033203" xlink:href="#DejaVuSans-48"/>
      </g>
     </g>
    </g>
    <g id="xtick_5">
     <g id="line2d_5">
      <g>
       <use style="stroke:#000000;stroke-width:0.8;" x="314.331429" xlink:href="#m8cc8819eaa" y="378"/>
      </g>
     </g>
     <g id="text_5">
      <!-- 0.12 -->
      <defs>
       <path d="M 19.1875 8.296875 
L 53.609375 8.296875 
L 53.609375 0 
L 7.328125 0 
L 7.328125 8.296875 
Q 12.9375 14.109375 22.625 23.890625 
Q 32.328125 33.6875 34.8125 36.53125 
Q 39.546875 41.84375 41.421875 45.53125 
Q 43.3125 49.21875 43.3125 52.78125 
Q 43.3125 58.59375 39.234375 62.25 
Q 35.15625 65.921875 28.609375 65.921875 
Q 23.96875 65.921875 18.8125 64.3125 
Q 13.671875 62.703125 7.8125 59.421875 
L 7.8125 69.390625 
Q 13.765625 71.78125 18.9375 73 
Q 24.125 74.21875 28.421875 74.21875 
Q 39.75 74.21875 46.484375 68.546875 
Q 53.21875 62.890625 53.21875 53.421875 
Q 53.21875 48.921875 51.53125 44.890625 
Q 49.859375 40.875 45.40625 35.40625 
Q 44.1875 33.984375 37.640625 27.21875 
Q 31.109375 20.453125 19.1875 8.296875 
z
" id="DejaVuSans-50"/>
      </defs>
      <g transform="translate(303.198616 392.598437)scale(0.1 -0.1)">
       <use xlink:href="#DejaVuSans-48"/>
       <use x="63.623047" xlink:href="#DejaVuSans-46"/>
       <use x="95.410156" xlink:href="#DejaVuSans-49"/>
       <use x="159.033203" xlink:href="#DejaVuSans-50"/>
      </g>
     </g>
    </g>
    <g id="xtick_6">
     <g id="line2d_6">
      <g>
       <use style="stroke:#000000;stroke-width:0.8;" x="365.348571" xlink:href="#m8cc8819eaa" y="378"/>
      </g>
     </g>
     <g id="text_6">
      <!-- 0.14 -->
      <g transform="translate(354.215759 392.598437)scale(0.1 -0.1)">
       <use xlink:href="#DejaVuSans-48"/>
       <use x="63.623047" xlink:href="#DejaVuSans-46"/>
       <use x="95.410156" xlink:href="#DejaVuSans-49"/>
       <use x="159.033203" xlink:href="#DejaVuSans-52"/>
      </g>
     </g>
    </g>
    <g id="xtick_7">
     <g id="line2d_7">
      <g>
       <use style="stroke:#000000;stroke-width:0.8;" x="416.365714" xlink:href="#m8cc8819eaa" y="378"/>
      </g>
     </g>
     <g id="text_7">
      <!-- 0.16 -->
      <g transform="translate(405.232902 392.598437)scale(0.1 -0.1)">
       <use xlink:href="#DejaVuSans-48"/>
       <use x="63.623047" xlink:href="#DejaVuSans-46"/>
       <use x="95.410156" xlink:href="#DejaVuSans-49"/>
       <use x="159.033203" xlink:href="#DejaVuSans-54"/>
      </g>
     </g>
    </g>
    <g id="xtick_8">
     <g id="line2d_8">
      <g>
       <use style="stroke:#000000;stroke-width:0.8;" x="467.382857" xlink:href="#m8cc8819eaa" y="378"/>
      </g>
     </g>
     <g id="text_8">
      <!-- 0.18 -->
      <g transform="translate(456.250045 392.598437)scale(0.1 -0.1)">
       <use xlink:href="#DejaVuSans-48"/>
       <use x="63.623047" xlink:href="#DejaVuSans-46"/>
       <use x="95.410156" xlink:href="#DejaVuSans-49"/>
       <use x="159.033203" xlink:href="#DejaVuSans-56"/>
      </g>
     </g>
    </g>
    <g id="xtick_9">
     <g id="line2d_9">
      <g>
       <use style="stroke:#000000;stroke-width:0.8;" x="518.4" xlink:href="#m8cc8819eaa" y="378"/>
      </g>
     </g>
     <g id="text_9">
      <!-- 0.20 -->
      <g transform="translate(507.267187 392.598437)scale(0.1 -0.1)">
       <use xlink:href="#DejaVuSans-48"/>
       <use x="63.623047" xlink:href="#DejaVuSans-46"/>
       <use x="95.410156" xlink:href="#DejaVuSans-50"/>
       <use x="159.033203" xlink:href="#DejaVuSans-48"/>
      </g>
     </g>
    </g>
    <g id="text_10">
     <!-- Multi-information $\Omega$ -->
     <defs>
      <path d="M 9.8125 72.90625 
L 24.515625 72.90625 
L 43.109375 23.296875 
L 61.8125 72.90625 
L 76.515625 72.90625 
L 76.515625 0 
L 66.890625 0 
L 66.890625 64.015625 
L 48.09375 14.015625 
L 38.1875 14.015625 
L 19.390625 64.015625 
L 19.390625 0 
L 9.8125 0 
z
" id="DejaVuSans-77"/>
      <path d="M 8.5 21.578125 
L 8.5 54.6875 
L 17.484375 54.6875 
L 17.484375 21.921875 
Q 17.484375 14.15625 20.5 10.265625 
Q 23.53125 6.390625 29.59375 6.390625 
Q 36.859375 6.390625 41.078125 11.03125 
Q 45.3125 15.671875 45.3125 23.6875 
L 45.3125 54.6875 
L 54.296875 54.6875 
L 54.296875 0 
L 45.3125 0 
L 45.3125 8.40625 
Q 42.046875 3.421875 37.71875 1 
Q 33.40625 -1.421875 27.6875 -1.421875 
Q 18.265625 -1.421875 13.375 4.4375 
Q 8.5 10.296875 8.5 21.578125 
z
M 31.109375 56 
z
" id="DejaVuSans-117"/>
      <path d="M 9.421875 75.984375 
L 18.40625 75.984375 
L 18.40625 0 
L 9.421875 0 
z
" id="DejaVuSans-108"/>
      <path d="M 18.3125 70.21875 
L 18.3125 54.6875 
L 36.8125 54.6875 
L 36.8125 47.703125 
L 18.3125 47.703125 
L 18.3125 18.015625 
Q 18.3125 11.328125 20.140625 9.421875 
Q 21.96875 7.515625 27.59375 7.515625 
L 36.8125 7.515625 
L 36.8125 0 
L 27.59375 0 
Q 17.1875 0 13.234375 3.875 
Q 9.28125 7.765625 9.28125 18.015625 
L 9.28125 47.703125 
L 2.6875 47.703125 
L 2.6875 54.6875 
L 9.28125 54.6875 
L 9.28125 70.21875 
z
" id="DejaVuSans-116"/>
      <path d="M 9.421875 54.6875 
L 18.40625 54.6875 
L 18.40625 0 
L 9.421875 0 
z
M 9.421875 75.984375 
L 18.40625 75.984375 
L 18.40625 64.59375 
L 9.421875 64.59375 
z
" id="DejaVuSans-105"/>
      <path d="M 4.890625 31.390625 
L 31.203125 31.390625 
L 31.203125 23.390625 
L 4.890625 23.390625 
z
" id="DejaVuSans-45"/>
      <path d="M 54.890625 33.015625 
L 54.890625 0 
L 45.90625 0 
L 45.90625 32.71875 
Q 45.90625 40.484375 42.875 44.328125 
Q 39.84375 48.1875 33.796875 48.1875 
Q 26.515625 48.1875 22.3125 43.546875 
Q 18.109375 38.921875 18.109375 30.90625 
L 18.109375 0 
L 9.078125 0 
L 9.078125 54.6875 
L 18.109375 54.6875 
L 18.109375 46.1875 
Q 21.34375 51.125 25.703125 53.5625 
Q 30.078125 56 35.796875 56 
Q 45.21875 56 50.046875 50.171875 
Q 54.890625 44.34375 54.890625 33.015625 
z
" id="DejaVuSans-110"/>
      <path d="M 37.109375 75.984375 
L 37.109375 68.5 
L 28.515625 68.5 
Q 23.6875 68.5 21.796875 66.546875 
Q 19.921875 64.59375 19.921875 59.515625 
L 19.921875 54.6875 
L 34.71875 54.6875 
L 34.71875 47.703125 
L 19.921875 47.703125 
L 19.921875 0 
L 10.890625 0 
L 10.890625 47.703125 
L 2.296875 47.703125 
L 2.296875 54.6875 
L 10.890625 54.6875 
L 10.890625 58.5 
Q 10.890625 67.625 15.140625 71.796875 
Q 19.390625 75.984375 28.609375 75.984375 
z
" id="DejaVuSans-102"/>
      <path d="M 30.609375 48.390625 
Q 23.390625 48.390625 19.1875 42.75 
Q 14.984375 37.109375 14.984375 27.296875 
Q 14.984375 17.484375 19.15625 11.84375 
Q 23.34375 6.203125 30.609375 6.203125 
Q 37.796875 6.203125 41.984375 11.859375 
Q 46.1875 17.53125 46.1875 27.296875 
Q 46.1875 37.015625 41.984375 42.703125 
Q 37.796875 48.390625 30.609375 48.390625 
z
M 30.609375 56 
Q 42.328125 56 49.015625 48.375 
Q 55.71875 40.765625 55.71875 27.296875 
Q 55.71875 13.875 49.015625 6.21875 
Q 42.328125 -1.421875 30.609375 -1.421875 
Q 18.84375 -1.421875 12.171875 6.21875 
Q 5.515625 13.875 5.515625 27.296875 
Q 5.515625 40.765625 12.171875 48.375 
Q 18.84375 56 30.609375 56 
z
" id="DejaVuSans-111"/>
      <path d="M 41.109375 46.296875 
Q 39.59375 47.171875 37.8125 47.578125 
Q 36.03125 48 33.890625 48 
Q 26.265625 48 22.1875 43.046875 
Q 18.109375 38.09375 18.109375 28.8125 
L 18.109375 0 
L 9.078125 0 
L 9.078125 54.6875 
L 18.109375 54.6875 
L 18.109375 46.1875 
Q 20.953125 51.171875 25.484375 53.578125 
Q 30.03125 56 36.53125 56 
Q 37.453125 56 38.578125 55.875 
Q 39.703125 55.765625 41.0625 55.515625 
z
" id="DejaVuSans-114"/>
      <path d="M 52 44.1875 
Q 55.375 50.25 60.0625 53.125 
Q 64.75 56 71.09375 56 
Q 79.640625 56 84.28125 50.015625 
Q 88.921875 44.046875 88.921875 33.015625 
L 88.921875 0 
L 79.890625 0 
L 79.890625 32.71875 
Q 79.890625 40.578125 77.09375 44.375 
Q 74.3125 48.1875 68.609375 48.1875 
Q 61.625 48.1875 57.5625 43.546875 
Q 53.515625 38.921875 53.515625 30.90625 
L 53.515625 0 
L 44.484375 0 
L 44.484375 32.71875 
Q 44.484375 40.625 41.703125 44.40625 
Q 38.921875 48.1875 33.109375 48.1875 
Q 26.21875 48.1875 22.15625 43.53125 
Q 18.109375 38.875 18.109375 30.90625 
L 18.109375 0 
L 9.078125 0 
L 9.078125 54.6875 
L 18.109375 54.6875 
L 18.109375 46.1875 
Q 21.1875 51.21875 25.484375 53.609375 
Q 29.78125 56 35.6875 56 
Q 41.65625 56 45.828125 52.96875 
Q 50 49.953125 52 44.1875 
z
" id="DejaVuSans-109"/>
      <path d="M 34.28125 27.484375 
Q 23.390625 27.484375 19.1875 25 
Q 14.984375 22.515625 14.984375 16.5 
Q 14.984375 11.71875 18.140625 8.90625 
Q 21.296875 6.109375 26.703125 6.109375 
Q 34.1875 6.109375 38.703125 11.40625 
Q 43.21875 16.703125 43.21875 25.484375 
L 43.21875 27.484375 
z
M 52.203125 31.203125 
L 52.203125 0 
L 43.21875 0 
L 43.21875 8.296875 
Q 40.140625 3.328125 35.546875 0.953125 
Q 30.953125 -1.421875 24.3125 -1.421875 
Q 15.921875 -1.421875 10.953125 3.296875 
Q 6 8.015625 6 15.921875 
Q 6 25.140625 12.171875 29.828125 
Q 18.359375 34.515625 30.609375 34.515625 
L 43.21875 34.515625 
L 43.21875 35.40625 
Q 43.21875 41.609375 39.140625 45 
Q 35.0625 48.390625 27.6875 48.390625 
Q 23 48.390625 18.546875 47.265625 
Q 14.109375 46.140625 10.015625 43.890625 
L 10.015625 52.203125 
Q 14.9375 54.109375 19.578125 55.046875 
Q 24.21875 56 28.609375 56 
Q 40.484375 56 46.34375 49.84375 
Q 52.203125 43.703125 52.203125 31.203125 
z
" id="DejaVuSans-97"/>
      <path id="DejaVuSans-32"/>
      <path d="M 72.609375 8.6875 
L 72.609375 0 
L 43.3125 0 
L 43.3125 8.6875 
Q 51.953125 13.421875 56.78125 21.53125 
Q 61.625 29.640625 61.625 39.5 
Q 61.625 51.21875 55.171875 58.296875 
Q 48.734375 65.375 38.1875 65.375 
Q 27.640625 65.375 21.171875 58.265625 
Q 14.703125 51.171875 14.703125 39.5 
Q 14.703125 29.640625 19.53125 21.53125 
Q 24.421875 13.421875 33.109375 8.6875 
L 33.109375 0 
L 3.8125 0 
L 3.8125 8.6875 
L 19.390625 8.6875 
Q 11.671875 15.484375 8.109375 22.75 
Q 4.59375 30.03125 4.59375 39.015625 
Q 4.59375 54.546875 13.96875 64.15625 
Q 23.296875 73.78125 38.1875 73.78125 
Q 52.984375 73.78125 62.40625 64.15625 
Q 71.78125 54.59375 71.78125 39.5 
Q 71.78125 30.03125 68.3125 22.796875 
Q 64.84375 15.578125 56.984375 8.6875 
z
" id="DejaVuSans-937"/>
     </defs>
     <g transform="translate(227.44 409.315938)scale(0.14 -0.14)">
      <use transform="translate(0 0.015625)" xlink:href="#DejaVuSans-77"/>
      <use transform="translate(86.279297 0.015625)" xlink:href="#DejaVuSans-117"/>
      <use transform="translate(149.658203 0.015625)" xlink:href="#DejaVuSans-108"/>
      <use transform="translate(177.441406 0.015625)" xlink:href="#DejaVuSans-116"/>
      <use transform="translate(216.650391 0.015625)" xlink:href="#DejaVuSans-105"/>
      <use transform="translate(244.433594 0.015625)" xlink:href="#DejaVuSans-45"/>
      <use transform="translate(280.517578 0.015625)" xlink:href="#DejaVuSans-105"/>
      <use transform="translate(308.300781 0.015625)" xlink:href="#DejaVuSans-110"/>
      <use transform="translate(371.679688 0.015625)" xlink:href="#DejaVuSans-102"/>
      <use transform="translate(406.884766 0.015625)" xlink:href="#DejaVuSans-111"/>
      <use transform="translate(468.066406 0.015625)" xlink:href="#DejaVuSans-114"/>
      <use transform="translate(509.179688 0.015625)" xlink:href="#DejaVuSans-109"/>
      <use transform="translate(606.591797 0.015625)" xlink:href="#DejaVuSans-97"/>
      <use transform="translate(667.871094 0.015625)" xlink:href="#DejaVuSans-116"/>
      <use transform="translate(707.080078 0.015625)" xlink:href="#DejaVuSans-105"/>
      <use transform="translate(734.863281 0.015625)" xlink:href="#DejaVuSans-111"/>
      <use transform="translate(796.044922 0.015625)" xlink:href="#DejaVuSans-110"/>
      <use transform="translate(859.423828 0.015625)" xlink:href="#DejaVuSans-32"/>
      <use transform="translate(891.210938 0.015625)" xlink:href="#DejaVuSans-937"/>
     </g>
    </g>
   </g>
   <g id="matplotlib.axis_2">
    <g id="ytick_1">
     <g id="line2d_10">
      <defs>
       <path d="M 0 0 
L -3.5 0 
" id="m0925bfdae3" style="stroke:#000000;stroke-width:0.8;"/>
      </defs>
      <g>
       <use style="stroke:#000000;stroke-width:0.8;" x="72" xlink:href="#m0925bfdae3" y="378"/>
      </g>
     </g>
     <g id="text_11">
      <!-- 0 -->
      <g transform="translate(58.6375 381.799219)scale(0.1 -0.1)">
       <use xlink:href="#DejaVuSans-48"/>
      </g>
     </g>
    </g>
    <g id="ytick_2">
     <g id="line2d_11">
      <g>
       <use style="stroke:#000000;stroke-width:0.8;" x="72" xlink:href="#m0925bfdae3" y="322.166699"/>
      </g>
     </g>
     <g id="text_12">
      <!-- 10000 -->
      <g transform="translate(33.1875 325.965918)scale(0.1 -0.1)">
       <use xlink:href="#DejaVuSans-49"/>
       <use x="63.623047" xlink:href="#DejaVuSans-48"/>
       <use x="127.246094" xlink:href="#DejaVuSans-48"/>
       <use x="190.869141" xlink:href="#DejaVuSans-48"/>
       <use x="254.492188" xlink:href="#DejaVuSans-48"/>
      </g>
     </g>
    </g>
    <g id="ytick_3">
     <g id="line2d_12">
      <g>
       <use style="stroke:#000000;stroke-width:0.8;" x="72" xlink:href="#m0925bfdae3" y="266.333398"/>
      </g>
     </g>
     <g id="text_13">
      <!-- 20000 -->
      <g transform="translate(33.1875 270.132616)scale(0.1 -0.1)">
       <use xlink:href="#DejaVuSans-50"/>
       <use x="63.623047" xlink:href="#DejaVuSans-48"/>
       <use x="127.246094" xlink:href="#DejaVuSans-48"/>
       <use x="190.869141" xlink:href="#DejaVuSans-48"/>
       <use x="254.492188" xlink:href="#DejaVuSans-48"/>
      </g>
     </g>
    </g>
    <g id="ytick_4">
     <g id="line2d_13">
      <g>
       <use style="stroke:#000000;stroke-width:0.8;" x="72" xlink:href="#m0925bfdae3" y="210.500096"/>
      </g>
     </g>
     <g id="text_14">
      <!-- 30000 -->
      <defs>
       <path d="M 40.578125 39.3125 
Q 47.65625 37.796875 51.625 33 
Q 55.609375 28.21875 55.609375 21.1875 
Q 55.609375 10.40625 48.1875 4.484375 
Q 40.765625 -1.421875 27.09375 -1.421875 
Q 22.515625 -1.421875 17.65625 -0.515625 
Q 12.796875 0.390625 7.625 2.203125 
L 7.625 11.71875 
Q 11.71875 9.328125 16.59375 8.109375 
Q 21.484375 6.890625 26.8125 6.890625 
Q 36.078125 6.890625 40.9375 10.546875 
Q 45.796875 14.203125 45.796875 21.1875 
Q 45.796875 27.640625 41.28125 31.265625 
Q 36.765625 34.90625 28.71875 34.90625 
L 20.21875 34.90625 
L 20.21875 43.015625 
L 29.109375 43.015625 
Q 36.375 43.015625 40.234375 45.921875 
Q 44.09375 48.828125 44.09375 54.296875 
Q 44.09375 59.90625 40.109375 62.90625 
Q 36.140625 65.921875 28.71875 65.921875 
Q 24.65625 65.921875 20.015625 65.03125 
Q 15.375 64.15625 9.8125 62.3125 
L 9.8125 71.09375 
Q 15.4375 72.65625 20.34375 73.4375 
Q 25.25 74.21875 29.59375 74.21875 
Q 40.828125 74.21875 47.359375 69.109375 
Q 53.90625 64.015625 53.90625 55.328125 
Q 53.90625 49.265625 50.4375 45.09375 
Q 46.96875 40.921875 40.578125 39.3125 
z
" id="DejaVuSans-51"/>
      </defs>
      <g transform="translate(33.1875 214.299315)scale(0.1 -0.1)">
       <use xlink:href="#DejaVuSans-51"/>
       <use x="63.623047" xlink:href="#DejaVuSans-48"/>
       <use x="127.246094" xlink:href="#DejaVuSans-48"/>
       <use x="190.869141" xlink:href="#DejaVuSans-48"/>
       <use x="254.492188" xlink:href="#DejaVuSans-48"/>
      </g>
     </g>
    </g>
    <g id="ytick_5">
     <g id="line2d_14">
      <g>
       <use style="stroke:#000000;stroke-width:0.8;" x="72" xlink:href="#m0925bfdae3" y="154.666795"/>
      </g>
     </g>
     <g id="text_15">
      <!-- 40000 -->
      <g transform="translate(33.1875 158.466014)scale(0.1 -0.1)">
       <use xlink:href="#DejaVuSans-52"/>
       <use x="63.623047" xlink:href="#DejaVuSans-48"/>
       <use x="127.246094" xlink:href="#DejaVuSans-48"/>
       <use x="190.869141" xlink:href="#DejaVuSans-48"/>
       <use x="254.492188" xlink:href="#DejaVuSans-48"/>
      </g>
     </g>
    </g>
    <g id="ytick_6">
     <g id="line2d_15">
      <g>
       <use style="stroke:#000000;stroke-width:0.8;" x="72" xlink:href="#m0925bfdae3" y="98.833494"/>
      </g>
     </g>
     <g id="text_16">
      <!-- 50000 -->
      <defs>
       <path d="M 10.796875 72.90625 
L 49.515625 72.90625 
L 49.515625 64.59375 
L 19.828125 64.59375 
L 19.828125 46.734375 
Q 21.96875 47.46875 24.109375 47.828125 
Q 26.265625 48.1875 28.421875 48.1875 
Q 40.625 48.1875 47.75 41.5 
Q 54.890625 34.8125 54.890625 23.390625 
Q 54.890625 11.625 47.5625 5.09375 
Q 40.234375 -1.421875 26.90625 -1.421875 
Q 22.3125 -1.421875 17.546875 -0.640625 
Q 12.796875 0.140625 7.71875 1.703125 
L 7.71875 11.625 
Q 12.109375 9.234375 16.796875 8.0625 
Q 21.484375 6.890625 26.703125 6.890625 
Q 35.15625 6.890625 40.078125 11.328125 
Q 45.015625 15.765625 45.015625 23.390625 
Q 45.015625 31 40.078125 35.4375 
Q 35.15625 39.890625 26.703125 39.890625 
Q 22.75 39.890625 18.8125 39.015625 
Q 14.890625 38.140625 10.796875 36.28125 
z
" id="DejaVuSans-53"/>
      </defs>
      <g transform="translate(33.1875 102.632713)scale(0.1 -0.1)">
       <use xlink:href="#DejaVuSans-53"/>
       <use x="63.623047" xlink:href="#DejaVuSans-48"/>
       <use x="127.246094" xlink:href="#DejaVuSans-48"/>
       <use x="190.869141" xlink:href="#DejaVuSans-48"/>
       <use x="254.492188" xlink:href="#DejaVuSans-48"/>
      </g>
     </g>
    </g>
    <g id="text_17">
     <!-- No. sampled with this value -->
     <defs>
      <path d="M 9.8125 72.90625 
L 23.09375 72.90625 
L 55.421875 11.921875 
L 55.421875 72.90625 
L 64.984375 72.90625 
L 64.984375 0 
L 51.703125 0 
L 19.390625 60.984375 
L 19.390625 0 
L 9.8125 0 
z
" id="DejaVuSans-78"/>
      <path d="M 44.28125 53.078125 
L 44.28125 44.578125 
Q 40.484375 46.53125 36.375 47.5 
Q 32.28125 48.484375 27.875 48.484375 
Q 21.1875 48.484375 17.84375 46.4375 
Q 14.5 44.390625 14.5 40.28125 
Q 14.5 37.15625 16.890625 35.375 
Q 19.28125 33.59375 26.515625 31.984375 
L 29.59375 31.296875 
Q 39.15625 29.25 43.1875 25.515625 
Q 47.21875 21.78125 47.21875 15.09375 
Q 47.21875 7.46875 41.1875 3.015625 
Q 35.15625 -1.421875 24.609375 -1.421875 
Q 20.21875 -1.421875 15.453125 -0.5625 
Q 10.6875 0.296875 5.421875 2 
L 5.421875 11.28125 
Q 10.40625 8.6875 15.234375 7.390625 
Q 20.0625 6.109375 24.8125 6.109375 
Q 31.15625 6.109375 34.5625 8.28125 
Q 37.984375 10.453125 37.984375 14.40625 
Q 37.984375 18.0625 35.515625 20.015625 
Q 33.0625 21.96875 24.703125 23.78125 
L 21.578125 24.515625 
Q 13.234375 26.265625 9.515625 29.90625 
Q 5.8125 33.546875 5.8125 39.890625 
Q 5.8125 47.609375 11.28125 51.796875 
Q 16.75 56 26.8125 56 
Q 31.78125 56 36.171875 55.265625 
Q 40.578125 54.546875 44.28125 53.078125 
z
" id="DejaVuSans-115"/>
      <path d="M 18.109375 8.203125 
L 18.109375 -20.796875 
L 9.078125 -20.796875 
L 9.078125 54.6875 
L 18.109375 54.6875 
L 18.109375 46.390625 
Q 20.953125 51.265625 25.265625 53.625 
Q 29.59375 56 35.59375 56 
Q 45.5625 56 51.78125 48.09375 
Q 58.015625 40.1875 58.015625 27.296875 
Q 58.015625 14.40625 51.78125 6.484375 
Q 45.5625 -1.421875 35.59375 -1.421875 
Q 29.59375 -1.421875 25.265625 0.953125 
Q 20.953125 3.328125 18.109375 8.203125 
z
M 48.6875 27.296875 
Q 48.6875 37.203125 44.609375 42.84375 
Q 40.53125 48.484375 33.40625 48.484375 
Q 26.265625 48.484375 22.1875 42.84375 
Q 18.109375 37.203125 18.109375 27.296875 
Q 18.109375 17.390625 22.1875 11.75 
Q 26.265625 6.109375 33.40625 6.109375 
Q 40.53125 6.109375 44.609375 11.75 
Q 48.6875 17.390625 48.6875 27.296875 
z
" id="DejaVuSans-112"/>
      <path d="M 56.203125 29.59375 
L 56.203125 25.203125 
L 14.890625 25.203125 
Q 15.484375 15.921875 20.484375 11.0625 
Q 25.484375 6.203125 34.421875 6.203125 
Q 39.59375 6.203125 44.453125 7.46875 
Q 49.3125 8.734375 54.109375 11.28125 
L 54.109375 2.78125 
Q 49.265625 0.734375 44.1875 -0.34375 
Q 39.109375 -1.421875 33.890625 -1.421875 
Q 20.796875 -1.421875 13.15625 6.1875 
Q 5.515625 13.8125 5.515625 26.8125 
Q 5.515625 40.234375 12.765625 48.109375 
Q 20.015625 56 32.328125 56 
Q 43.359375 56 49.78125 48.890625 
Q 56.203125 41.796875 56.203125 29.59375 
z
M 47.21875 32.234375 
Q 47.125 39.59375 43.09375 43.984375 
Q 39.0625 48.390625 32.421875 48.390625 
Q 24.90625 48.390625 20.390625 44.140625 
Q 15.875 39.890625 15.1875 32.171875 
z
" id="DejaVuSans-101"/>
      <path d="M 45.40625 46.390625 
L 45.40625 75.984375 
L 54.390625 75.984375 
L 54.390625 0 
L 45.40625 0 
L 45.40625 8.203125 
Q 42.578125 3.328125 38.25 0.953125 
Q 33.9375 -1.421875 27.875 -1.421875 
Q 17.96875 -1.421875 11.734375 6.484375 
Q 5.515625 14.40625 5.515625 27.296875 
Q 5.515625 40.1875 11.734375 48.09375 
Q 17.96875 56 27.875 56 
Q 33.9375 56 38.25 53.625 
Q 42.578125 51.265625 45.40625 46.390625 
z
M 14.796875 27.296875 
Q 14.796875 17.390625 18.875 11.75 
Q 22.953125 6.109375 30.078125 6.109375 
Q 37.203125 6.109375 41.296875 11.75 
Q 45.40625 17.390625 45.40625 27.296875 
Q 45.40625 37.203125 41.296875 42.84375 
Q 37.203125 48.484375 30.078125 48.484375 
Q 22.953125 48.484375 18.875 42.84375 
Q 14.796875 37.203125 14.796875 27.296875 
z
" id="DejaVuSans-100"/>
      <path d="M 4.203125 54.6875 
L 13.1875 54.6875 
L 24.421875 12.015625 
L 35.59375 54.6875 
L 46.1875 54.6875 
L 57.421875 12.015625 
L 68.609375 54.6875 
L 77.59375 54.6875 
L 63.28125 0 
L 52.6875 0 
L 40.921875 44.828125 
L 29.109375 0 
L 18.5 0 
z
" id="DejaVuSans-119"/>
      <path d="M 54.890625 33.015625 
L 54.890625 0 
L 45.90625 0 
L 45.90625 32.71875 
Q 45.90625 40.484375 42.875 44.328125 
Q 39.84375 48.1875 33.796875 48.1875 
Q 26.515625 48.1875 22.3125 43.546875 
Q 18.109375 38.921875 18.109375 30.90625 
L 18.109375 0 
L 9.078125 0 
L 9.078125 75.984375 
L 18.109375 75.984375 
L 18.109375 46.1875 
Q 21.34375 51.125 25.703125 53.5625 
Q 30.078125 56 35.796875 56 
Q 45.21875 56 50.046875 50.171875 
Q 54.890625 44.34375 54.890625 33.015625 
z
" id="DejaVuSans-104"/>
      <path d="M 2.984375 54.6875 
L 12.5 54.6875 
L 29.59375 8.796875 
L 46.6875 54.6875 
L 56.203125 54.6875 
L 35.6875 0 
L 23.484375 0 
z
" id="DejaVuSans-118"/>
     </defs>
     <g transform="translate(26.275937 312.077812)rotate(-90)scale(0.14 -0.14)">
      <use xlink:href="#DejaVuSans-78"/>
      <use x="74.804688" xlink:href="#DejaVuSans-111"/>
      <use x="134.236328" xlink:href="#DejaVuSans-46"/>
      <use x="166.023438" xlink:href="#DejaVuSans-32"/>
      <use x="197.810547" xlink:href="#DejaVuSans-115"/>
      <use x="249.910156" xlink:href="#DejaVuSans-97"/>
      <use x="311.189453" xlink:href="#DejaVuSans-109"/>
      <use x="408.601562" xlink:href="#DejaVuSans-112"/>
      <use x="472.078125" xlink:href="#DejaVuSans-108"/>
      <use x="499.861328" xlink:href="#DejaVuSans-101"/>
      <use x="561.384766" xlink:href="#DejaVuSans-100"/>
      <use x="624.861328" xlink:href="#DejaVuSans-32"/>
      <use x="656.648438" xlink:href="#DejaVuSans-119"/>
      <use x="738.435547" xlink:href="#DejaVuSans-105"/>
      <use x="766.21875" xlink:href="#DejaVuSans-116"/>
      <use x="805.427734" xlink:href="#DejaVuSans-104"/>
      <use x="868.806641" xlink:href="#DejaVuSans-32"/>
      <use x="900.59375" xlink:href="#DejaVuSans-116"/>
      <use x="939.802734" xlink:href="#DejaVuSans-104"/>
      <use x="1003.181641" xlink:href="#DejaVuSans-105"/>
      <use x="1030.964844" xlink:href="#DejaVuSans-115"/>
      <use x="1083.064453" xlink:href="#DejaVuSans-32"/>
      <use x="1114.851562" xlink:href="#DejaVuSans-118"/>
      <use x="1174.03125" xlink:href="#DejaVuSans-97"/>
      <use x="1235.310547" xlink:href="#DejaVuSans-108"/>
      <use x="1263.09375" xlink:href="#DejaVuSans-117"/>
      <use x="1326.472656" xlink:href="#DejaVuSans-101"/>
     </g>
    </g>
   </g>
   <g id="patch_163">
    <path d="M 72 378 
L 72 51.84 
" style="fill:none;stroke:#000000;stroke-linecap:square;stroke-linejoin:miter;stroke-width:0.8;"/>
   </g>
   <g id="patch_164">
    <path d="M 518.4 378 
L 518.4 51.84 
" style="fill:none;stroke:#000000;stroke-linecap:square;stroke-linejoin:miter;stroke-width:0.8;"/>
   </g>
   <g id="patch_165">
    <path d="M 72 378 
L 518.4 378 
" style="fill:none;stroke:#000000;stroke-linecap:square;stroke-linejoin:miter;stroke-width:0.8;"/>
   </g>
   <g id="patch_166">
    <path d="M 72 51.84 
L 518.4 51.84 
" style="fill:none;stroke:#000000;stroke-linecap:square;stroke-linejoin:miter;stroke-width:0.8;"/>
   </g>
   <g id="legend_1">
    <g id="patch_167">
     <path d="M 380.039062 89.19625 
L 511.4 89.19625 
Q 513.4 89.19625 513.4 87.19625 
L 513.4 58.84 
Q 513.4 56.84 511.4 56.84 
L 380.039062 56.84 
Q 378.039062 56.84 378.039062 58.84 
L 378.039062 87.19625 
Q 378.039062 89.19625 380.039062 89.19625 
z
" style="fill:#ffffff;opacity:0.8;stroke:#cccccc;stroke-linejoin:miter;"/>
    </g>
    <g id="patch_168">
     <path d="M 382.039062 68.438437 
L 402.039062 68.438437 
L 402.039062 61.438437 
L 382.039062 61.438437 
z
" style="fill:#0000ff;fill-opacity:0.2;stroke:#0000ff;stroke-linejoin:miter;"/>
    </g>
    <g id="text_18">
     <!-- Direct Permutations -->
     <defs>
      <path d="M 19.671875 64.796875 
L 19.671875 8.109375 
L 31.59375 8.109375 
Q 46.6875 8.109375 53.6875 14.9375 
Q 60.6875 21.78125 60.6875 36.53125 
Q 60.6875 51.171875 53.6875 57.984375 
Q 46.6875 64.796875 31.59375 64.796875 
z
M 9.8125 72.90625 
L 30.078125 72.90625 
Q 51.265625 72.90625 61.171875 64.09375 
Q 71.09375 55.28125 71.09375 36.53125 
Q 71.09375 17.671875 61.125 8.828125 
Q 51.171875 0 30.078125 0 
L 9.8125 0 
z
" id="DejaVuSans-68"/>
      <path d="M 48.78125 52.59375 
L 48.78125 44.1875 
Q 44.96875 46.296875 41.140625 47.34375 
Q 37.3125 48.390625 33.40625 48.390625 
Q 24.65625 48.390625 19.8125 42.84375 
Q 14.984375 37.3125 14.984375 27.296875 
Q 14.984375 17.28125 19.8125 11.734375 
Q 24.65625 6.203125 33.40625 6.203125 
Q 37.3125 6.203125 41.140625 7.25 
Q 44.96875 8.296875 48.78125 10.40625 
L 48.78125 2.09375 
Q 45.015625 0.34375 40.984375 -0.53125 
Q 36.96875 -1.421875 32.421875 -1.421875 
Q 20.0625 -1.421875 12.78125 6.34375 
Q 5.515625 14.109375 5.515625 27.296875 
Q 5.515625 40.671875 12.859375 48.328125 
Q 20.21875 56 33.015625 56 
Q 37.15625 56 41.109375 55.140625 
Q 45.0625 54.296875 48.78125 52.59375 
z
" id="DejaVuSans-99"/>
      <path d="M 19.671875 64.796875 
L 19.671875 37.40625 
L 32.078125 37.40625 
Q 38.96875 37.40625 42.71875 40.96875 
Q 46.484375 44.53125 46.484375 51.125 
Q 46.484375 57.671875 42.71875 61.234375 
Q 38.96875 64.796875 32.078125 64.796875 
z
M 9.8125 72.90625 
L 32.078125 72.90625 
Q 44.34375 72.90625 50.609375 67.359375 
Q 56.890625 61.8125 56.890625 51.125 
Q 56.890625 40.328125 50.609375 34.8125 
Q 44.34375 29.296875 32.078125 29.296875 
L 19.671875 29.296875 
L 19.671875 0 
L 9.8125 0 
z
" id="DejaVuSans-80"/>
     </defs>
     <g transform="translate(410.039062 68.438437)scale(0.1 -0.1)">
      <use xlink:href="#DejaVuSans-68"/>
      <use x="77.001953" xlink:href="#DejaVuSans-105"/>
      <use x="104.785156" xlink:href="#DejaVuSans-114"/>
      <use x="143.648438" xlink:href="#DejaVuSans-101"/>
      <use x="205.171875" xlink:href="#DejaVuSans-99"/>
      <use x="260.152344" xlink:href="#DejaVuSans-116"/>
      <use x="299.361328" xlink:href="#DejaVuSans-32"/>
      <use x="331.148438" xlink:href="#DejaVuSans-80"/>
      <use x="387.826172" xlink:href="#DejaVuSans-101"/>
      <use x="449.349609" xlink:href="#DejaVuSans-114"/>
      <use x="488.712891" xlink:href="#DejaVuSans-109"/>
      <use x="586.125" xlink:href="#DejaVuSans-117"/>
      <use x="649.503906" xlink:href="#DejaVuSans-116"/>
      <use x="688.712891" xlink:href="#DejaVuSans-97"/>
      <use x="749.992188" xlink:href="#DejaVuSans-116"/>
      <use x="789.201172" xlink:href="#DejaVuSans-105"/>
      <use x="816.984375" xlink:href="#DejaVuSans-111"/>
      <use x="878.166016" xlink:href="#DejaVuSans-110"/>
      <use x="941.544922" xlink:href="#DejaVuSans-115"/>
     </g>
    </g>
    <g id="patch_169">
     <path d="M 382.039062 83.116562 
L 402.039062 83.116562 
L 402.039062 76.116562 
L 382.039062 76.116562 
z
" style="fill:#ff0000;fill-opacity:0.2;stroke:#ff0000;stroke-linejoin:miter;"/>
    </g>
    <g id="text_19">
     <!-- Our Method -->
     <defs>
      <path d="M 39.40625 66.21875 
Q 28.65625 66.21875 22.328125 58.203125 
Q 16.015625 50.203125 16.015625 36.375 
Q 16.015625 22.609375 22.328125 14.59375 
Q 28.65625 6.59375 39.40625 6.59375 
Q 50.140625 6.59375 56.421875 14.59375 
Q 62.703125 22.609375 62.703125 36.375 
Q 62.703125 50.203125 56.421875 58.203125 
Q 50.140625 66.21875 39.40625 66.21875 
z
M 39.40625 74.21875 
Q 54.734375 74.21875 63.90625 63.9375 
Q 73.09375 53.65625 73.09375 36.375 
Q 73.09375 19.140625 63.90625 8.859375 
Q 54.734375 -1.421875 39.40625 -1.421875 
Q 24.03125 -1.421875 14.8125 8.828125 
Q 5.609375 19.09375 5.609375 36.375 
Q 5.609375 53.65625 14.8125 63.9375 
Q 24.03125 74.21875 39.40625 74.21875 
z
" id="DejaVuSans-79"/>
     </defs>
     <g transform="translate(410.039062 83.116562)scale(0.1 -0.1)">
      <use xlink:href="#DejaVuSans-79"/>
      <use x="78.710938" xlink:href="#DejaVuSans-117"/>
      <use x="142.089844" xlink:href="#DejaVuSans-114"/>
      <use x="183.203125" xlink:href="#DejaVuSans-32"/>
      <use x="214.990234" xlink:href="#DejaVuSans-77"/>
      <use x="301.269531" xlink:href="#DejaVuSans-101"/>
      <use x="362.792969" xlink:href="#DejaVuSans-116"/>
      <use x="402.001953" xlink:href="#DejaVuSans-104"/>
      <use x="465.380859" xlink:href="#DejaVuSans-111"/>
      <use x="526.5625" xlink:href="#DejaVuSans-100"/>
     </g>
    </g>
   </g>
  </g>
 </g>
 <defs>
  <clipPath id="p87deac8969">
   <rect height="326.16" width="446.4" x="72" y="51.84"/>
  </clipPath>
 </defs>
</svg>
