<?xml version="1.0" encoding="utf-8" standalone="no"?>
<!DOCTYPE svg PUBLIC "-//W3C//DTD SVG 1.1//EN"
  "http://www.w3.org/Graphics/SVG/1.1/DTD/svg11.dtd">
<!-- Created with matplotlib (https://matplotlib.org/) -->
<svg height="432pt" version="1.1" viewBox="0 0 432 432" width="432pt" xmlns="http://www.w3.org/2000/svg" xmlns:xlink="http://www.w3.org/1999/xlink">
 <defs>
  <style type="text/css">
*{stroke-linecap:butt;stroke-linejoin:round;}
  </style>
 </defs>
 <g id="figure_1">
  <g id="patch_1">
   <path d="M 0 432 
L 432 432 
L 432 0 
L 0 0 
z
" style="fill:#ffffff;"/>
  </g>
  <g id="axes_1">
   <g id="patch_2">
    <path d="M 54 378 
L 388.8 378 
L 388.8 51.84 
L 54 51.84 
z
" style="fill:#ffffff;"/>
   </g>
   <g id="matplotlib.axis_1">
    <g id="xtick_1">
     <g id="line2d_1">
      <defs>
       <path d="M 0 0 
L 0 3.5 
" id="m19ca527a92" style="stroke:#000000;stroke-width:0.8;"/>
      </defs>
      <g>
       <use style="stroke:#000000;stroke-width:0.8;" x="54" xlink:href="#m19ca527a92" y="378"/>
      </g>
     </g>
     <g id="text_1">
      <!-- $\mathdefault{10^{2}}$ -->
      <defs>
       <path d="M 12.40625 8.296875 
L 28.515625 8.296875 
L 28.515625 63.921875 
L 10.984375 60.40625 
L 10.984375 69.390625 
L 28.421875 72.90625 
L 38.28125 72.90625 
L 38.28125 8.296875 
L 54.390625 8.296875 
L 54.390625 0 
L 12.40625 0 
z
" id="DejaVuSans-49"/>
       <path d="M 31.78125 66.40625 
Q 24.171875 66.40625 20.328125 58.90625 
Q 16.5 51.421875 16.5 36.375 
Q 16.5 21.390625 20.328125 13.890625 
Q 24.171875 6.390625 31.78125 6.390625 
Q 39.453125 6.390625 43.28125 13.890625 
Q 47.125 21.390625 47.125 36.375 
Q 47.125 51.421875 43.28125 58.90625 
Q 39.453125 66.40625 31.78125 66.40625 
z
M 31.78125 74.21875 
Q 44.046875 74.21875 50.515625 64.515625 
Q 56.984375 54.828125 56.984375 36.375 
Q 56.984375 17.96875 50.515625 8.265625 
Q 44.046875 -1.421875 31.78125 -1.421875 
Q 19.53125 -1.421875 13.0625 8.265625 
Q 6.59375 17.96875 6.59375 36.375 
Q 6.59375 54.828125 13.0625 64.515625 
Q 19.53125 74.21875 31.78125 74.21875 
z
" id="DejaVuSans-48"/>
       <path d="M 19.1875 8.296875 
L 53.609375 8.296875 
L 53.609375 0 
L 7.328125 0 
L 7.328125 8.296875 
Q 12.9375 14.109375 22.625 23.890625 
Q 32.328125 33.6875 34.8125 36.53125 
Q 39.546875 41.84375 41.421875 45.53125 
Q 43.3125 49.21875 43.3125 52.78125 
Q 43.3125 58.59375 39.234375 62.25 
Q 35.15625 65.921875 28.609375 65.921875 
Q 23.96875 65.921875 18.8125 64.3125 
Q 13.671875 62.703125 7.8125 59.421875 
L 7.8125 69.390625 
Q 13.765625 71.78125 18.9375 73 
Q 24.125 74.21875 28.421875 74.21875 
Q 39.75 74.21875 46.484375 68.546875 
Q 53.21875 62.890625 53.21875 53.421875 
Q 53.21875 48.921875 51.53125 44.890625 
Q 49.859375 40.875 45.40625 35.40625 
Q 44.1875 33.984375 37.640625 27.21875 
Q 31.109375 20.453125 19.1875 8.296875 
z
" id="DejaVuSans-50"/>
      </defs>
      <g transform="translate(45.2 392.598437)scale(0.1 -0.1)">
       <use transform="translate(0 0.765625)" xlink:href="#DejaVuSans-49"/>
       <use transform="translate(63.623047 0.765625)" xlink:href="#DejaVuSans-48"/>
       <use transform="translate(128.203125 39.046875)scale(0.7)" xlink:href="#DejaVuSans-50"/>
      </g>
     </g>
    </g>
    <g id="xtick_2">
     <g id="line2d_2">
      <g>
       <use style="stroke:#000000;stroke-width:0.8;" x="109.8" xlink:href="#m19ca527a92" y="378"/>
      </g>
     </g>
     <g id="text_2">
      <!-- $\mathdefault{10^{3}}$ -->
      <defs>
       <path d="M 40.578125 39.3125 
Q 47.65625 37.796875 51.625 33 
Q 55.609375 28.21875 55.609375 21.1875 
Q 55.609375 10.40625 48.1875 4.484375 
Q 40.765625 -1.421875 27.09375 -1.421875 
Q 22.515625 -1.421875 17.65625 -0.515625 
Q 12.796875 0.390625 7.625 2.203125 
L 7.625 11.71875 
Q 11.71875 9.328125 16.59375 8.109375 
Q 21.484375 6.890625 26.8125 6.890625 
Q 36.078125 6.890625 40.9375 10.546875 
Q 45.796875 14.203125 45.796875 21.1875 
Q 45.796875 27.640625 41.28125 31.265625 
Q 36.765625 34.90625 28.71875 34.90625 
L 20.21875 34.90625 
L 20.21875 43.015625 
L 29.109375 43.015625 
Q 36.375 43.015625 40.234375 45.921875 
Q 44.09375 48.828125 44.09375 54.296875 
Q 44.09375 59.90625 40.109375 62.90625 
Q 36.140625 65.921875 28.71875 65.921875 
Q 24.65625 65.921875 20.015625 65.03125 
Q 15.375 64.15625 9.8125 62.3125 
L 9.8125 71.09375 
Q 15.4375 72.65625 20.34375 73.4375 
Q 25.25 74.21875 29.59375 74.21875 
Q 40.828125 74.21875 47.359375 69.109375 
Q 53.90625 64.015625 53.90625 55.328125 
Q 53.90625 49.265625 50.4375 45.09375 
Q 46.96875 40.921875 40.578125 39.3125 
z
" id="DejaVuSans-51"/>
      </defs>
      <g transform="translate(101 392.598437)scale(0.1 -0.1)">
       <use transform="translate(0 0.765625)" xlink:href="#DejaVuSans-49"/>
       <use transform="translate(63.623047 0.765625)" xlink:href="#DejaVuSans-48"/>
       <use transform="translate(128.203125 39.046875)scale(0.7)" xlink:href="#DejaVuSans-51"/>
      </g>
     </g>
    </g>
    <g id="xtick_3">
     <g id="line2d_3">
      <g>
       <use style="stroke:#000000;stroke-width:0.8;" x="165.6" xlink:href="#m19ca527a92" y="378"/>
      </g>
     </g>
     <g id="text_3">
      <!-- $\mathdefault{10^{4}}$ -->
      <defs>
       <path d="M 37.796875 64.3125 
L 12.890625 25.390625 
L 37.796875 25.390625 
z
M 35.203125 72.90625 
L 47.609375 72.90625 
L 47.609375 25.390625 
L 58.015625 25.390625 
L 58.015625 17.1875 
L 47.609375 17.1875 
L 47.609375 0 
L 37.796875 0 
L 37.796875 17.1875 
L 4.890625 17.1875 
L 4.890625 26.703125 
z
" id="DejaVuSans-52"/>
      </defs>
      <g transform="translate(156.8 392.598437)scale(0.1 -0.1)">
       <use transform="translate(0 0.684375)" xlink:href="#DejaVuSans-49"/>
       <use transform="translate(63.623047 0.684375)" xlink:href="#DejaVuSans-48"/>
       <use transform="translate(128.203125 38.965625)scale(0.7)" xlink:href="#DejaVuSans-52"/>
      </g>
     </g>
    </g>
    <g id="xtick_4">
     <g id="line2d_4">
      <g>
       <use style="stroke:#000000;stroke-width:0.8;" x="221.4" xlink:href="#m19ca527a92" y="378"/>
      </g>
     </g>
     <g id="text_4">
      <!-- $\mathdefault{10^{5}}$ -->
      <defs>
       <path d="M 10.796875 72.90625 
L 49.515625 72.90625 
L 49.515625 64.59375 
L 19.828125 64.59375 
L 19.828125 46.734375 
Q 21.96875 47.46875 24.109375 47.828125 
Q 26.265625 48.1875 28.421875 48.1875 
Q 40.625 48.1875 47.75 41.5 
Q 54.890625 34.8125 54.890625 23.390625 
Q 54.890625 11.625 47.5625 5.09375 
Q 40.234375 -1.421875 26.90625 -1.421875 
Q 22.3125 -1.421875 17.546875 -0.640625 
Q 12.796875 0.140625 7.71875 1.703125 
L 7.71875 11.625 
Q 12.109375 9.234375 16.796875 8.0625 
Q 21.484375 6.890625 26.703125 6.890625 
Q 35.15625 6.890625 40.078125 11.328125 
Q 45.015625 15.765625 45.015625 23.390625 
Q 45.015625 31 40.078125 35.4375 
Q 35.15625 39.890625 26.703125 39.890625 
Q 22.75 39.890625 18.8125 39.015625 
Q 14.890625 38.140625 10.796875 36.28125 
z
" id="DejaVuSans-53"/>
      </defs>
      <g transform="translate(212.6 392.598437)scale(0.1 -0.1)">
       <use transform="translate(0 0.684375)" xlink:href="#DejaVuSans-49"/>
       <use transform="translate(63.623047 0.684375)" xlink:href="#DejaVuSans-48"/>
       <use transform="translate(128.203125 38.965625)scale(0.7)" xlink:href="#DejaVuSans-53"/>
      </g>
     </g>
    </g>
    <g id="xtick_5">
     <g id="line2d_5">
      <g>
       <use style="stroke:#000000;stroke-width:0.8;" x="277.2" xlink:href="#m19ca527a92" y="378"/>
      </g>
     </g>
     <g id="text_5">
      <!-- $\mathdefault{10^{6}}$ -->
      <defs>
       <path d="M 33.015625 40.375 
Q 26.375 40.375 22.484375 35.828125 
Q 18.609375 31.296875 18.609375 23.390625 
Q 18.609375 15.53125 22.484375 10.953125 
Q 26.375 6.390625 33.015625 6.390625 
Q 39.65625 6.390625 43.53125 10.953125 
Q 47.40625 15.53125 47.40625 23.390625 
Q 47.40625 31.296875 43.53125 35.828125 
Q 39.65625 40.375 33.015625 40.375 
z
M 52.59375 71.296875 
L 52.59375 62.3125 
Q 48.875 64.0625 45.09375 64.984375 
Q 41.3125 65.921875 37.59375 65.921875 
Q 27.828125 65.921875 22.671875 59.328125 
Q 17.53125 52.734375 16.796875 39.40625 
Q 19.671875 43.65625 24.015625 45.921875 
Q 28.375 48.1875 33.59375 48.1875 
Q 44.578125 48.1875 50.953125 41.515625 
Q 57.328125 34.859375 57.328125 23.390625 
Q 57.328125 12.15625 50.6875 5.359375 
Q 44.046875 -1.421875 33.015625 -1.421875 
Q 20.359375 -1.421875 13.671875 8.265625 
Q 6.984375 17.96875 6.984375 36.375 
Q 6.984375 53.65625 15.1875 63.9375 
Q 23.390625 74.21875 37.203125 74.21875 
Q 40.921875 74.21875 44.703125 73.484375 
Q 48.484375 72.75 52.59375 71.296875 
z
" id="DejaVuSans-54"/>
      </defs>
      <g transform="translate(268.4 392.598437)scale(0.1 -0.1)">
       <use transform="translate(0 0.765625)" xlink:href="#DejaVuSans-49"/>
       <use transform="translate(63.623047 0.765625)" xlink:href="#DejaVuSans-48"/>
       <use transform="translate(128.203125 39.046875)scale(0.7)" xlink:href="#DejaVuSans-54"/>
      </g>
     </g>
    </g>
    <g id="xtick_6">
     <g id="line2d_6">
      <g>
       <use style="stroke:#000000;stroke-width:0.8;" x="333" xlink:href="#m19ca527a92" y="378"/>
      </g>
     </g>
     <g id="text_6">
      <!-- $\mathdefault{10^{7}}$ -->
      <defs>
       <path d="M 8.203125 72.90625 
L 55.078125 72.90625 
L 55.078125 68.703125 
L 28.609375 0 
L 18.3125 0 
L 43.21875 64.59375 
L 8.203125 64.59375 
z
" id="DejaVuSans-55"/>
      </defs>
      <g transform="translate(324.2 392.598437)scale(0.1 -0.1)">
       <use transform="translate(0 0.684375)" xlink:href="#DejaVuSans-49"/>
       <use transform="translate(63.623047 0.684375)" xlink:href="#DejaVuSans-48"/>
       <use transform="translate(128.203125 38.965625)scale(0.7)" xlink:href="#DejaVuSans-55"/>
      </g>
     </g>
    </g>
    <g id="xtick_7">
     <g id="line2d_7">
      <g>
       <use style="stroke:#000000;stroke-width:0.8;" x="388.8" xlink:href="#m19ca527a92" y="378"/>
      </g>
     </g>
     <g id="text_7">
      <!-- $\mathdefault{10^{8}}$ -->
      <defs>
       <path d="M 31.78125 34.625 
Q 24.75 34.625 20.71875 30.859375 
Q 16.703125 27.09375 16.703125 20.515625 
Q 16.703125 13.921875 20.71875 10.15625 
Q 24.75 6.390625 31.78125 6.390625 
Q 38.8125 6.390625 42.859375 10.171875 
Q 46.921875 13.96875 46.921875 20.515625 
Q 46.921875 27.09375 42.890625 30.859375 
Q 38.875 34.625 31.78125 34.625 
z
M 21.921875 38.8125 
Q 15.578125 40.375 12.03125 44.71875 
Q 8.5 49.078125 8.5 55.328125 
Q 8.5 64.0625 14.71875 69.140625 
Q 20.953125 74.21875 31.78125 74.21875 
Q 42.671875 74.21875 48.875 69.140625 
Q 55.078125 64.0625 55.078125 55.328125 
Q 55.078125 49.078125 51.53125 44.71875 
Q 48 40.375 41.703125 38.8125 
Q 48.828125 37.15625 52.796875 32.3125 
Q 56.78125 27.484375 56.78125 20.515625 
Q 56.78125 9.90625 50.3125 4.234375 
Q 43.84375 -1.421875 31.78125 -1.421875 
Q 19.734375 -1.421875 13.25 4.234375 
Q 6.78125 9.90625 6.78125 20.515625 
Q 6.78125 27.484375 10.78125 32.3125 
Q 14.796875 37.15625 21.921875 38.8125 
z
M 18.3125 54.390625 
Q 18.3125 48.734375 21.84375 45.5625 
Q 25.390625 42.390625 31.78125 42.390625 
Q 38.140625 42.390625 41.71875 45.5625 
Q 45.3125 48.734375 45.3125 54.390625 
Q 45.3125 60.0625 41.71875 63.234375 
Q 38.140625 66.40625 31.78125 66.40625 
Q 25.390625 66.40625 21.84375 63.234375 
Q 18.3125 60.0625 18.3125 54.390625 
z
" id="DejaVuSans-56"/>
      </defs>
      <g transform="translate(380 392.598437)scale(0.1 -0.1)">
       <use transform="translate(0 0.765625)" xlink:href="#DejaVuSans-49"/>
       <use transform="translate(63.623047 0.765625)" xlink:href="#DejaVuSans-48"/>
       <use transform="translate(128.203125 39.046875)scale(0.7)" xlink:href="#DejaVuSans-56"/>
      </g>
     </g>
    </g>
    <g id="xtick_8">
     <g id="line2d_8">
      <defs>
       <path d="M 0 0 
L 0 2 
" id="meaf14efea9" style="stroke:#000000;stroke-width:0.6;"/>
      </defs>
      <g>
       <use style="stroke:#000000;stroke-width:0.6;" x="70.797474" xlink:href="#meaf14efea9" y="378"/>
      </g>
     </g>
    </g>
    <g id="xtick_9">
     <g id="line2d_9">
      <g>
       <use style="stroke:#000000;stroke-width:0.6;" x="80.623366" xlink:href="#meaf14efea9" y="378"/>
      </g>
     </g>
    </g>
    <g id="xtick_10">
     <g id="line2d_10">
      <g>
       <use style="stroke:#000000;stroke-width:0.6;" x="87.594948" xlink:href="#meaf14efea9" y="378"/>
      </g>
     </g>
    </g>
    <g id="xtick_11">
     <g id="line2d_11">
      <g>
       <use style="stroke:#000000;stroke-width:0.6;" x="93.002526" xlink:href="#meaf14efea9" y="378"/>
      </g>
     </g>
    </g>
    <g id="xtick_12">
     <g id="line2d_12">
      <g>
       <use style="stroke:#000000;stroke-width:0.6;" x="97.42084" xlink:href="#meaf14efea9" y="378"/>
      </g>
     </g>
    </g>
    <g id="xtick_13">
     <g id="line2d_13">
      <g>
       <use style="stroke:#000000;stroke-width:0.6;" x="101.156471" xlink:href="#meaf14efea9" y="378"/>
      </g>
     </g>
    </g>
    <g id="xtick_14">
     <g id="line2d_14">
      <g>
       <use style="stroke:#000000;stroke-width:0.6;" x="104.392421" xlink:href="#meaf14efea9" y="378"/>
      </g>
     </g>
    </g>
    <g id="xtick_15">
     <g id="line2d_15">
      <g>
       <use style="stroke:#000000;stroke-width:0.6;" x="107.246732" xlink:href="#meaf14efea9" y="378"/>
      </g>
     </g>
    </g>
    <g id="xtick_16">
     <g id="line2d_16">
      <g>
       <use style="stroke:#000000;stroke-width:0.6;" x="126.597474" xlink:href="#meaf14efea9" y="378"/>
      </g>
     </g>
    </g>
    <g id="xtick_17">
     <g id="line2d_17">
      <g>
       <use style="stroke:#000000;stroke-width:0.6;" x="136.423366" xlink:href="#meaf14efea9" y="378"/>
      </g>
     </g>
    </g>
    <g id="xtick_18">
     <g id="line2d_18">
      <g>
       <use style="stroke:#000000;stroke-width:0.6;" x="143.394948" xlink:href="#meaf14efea9" y="378"/>
      </g>
     </g>
    </g>
    <g id="xtick_19">
     <g id="line2d_19">
      <g>
       <use style="stroke:#000000;stroke-width:0.6;" x="148.802526" xlink:href="#meaf14efea9" y="378"/>
      </g>
     </g>
    </g>
    <g id="xtick_20">
     <g id="line2d_20">
      <g>
       <use style="stroke:#000000;stroke-width:0.6;" x="153.22084" xlink:href="#meaf14efea9" y="378"/>
      </g>
     </g>
    </g>
    <g id="xtick_21">
     <g id="line2d_21">
      <g>
       <use style="stroke:#000000;stroke-width:0.6;" x="156.956471" xlink:href="#meaf14efea9" y="378"/>
      </g>
     </g>
    </g>
    <g id="xtick_22">
     <g id="line2d_22">
      <g>
       <use style="stroke:#000000;stroke-width:0.6;" x="160.192421" xlink:href="#meaf14efea9" y="378"/>
      </g>
     </g>
    </g>
    <g id="xtick_23">
     <g id="line2d_23">
      <g>
       <use style="stroke:#000000;stroke-width:0.6;" x="163.046732" xlink:href="#meaf14efea9" y="378"/>
      </g>
     </g>
    </g>
    <g id="xtick_24">
     <g id="line2d_24">
      <g>
       <use style="stroke:#000000;stroke-width:0.6;" x="182.397474" xlink:href="#meaf14efea9" y="378"/>
      </g>
     </g>
    </g>
    <g id="xtick_25">
     <g id="line2d_25">
      <g>
       <use style="stroke:#000000;stroke-width:0.6;" x="192.223366" xlink:href="#meaf14efea9" y="378"/>
      </g>
     </g>
    </g>
    <g id="xtick_26">
     <g id="line2d_26">
      <g>
       <use style="stroke:#000000;stroke-width:0.6;" x="199.194948" xlink:href="#meaf14efea9" y="378"/>
      </g>
     </g>
    </g>
    <g id="xtick_27">
     <g id="line2d_27">
      <g>
       <use style="stroke:#000000;stroke-width:0.6;" x="204.602526" xlink:href="#meaf14efea9" y="378"/>
      </g>
     </g>
    </g>
    <g id="xtick_28">
     <g id="line2d_28">
      <g>
       <use style="stroke:#000000;stroke-width:0.6;" x="209.02084" xlink:href="#meaf14efea9" y="378"/>
      </g>
     </g>
    </g>
    <g id="xtick_29">
     <g id="line2d_29">
      <g>
       <use style="stroke:#000000;stroke-width:0.6;" x="212.756471" xlink:href="#meaf14efea9" y="378"/>
      </g>
     </g>
    </g>
    <g id="xtick_30">
     <g id="line2d_30">
      <g>
       <use style="stroke:#000000;stroke-width:0.6;" x="215.992421" xlink:href="#meaf14efea9" y="378"/>
      </g>
     </g>
    </g>
    <g id="xtick_31">
     <g id="line2d_31">
      <g>
       <use style="stroke:#000000;stroke-width:0.6;" x="218.846732" xlink:href="#meaf14efea9" y="378"/>
      </g>
     </g>
    </g>
    <g id="xtick_32">
     <g id="line2d_32">
      <g>
       <use style="stroke:#000000;stroke-width:0.6;" x="238.197474" xlink:href="#meaf14efea9" y="378"/>
      </g>
     </g>
    </g>
    <g id="xtick_33">
     <g id="line2d_33">
      <g>
       <use style="stroke:#000000;stroke-width:0.6;" x="248.023366" xlink:href="#meaf14efea9" y="378"/>
      </g>
     </g>
    </g>
    <g id="xtick_34">
     <g id="line2d_34">
      <g>
       <use style="stroke:#000000;stroke-width:0.6;" x="254.994948" xlink:href="#meaf14efea9" y="378"/>
      </g>
     </g>
    </g>
    <g id="xtick_35">
     <g id="line2d_35">
      <g>
       <use style="stroke:#000000;stroke-width:0.6;" x="260.402526" xlink:href="#meaf14efea9" y="378"/>
      </g>
     </g>
    </g>
    <g id="xtick_36">
     <g id="line2d_36">
      <g>
       <use style="stroke:#000000;stroke-width:0.6;" x="264.82084" xlink:href="#meaf14efea9" y="378"/>
      </g>
     </g>
    </g>
    <g id="xtick_37">
     <g id="line2d_37">
      <g>
       <use style="stroke:#000000;stroke-width:0.6;" x="268.556471" xlink:href="#meaf14efea9" y="378"/>
      </g>
     </g>
    </g>
    <g id="xtick_38">
     <g id="line2d_38">
      <g>
       <use style="stroke:#000000;stroke-width:0.6;" x="271.792421" xlink:href="#meaf14efea9" y="378"/>
      </g>
     </g>
    </g>
    <g id="xtick_39">
     <g id="line2d_39">
      <g>
       <use style="stroke:#000000;stroke-width:0.6;" x="274.646732" xlink:href="#meaf14efea9" y="378"/>
      </g>
     </g>
    </g>
    <g id="xtick_40">
     <g id="line2d_40">
      <g>
       <use style="stroke:#000000;stroke-width:0.6;" x="293.997474" xlink:href="#meaf14efea9" y="378"/>
      </g>
     </g>
    </g>
    <g id="xtick_41">
     <g id="line2d_41">
      <g>
       <use style="stroke:#000000;stroke-width:0.6;" x="303.823366" xlink:href="#meaf14efea9" y="378"/>
      </g>
     </g>
    </g>
    <g id="xtick_42">
     <g id="line2d_42">
      <g>
       <use style="stroke:#000000;stroke-width:0.6;" x="310.794948" xlink:href="#meaf14efea9" y="378"/>
      </g>
     </g>
    </g>
    <g id="xtick_43">
     <g id="line2d_43">
      <g>
       <use style="stroke:#000000;stroke-width:0.6;" x="316.202526" xlink:href="#meaf14efea9" y="378"/>
      </g>
     </g>
    </g>
    <g id="xtick_44">
     <g id="line2d_44">
      <g>
       <use style="stroke:#000000;stroke-width:0.6;" x="320.62084" xlink:href="#meaf14efea9" y="378"/>
      </g>
     </g>
    </g>
    <g id="xtick_45">
     <g id="line2d_45">
      <g>
       <use style="stroke:#000000;stroke-width:0.6;" x="324.356471" xlink:href="#meaf14efea9" y="378"/>
      </g>
     </g>
    </g>
    <g id="xtick_46">
     <g id="line2d_46">
      <g>
       <use style="stroke:#000000;stroke-width:0.6;" x="327.592421" xlink:href="#meaf14efea9" y="378"/>
      </g>
     </g>
    </g>
    <g id="xtick_47">
     <g id="line2d_47">
      <g>
       <use style="stroke:#000000;stroke-width:0.6;" x="330.446732" xlink:href="#meaf14efea9" y="378"/>
      </g>
     </g>
    </g>
    <g id="xtick_48">
     <g id="line2d_48">
      <g>
       <use style="stroke:#000000;stroke-width:0.6;" x="349.797474" xlink:href="#meaf14efea9" y="378"/>
      </g>
     </g>
    </g>
    <g id="xtick_49">
     <g id="line2d_49">
      <g>
       <use style="stroke:#000000;stroke-width:0.6;" x="359.623366" xlink:href="#meaf14efea9" y="378"/>
      </g>
     </g>
    </g>
    <g id="xtick_50">
     <g id="line2d_50">
      <g>
       <use style="stroke:#000000;stroke-width:0.6;" x="366.594948" xlink:href="#meaf14efea9" y="378"/>
      </g>
     </g>
    </g>
    <g id="xtick_51">
     <g id="line2d_51">
      <g>
       <use style="stroke:#000000;stroke-width:0.6;" x="372.002526" xlink:href="#meaf14efea9" y="378"/>
      </g>
     </g>
    </g>
    <g id="xtick_52">
     <g id="line2d_52">
      <g>
       <use style="stroke:#000000;stroke-width:0.6;" x="376.42084" xlink:href="#meaf14efea9" y="378"/>
      </g>
     </g>
    </g>
    <g id="xtick_53">
     <g id="line2d_53">
      <g>
       <use style="stroke:#000000;stroke-width:0.6;" x="380.156471" xlink:href="#meaf14efea9" y="378"/>
      </g>
     </g>
    </g>
    <g id="xtick_54">
     <g id="line2d_54">
      <g>
       <use style="stroke:#000000;stroke-width:0.6;" x="383.392421" xlink:href="#meaf14efea9" y="378"/>
      </g>
     </g>
    </g>
    <g id="xtick_55">
     <g id="line2d_55">
      <g>
       <use style="stroke:#000000;stroke-width:0.6;" x="386.246732" xlink:href="#meaf14efea9" y="378"/>
      </g>
     </g>
    </g>
    <g id="text_8">
     <!-- Number of Individuals $M_p$ -->
     <defs>
      <path d="M 9.8125 72.90625 
L 23.09375 72.90625 
L 55.421875 11.921875 
L 55.421875 72.90625 
L 64.984375 72.90625 
L 64.984375 0 
L 51.703125 0 
L 19.390625 60.984375 
L 19.390625 0 
L 9.8125 0 
z
" id="DejaVuSans-78"/>
      <path d="M 8.5 21.578125 
L 8.5 54.6875 
L 17.484375 54.6875 
L 17.484375 21.921875 
Q 17.484375 14.15625 20.5 10.265625 
Q 23.53125 6.390625 29.59375 6.390625 
Q 36.859375 6.390625 41.078125 11.03125 
Q 45.3125 15.671875 45.3125 23.6875 
L 45.3125 54.6875 
L 54.296875 54.6875 
L 54.296875 0 
L 45.3125 0 
L 45.3125 8.40625 
Q 42.046875 3.421875 37.71875 1 
Q 33.40625 -1.421875 27.6875 -1.421875 
Q 18.265625 -1.421875 13.375 4.4375 
Q 8.5 10.296875 8.5 21.578125 
z
M 31.109375 56 
z
" id="DejaVuSans-117"/>
      <path d="M 52 44.1875 
Q 55.375 50.25 60.0625 53.125 
Q 64.75 56 71.09375 56 
Q 79.640625 56 84.28125 50.015625 
Q 88.921875 44.046875 88.921875 33.015625 
L 88.921875 0 
L 79.890625 0 
L 79.890625 32.71875 
Q 79.890625 40.578125 77.09375 44.375 
Q 74.3125 48.1875 68.609375 48.1875 
Q 61.625 48.1875 57.5625 43.546875 
Q 53.515625 38.921875 53.515625 30.90625 
L 53.515625 0 
L 44.484375 0 
L 44.484375 32.71875 
Q 44.484375 40.625 41.703125 44.40625 
Q 38.921875 48.1875 33.109375 48.1875 
Q 26.21875 48.1875 22.15625 43.53125 
Q 18.109375 38.875 18.109375 30.90625 
L 18.109375 0 
L 9.078125 0 
L 9.078125 54.6875 
L 18.109375 54.6875 
L 18.109375 46.1875 
Q 21.1875 51.21875 25.484375 53.609375 
Q 29.78125 56 35.6875 56 
Q 41.65625 56 45.828125 52.96875 
Q 50 49.953125 52 44.1875 
z
" id="DejaVuSans-109"/>
      <path d="M 48.6875 27.296875 
Q 48.6875 37.203125 44.609375 42.84375 
Q 40.53125 48.484375 33.40625 48.484375 
Q 26.265625 48.484375 22.1875 42.84375 
Q 18.109375 37.203125 18.109375 27.296875 
Q 18.109375 17.390625 22.1875 11.75 
Q 26.265625 6.109375 33.40625 6.109375 
Q 40.53125 6.109375 44.609375 11.75 
Q 48.6875 17.390625 48.6875 27.296875 
z
M 18.109375 46.390625 
Q 20.953125 51.265625 25.265625 53.625 
Q 29.59375 56 35.59375 56 
Q 45.5625 56 51.78125 48.09375 
Q 58.015625 40.1875 58.015625 27.296875 
Q 58.015625 14.40625 51.78125 6.484375 
Q 45.5625 -1.421875 35.59375 -1.421875 
Q 29.59375 -1.421875 25.265625 0.953125 
Q 20.953125 3.328125 18.109375 8.203125 
L 18.109375 0 
L 9.078125 0 
L 9.078125 75.984375 
L 18.109375 75.984375 
z
" id="DejaVuSans-98"/>
      <path d="M 56.203125 29.59375 
L 56.203125 25.203125 
L 14.890625 25.203125 
Q 15.484375 15.921875 20.484375 11.0625 
Q 25.484375 6.203125 34.421875 6.203125 
Q 39.59375 6.203125 44.453125 7.46875 
Q 49.3125 8.734375 54.109375 11.28125 
L 54.109375 2.78125 
Q 49.265625 0.734375 44.1875 -0.34375 
Q 39.109375 -1.421875 33.890625 -1.421875 
Q 20.796875 -1.421875 13.15625 6.1875 
Q 5.515625 13.8125 5.515625 26.8125 
Q 5.515625 40.234375 12.765625 48.109375 
Q 20.015625 56 32.328125 56 
Q 43.359375 56 49.78125 48.890625 
Q 56.203125 41.796875 56.203125 29.59375 
z
M 47.21875 32.234375 
Q 47.125 39.59375 43.09375 43.984375 
Q 39.0625 48.390625 32.421875 48.390625 
Q 24.90625 48.390625 20.390625 44.140625 
Q 15.875 39.890625 15.1875 32.171875 
z
" id="DejaVuSans-101"/>
      <path d="M 41.109375 46.296875 
Q 39.59375 47.171875 37.8125 47.578125 
Q 36.03125 48 33.890625 48 
Q 26.265625 48 22.1875 43.046875 
Q 18.109375 38.09375 18.109375 28.8125 
L 18.109375 0 
L 9.078125 0 
L 9.078125 54.6875 
L 18.109375 54.6875 
L 18.109375 46.1875 
Q 20.953125 51.171875 25.484375 53.578125 
Q 30.03125 56 36.53125 56 
Q 37.453125 56 38.578125 55.875 
Q 39.703125 55.765625 41.0625 55.515625 
z
" id="DejaVuSans-114"/>
      <path id="DejaVuSans-32"/>
      <path d="M 30.609375 48.390625 
Q 23.390625 48.390625 19.1875 42.75 
Q 14.984375 37.109375 14.984375 27.296875 
Q 14.984375 17.484375 19.15625 11.84375 
Q 23.34375 6.203125 30.609375 6.203125 
Q 37.796875 6.203125 41.984375 11.859375 
Q 46.1875 17.53125 46.1875 27.296875 
Q 46.1875 37.015625 41.984375 42.703125 
Q 37.796875 48.390625 30.609375 48.390625 
z
M 30.609375 56 
Q 42.328125 56 49.015625 48.375 
Q 55.71875 40.765625 55.71875 27.296875 
Q 55.71875 13.875 49.015625 6.21875 
Q 42.328125 -1.421875 30.609375 -1.421875 
Q 18.84375 -1.421875 12.171875 6.21875 
Q 5.515625 13.875 5.515625 27.296875 
Q 5.515625 40.765625 12.171875 48.375 
Q 18.84375 56 30.609375 56 
z
" id="DejaVuSans-111"/>
      <path d="M 37.109375 75.984375 
L 37.109375 68.5 
L 28.515625 68.5 
Q 23.6875 68.5 21.796875 66.546875 
Q 19.921875 64.59375 19.921875 59.515625 
L 19.921875 54.6875 
L 34.71875 54.6875 
L 34.71875 47.703125 
L 19.921875 47.703125 
L 19.921875 0 
L 10.890625 0 
L 10.890625 47.703125 
L 2.296875 47.703125 
L 2.296875 54.6875 
L 10.890625 54.6875 
L 10.890625 58.5 
Q 10.890625 67.625 15.140625 71.796875 
Q 19.390625 75.984375 28.609375 75.984375 
z
" id="DejaVuSans-102"/>
      <path d="M 9.8125 72.90625 
L 19.671875 72.90625 
L 19.671875 0 
L 9.8125 0 
z
" id="DejaVuSans-73"/>
      <path d="M 54.890625 33.015625 
L 54.890625 0 
L 45.90625 0 
L 45.90625 32.71875 
Q 45.90625 40.484375 42.875 44.328125 
Q 39.84375 48.1875 33.796875 48.1875 
Q 26.515625 48.1875 22.3125 43.546875 
Q 18.109375 38.921875 18.109375 30.90625 
L 18.109375 0 
L 9.078125 0 
L 9.078125 54.6875 
L 18.109375 54.6875 
L 18.109375 46.1875 
Q 21.34375 51.125 25.703125 53.5625 
Q 30.078125 56 35.796875 56 
Q 45.21875 56 50.046875 50.171875 
Q 54.890625 44.34375 54.890625 33.015625 
z
" id="DejaVuSans-110"/>
      <path d="M 45.40625 46.390625 
L 45.40625 75.984375 
L 54.390625 75.984375 
L 54.390625 0 
L 45.40625 0 
L 45.40625 8.203125 
Q 42.578125 3.328125 38.25 0.953125 
Q 33.9375 -1.421875 27.875 -1.421875 
Q 17.96875 -1.421875 11.734375 6.484375 
Q 5.515625 14.40625 5.515625 27.296875 
Q 5.515625 40.1875 11.734375 48.09375 
Q 17.96875 56 27.875 56 
Q 33.9375 56 38.25 53.625 
Q 42.578125 51.265625 45.40625 46.390625 
z
M 14.796875 27.296875 
Q 14.796875 17.390625 18.875 11.75 
Q 22.953125 6.109375 30.078125 6.109375 
Q 37.203125 6.109375 41.296875 11.75 
Q 45.40625 17.390625 45.40625 27.296875 
Q 45.40625 37.203125 41.296875 42.84375 
Q 37.203125 48.484375 30.078125 48.484375 
Q 22.953125 48.484375 18.875 42.84375 
Q 14.796875 37.203125 14.796875 27.296875 
z
" id="DejaVuSans-100"/>
      <path d="M 9.421875 54.6875 
L 18.40625 54.6875 
L 18.40625 0 
L 9.421875 0 
z
M 9.421875 75.984375 
L 18.40625 75.984375 
L 18.40625 64.59375 
L 9.421875 64.59375 
z
" id="DejaVuSans-105"/>
      <path d="M 2.984375 54.6875 
L 12.5 54.6875 
L 29.59375 8.796875 
L 46.6875 54.6875 
L 56.203125 54.6875 
L 35.6875 0 
L 23.484375 0 
z
" id="DejaVuSans-118"/>
      <path d="M 34.28125 27.484375 
Q 23.390625 27.484375 19.1875 25 
Q 14.984375 22.515625 14.984375 16.5 
Q 14.984375 11.71875 18.140625 8.90625 
Q 21.296875 6.109375 26.703125 6.109375 
Q 34.1875 6.109375 38.703125 11.40625 
Q 43.21875 16.703125 43.21875 25.484375 
L 43.21875 27.484375 
z
M 52.203125 31.203125 
L 52.203125 0 
L 43.21875 0 
L 43.21875 8.296875 
Q 40.140625 3.328125 35.546875 0.953125 
Q 30.953125 -1.421875 24.3125 -1.421875 
Q 15.921875 -1.421875 10.953125 3.296875 
Q 6 8.015625 6 15.921875 
Q 6 25.140625 12.171875 29.828125 
Q 18.359375 34.515625 30.609375 34.515625 
L 43.21875 34.515625 
L 43.21875 35.40625 
Q 43.21875 41.609375 39.140625 45 
Q 35.0625 48.390625 27.6875 48.390625 
Q 23 48.390625 18.546875 47.265625 
Q 14.109375 46.140625 10.015625 43.890625 
L 10.015625 52.203125 
Q 14.9375 54.109375 19.578125 55.046875 
Q 24.21875 56 28.609375 56 
Q 40.484375 56 46.34375 49.84375 
Q 52.203125 43.703125 52.203125 31.203125 
z
" id="DejaVuSans-97"/>
      <path d="M 9.421875 75.984375 
L 18.40625 75.984375 
L 18.40625 0 
L 9.421875 0 
z
" id="DejaVuSans-108"/>
      <path d="M 44.28125 53.078125 
L 44.28125 44.578125 
Q 40.484375 46.53125 36.375 47.5 
Q 32.28125 48.484375 27.875 48.484375 
Q 21.1875 48.484375 17.84375 46.4375 
Q 14.5 44.390625 14.5 40.28125 
Q 14.5 37.15625 16.890625 35.375 
Q 19.28125 33.59375 26.515625 31.984375 
L 29.59375 31.296875 
Q 39.15625 29.25 43.1875 25.515625 
Q 47.21875 21.78125 47.21875 15.09375 
Q 47.21875 7.46875 41.1875 3.015625 
Q 35.15625 -1.421875 24.609375 -1.421875 
Q 20.21875 -1.421875 15.453125 -0.5625 
Q 10.6875 0.296875 5.421875 2 
L 5.421875 11.28125 
Q 10.40625 8.6875 15.234375 7.390625 
Q 20.0625 6.109375 24.8125 6.109375 
Q 31.15625 6.109375 34.5625 8.28125 
Q 37.984375 10.453125 37.984375 14.40625 
Q 37.984375 18.0625 35.515625 20.015625 
Q 33.0625 21.96875 24.703125 23.78125 
L 21.578125 24.515625 
Q 13.234375 26.265625 9.515625 29.90625 
Q 5.8125 33.546875 5.8125 39.890625 
Q 5.8125 47.609375 11.28125 51.796875 
Q 16.75 56 26.8125 56 
Q 31.78125 56 36.171875 55.265625 
Q 40.578125 54.546875 44.28125 53.078125 
z
" id="DejaVuSans-115"/>
      <path d="M 16.890625 72.90625 
L 31.6875 72.90625 
L 40.1875 23.78125 
L 68.40625 72.90625 
L 83.59375 72.90625 
L 69.390625 0 
L 59.8125 0 
L 72.21875 63.921875 
L 43.609375 14.015625 
L 33.984375 14.015625 
L 24.703125 64.109375 
L 12.3125 0 
L 2.6875 0 
z
" id="DejaVuSans-Oblique-77"/>
      <path d="M 49.609375 33.6875 
Q 49.609375 40.875 46.484375 44.671875 
Q 43.359375 48.484375 37.5 48.484375 
Q 33.5 48.484375 29.859375 46.4375 
Q 26.21875 44.390625 23.390625 40.484375 
Q 20.609375 36.625 18.9375 31.15625 
Q 17.28125 25.6875 17.28125 20.3125 
Q 17.28125 13.484375 20.40625 9.796875 
Q 23.53125 6.109375 29.296875 6.109375 
Q 33.546875 6.109375 37.1875 8.109375 
Q 40.828125 10.109375 43.40625 13.921875 
Q 46.1875 17.921875 47.890625 23.34375 
Q 49.609375 28.765625 49.609375 33.6875 
z
M 21.78125 46.390625 
Q 25.390625 51.125 30.296875 53.5625 
Q 35.203125 56 41.21875 56 
Q 49.609375 56 54.25 50.5 
Q 58.890625 45.015625 58.890625 35.109375 
Q 58.890625 27 56 19.65625 
Q 53.125 12.3125 47.703125 6.5 
Q 44.09375 2.640625 39.546875 0.609375 
Q 35.015625 -1.421875 29.984375 -1.421875 
Q 24.171875 -1.421875 20.21875 1 
Q 16.265625 3.421875 14.3125 8.203125 
L 8.6875 -20.796875 
L -0.296875 -20.796875 
L 14.40625 54.6875 
L 23.390625 54.6875 
z
" id="DejaVuSans-Oblique-112"/>
     </defs>
     <g transform="translate(145.38 407.798125)scale(0.12 -0.12)">
      <use transform="translate(0 0.015625)" xlink:href="#DejaVuSans-78"/>
      <use transform="translate(74.804688 0.015625)" xlink:href="#DejaVuSans-117"/>
      <use transform="translate(138.183594 0.015625)" xlink:href="#DejaVuSans-109"/>
      <use transform="translate(235.595703 0.015625)" xlink:href="#DejaVuSans-98"/>
      <use transform="translate(299.072266 0.015625)" xlink:href="#DejaVuSans-101"/>
      <use transform="translate(360.595703 0.015625)" xlink:href="#DejaVuSans-114"/>
      <use transform="translate(401.708984 0.015625)" xlink:href="#DejaVuSans-32"/>
      <use transform="translate(433.496094 0.015625)" xlink:href="#DejaVuSans-111"/>
      <use transform="translate(494.677734 0.015625)" xlink:href="#DejaVuSans-102"/>
      <use transform="translate(529.882812 0.015625)" xlink:href="#DejaVuSans-32"/>
      <use transform="translate(561.669922 0.015625)" xlink:href="#DejaVuSans-73"/>
      <use transform="translate(591.162109 0.015625)" xlink:href="#DejaVuSans-110"/>
      <use transform="translate(654.541016 0.015625)" xlink:href="#DejaVuSans-100"/>
      <use transform="translate(718.017578 0.015625)" xlink:href="#DejaVuSans-105"/>
      <use transform="translate(745.800781 0.015625)" xlink:href="#DejaVuSans-118"/>
      <use transform="translate(804.980469 0.015625)" xlink:href="#DejaVuSans-105"/>
      <use transform="translate(832.763672 0.015625)" xlink:href="#DejaVuSans-100"/>
      <use transform="translate(896.240234 0.015625)" xlink:href="#DejaVuSans-117"/>
      <use transform="translate(959.619141 0.015625)" xlink:href="#DejaVuSans-97"/>
      <use transform="translate(1020.898438 0.015625)" xlink:href="#DejaVuSans-108"/>
      <use transform="translate(1048.681641 0.015625)" xlink:href="#DejaVuSans-115"/>
      <use transform="translate(1100.78125 0.015625)" xlink:href="#DejaVuSans-32"/>
      <use transform="translate(1132.568359 0.015625)" xlink:href="#DejaVuSans-Oblique-77"/>
      <use transform="translate(1218.847656 -16.390625)scale(0.7)" xlink:href="#DejaVuSans-Oblique-112"/>
     </g>
    </g>
   </g>
   <g id="matplotlib.axis_2">
    <g id="ytick_1">
     <g id="line2d_56">
      <defs>
       <path d="M 0 0 
L -3.5 0 
" id="m8429f2b375" style="stroke:#000000;stroke-width:0.8;"/>
      </defs>
      <g>
       <use style="stroke:#000000;stroke-width:0.8;" x="54" xlink:href="#m8429f2b375" y="375.304463"/>
      </g>
     </g>
     <g id="text_9">
      <!-- 0.00 -->
      <defs>
       <path d="M 10.6875 12.40625 
L 21 12.40625 
L 21 0 
L 10.6875 0 
z
" id="DejaVuSans-46"/>
      </defs>
      <g transform="translate(24.734375 379.103682)scale(0.1 -0.1)">
       <use xlink:href="#DejaVuSans-48"/>
       <use x="63.623047" xlink:href="#DejaVuSans-46"/>
       <use x="95.410156" xlink:href="#DejaVuSans-48"/>
       <use x="159.033203" xlink:href="#DejaVuSans-48"/>
      </g>
     </g>
    </g>
    <g id="ytick_2">
     <g id="line2d_57">
      <g>
       <use style="stroke:#000000;stroke-width:0.8;" x="54" xlink:href="#m8429f2b375" y="321.393719"/>
      </g>
     </g>
     <g id="text_10">
      <!-- 0.02 -->
      <g transform="translate(24.734375 325.192938)scale(0.1 -0.1)">
       <use xlink:href="#DejaVuSans-48"/>
       <use x="63.623047" xlink:href="#DejaVuSans-46"/>
       <use x="95.410156" xlink:href="#DejaVuSans-48"/>
       <use x="159.033203" xlink:href="#DejaVuSans-50"/>
      </g>
     </g>
    </g>
    <g id="ytick_3">
     <g id="line2d_58">
      <g>
       <use style="stroke:#000000;stroke-width:0.8;" x="54" xlink:href="#m8429f2b375" y="267.482975"/>
      </g>
     </g>
     <g id="text_11">
      <!-- 0.04 -->
      <g transform="translate(24.734375 271.282194)scale(0.1 -0.1)">
       <use xlink:href="#DejaVuSans-48"/>
       <use x="63.623047" xlink:href="#DejaVuSans-46"/>
       <use x="95.410156" xlink:href="#DejaVuSans-48"/>
       <use x="159.033203" xlink:href="#DejaVuSans-52"/>
      </g>
     </g>
    </g>
    <g id="ytick_4">
     <g id="line2d_59">
      <g>
       <use style="stroke:#000000;stroke-width:0.8;" x="54" xlink:href="#m8429f2b375" y="213.572231"/>
      </g>
     </g>
     <g id="text_12">
      <!-- 0.06 -->
      <g transform="translate(24.734375 217.37145)scale(0.1 -0.1)">
       <use xlink:href="#DejaVuSans-48"/>
       <use x="63.623047" xlink:href="#DejaVuSans-46"/>
       <use x="95.410156" xlink:href="#DejaVuSans-48"/>
       <use x="159.033203" xlink:href="#DejaVuSans-54"/>
      </g>
     </g>
    </g>
    <g id="ytick_5">
     <g id="line2d_60">
      <g>
       <use style="stroke:#000000;stroke-width:0.8;" x="54" xlink:href="#m8429f2b375" y="159.661488"/>
      </g>
     </g>
     <g id="text_13">
      <!-- 0.08 -->
      <g transform="translate(24.734375 163.460706)scale(0.1 -0.1)">
       <use xlink:href="#DejaVuSans-48"/>
       <use x="63.623047" xlink:href="#DejaVuSans-46"/>
       <use x="95.410156" xlink:href="#DejaVuSans-48"/>
       <use x="159.033203" xlink:href="#DejaVuSans-56"/>
      </g>
     </g>
    </g>
    <g id="ytick_6">
     <g id="line2d_61">
      <g>
       <use style="stroke:#000000;stroke-width:0.8;" x="54" xlink:href="#m8429f2b375" y="105.750744"/>
      </g>
     </g>
     <g id="text_14">
      <!-- 0.10 -->
      <g transform="translate(24.734375 109.549963)scale(0.1 -0.1)">
       <use xlink:href="#DejaVuSans-48"/>
       <use x="63.623047" xlink:href="#DejaVuSans-46"/>
       <use x="95.410156" xlink:href="#DejaVuSans-49"/>
       <use x="159.033203" xlink:href="#DejaVuSans-48"/>
      </g>
     </g>
    </g>
    <g id="ytick_7">
     <g id="line2d_62">
      <g>
       <use style="stroke:#000000;stroke-width:0.8;" x="54" xlink:href="#m8429f2b375" y="51.84"/>
      </g>
     </g>
     <g id="text_15">
      <!-- 0.12 -->
      <g transform="translate(24.734375 55.639219)scale(0.1 -0.1)">
       <use xlink:href="#DejaVuSans-48"/>
       <use x="63.623047" xlink:href="#DejaVuSans-46"/>
       <use x="95.410156" xlink:href="#DejaVuSans-49"/>
       <use x="159.033203" xlink:href="#DejaVuSans-50"/>
      </g>
     </g>
    </g>
    <g id="text_16">
     <!-- Time per Computation (s) -->
     <defs>
      <path d="M -0.296875 72.90625 
L 61.375 72.90625 
L 61.375 64.59375 
L 35.5 64.59375 
L 35.5 0 
L 25.59375 0 
L 25.59375 64.59375 
L -0.296875 64.59375 
z
" id="DejaVuSans-84"/>
      <path d="M 18.109375 8.203125 
L 18.109375 -20.796875 
L 9.078125 -20.796875 
L 9.078125 54.6875 
L 18.109375 54.6875 
L 18.109375 46.390625 
Q 20.953125 51.265625 25.265625 53.625 
Q 29.59375 56 35.59375 56 
Q 45.5625 56 51.78125 48.09375 
Q 58.015625 40.1875 58.015625 27.296875 
Q 58.015625 14.40625 51.78125 6.484375 
Q 45.5625 -1.421875 35.59375 -1.421875 
Q 29.59375 -1.421875 25.265625 0.953125 
Q 20.953125 3.328125 18.109375 8.203125 
z
M 48.6875 27.296875 
Q 48.6875 37.203125 44.609375 42.84375 
Q 40.53125 48.484375 33.40625 48.484375 
Q 26.265625 48.484375 22.1875 42.84375 
Q 18.109375 37.203125 18.109375 27.296875 
Q 18.109375 17.390625 22.1875 11.75 
Q 26.265625 6.109375 33.40625 6.109375 
Q 40.53125 6.109375 44.609375 11.75 
Q 48.6875 17.390625 48.6875 27.296875 
z
" id="DejaVuSans-112"/>
      <path d="M 64.40625 67.28125 
L 64.40625 56.890625 
Q 59.421875 61.53125 53.78125 63.8125 
Q 48.140625 66.109375 41.796875 66.109375 
Q 29.296875 66.109375 22.65625 58.46875 
Q 16.015625 50.828125 16.015625 36.375 
Q 16.015625 21.96875 22.65625 14.328125 
Q 29.296875 6.6875 41.796875 6.6875 
Q 48.140625 6.6875 53.78125 8.984375 
Q 59.421875 11.28125 64.40625 15.921875 
L 64.40625 5.609375 
Q 59.234375 2.09375 53.4375 0.328125 
Q 47.65625 -1.421875 41.21875 -1.421875 
Q 24.65625 -1.421875 15.125 8.703125 
Q 5.609375 18.84375 5.609375 36.375 
Q 5.609375 53.953125 15.125 64.078125 
Q 24.65625 74.21875 41.21875 74.21875 
Q 47.75 74.21875 53.53125 72.484375 
Q 59.328125 70.75 64.40625 67.28125 
z
" id="DejaVuSans-67"/>
      <path d="M 18.3125 70.21875 
L 18.3125 54.6875 
L 36.8125 54.6875 
L 36.8125 47.703125 
L 18.3125 47.703125 
L 18.3125 18.015625 
Q 18.3125 11.328125 20.140625 9.421875 
Q 21.96875 7.515625 27.59375 7.515625 
L 36.8125 7.515625 
L 36.8125 0 
L 27.59375 0 
Q 17.1875 0 13.234375 3.875 
Q 9.28125 7.765625 9.28125 18.015625 
L 9.28125 47.703125 
L 2.6875 47.703125 
L 2.6875 54.6875 
L 9.28125 54.6875 
L 9.28125 70.21875 
z
" id="DejaVuSans-116"/>
      <path d="M 31 75.875 
Q 24.46875 64.65625 21.28125 53.65625 
Q 18.109375 42.671875 18.109375 31.390625 
Q 18.109375 20.125 21.3125 9.0625 
Q 24.515625 -2 31 -13.1875 
L 23.1875 -13.1875 
Q 15.875 -1.703125 12.234375 9.375 
Q 8.59375 20.453125 8.59375 31.390625 
Q 8.59375 42.28125 12.203125 53.3125 
Q 15.828125 64.359375 23.1875 75.875 
z
" id="DejaVuSans-40"/>
      <path d="M 8.015625 75.875 
L 15.828125 75.875 
Q 23.140625 64.359375 26.78125 53.3125 
Q 30.421875 42.28125 30.421875 31.390625 
Q 30.421875 20.453125 26.78125 9.375 
Q 23.140625 -1.703125 15.828125 -13.1875 
L 8.015625 -13.1875 
Q 14.5 -2 17.703125 9.0625 
Q 20.90625 20.125 20.90625 31.390625 
Q 20.90625 42.671875 17.703125 53.65625 
Q 14.5 64.65625 8.015625 75.875 
z
" id="DejaVuSans-41"/>
     </defs>
     <g transform="translate(18.23875 291.934687)rotate(-90)scale(0.12 -0.12)">
      <use xlink:href="#DejaVuSans-84"/>
      <use x="57.958984" xlink:href="#DejaVuSans-105"/>
      <use x="85.742188" xlink:href="#DejaVuSans-109"/>
      <use x="183.154297" xlink:href="#DejaVuSans-101"/>
      <use x="244.677734" xlink:href="#DejaVuSans-32"/>
      <use x="276.464844" xlink:href="#DejaVuSans-112"/>
      <use x="339.941406" xlink:href="#DejaVuSans-101"/>
      <use x="401.464844" xlink:href="#DejaVuSans-114"/>
      <use x="442.578125" xlink:href="#DejaVuSans-32"/>
      <use x="474.365234" xlink:href="#DejaVuSans-67"/>
      <use x="544.189453" xlink:href="#DejaVuSans-111"/>
      <use x="605.371094" xlink:href="#DejaVuSans-109"/>
      <use x="702.783203" xlink:href="#DejaVuSans-112"/>
      <use x="766.259766" xlink:href="#DejaVuSans-117"/>
      <use x="829.638672" xlink:href="#DejaVuSans-116"/>
      <use x="868.847656" xlink:href="#DejaVuSans-97"/>
      <use x="930.126953" xlink:href="#DejaVuSans-116"/>
      <use x="969.335938" xlink:href="#DejaVuSans-105"/>
      <use x="997.119141" xlink:href="#DejaVuSans-111"/>
      <use x="1058.300781" xlink:href="#DejaVuSans-110"/>
      <use x="1121.679688" xlink:href="#DejaVuSans-32"/>
      <use x="1153.466797" xlink:href="#DejaVuSans-40"/>
      <use x="1192.480469" xlink:href="#DejaVuSans-115"/>
      <use x="1244.580078" xlink:href="#DejaVuSans-41"/>
     </g>
    </g>
   </g>
   <g id="line2d_63">
    <defs>
     <path d="M 0 1.5 
C 0.397805 1.5 0.77937 1.341951 1.06066 1.06066 
C 1.341951 0.77937 1.5 0.397805 1.5 0 
C 1.5 -0.397805 1.341951 -0.77937 1.06066 -1.06066 
C 0.77937 -1.341951 0.397805 -1.5 0 -1.5 
C -0.397805 -1.5 -0.77937 -1.341951 -1.06066 -1.06066 
C -1.341951 -0.77937 -1.5 -0.397805 -1.5 0 
C -1.5 0.397805 -1.341951 0.77937 -1.06066 1.06066 
C -0.77937 1.341951 -0.397805 1.5 0 1.5 
z
" id="me584cd0d50" style="stroke:#1f77b4;"/>
    </defs>
    <g clip-path="url(#peb387c010e)">
     <use style="fill:#1f77b4;stroke:#1f77b4;" x="54" xlink:href="#me584cd0d50" y="366.380079"/>
     <use style="fill:#1f77b4;stroke:#1f77b4;" x="55.639615" xlink:href="#me584cd0d50" y="366.374141"/>
     <use style="fill:#1f77b4;stroke:#1f77b4;" x="57.175291" xlink:href="#me584cd0d50" y="366.309245"/>
     <use style="fill:#1f77b4;stroke:#1f77b4;" x="59.016705" xlink:href="#me584cd0d50" y="366.182434"/>
     <use style="fill:#1f77b4;stroke:#1f77b4;" x="60.728025" xlink:href="#me584cd0d50" y="365.772535"/>
     <use style="fill:#1f77b4;stroke:#1f77b4;" x="62.326426" xlink:href="#me584cd0d50" y="365.753718"/>
     <use style="fill:#1f77b4;stroke:#1f77b4;" x="63.986914" xlink:href="#me584cd0d50" y="366.231399"/>
     <use style="fill:#1f77b4;stroke:#1f77b4;" x="65.690938" xlink:href="#me584cd0d50" y="365.763486"/>
     <use style="fill:#1f77b4;stroke:#1f77b4;" x="67.422648" xlink:href="#me584cd0d50" y="365.603083"/>
     <use style="fill:#1f77b4;stroke:#1f77b4;" x="69.168762" xlink:href="#me584cd0d50" y="365.311936"/>
     <use style="fill:#1f77b4;stroke:#1f77b4;" x="70.797474" xlink:href="#me584cd0d50" y="365.746867"/>
     <use style="fill:#1f77b4;stroke:#1f77b4;" x="72.550066" xlink:href="#me584cd0d50" y="365.762117"/>
     <use style="fill:#1f77b4;stroke:#1f77b4;" x="74.289548" xlink:href="#me584cd0d50" y="365.757683"/>
     <use style="fill:#1f77b4;stroke:#1f77b4;" x="75.91249" xlink:href="#me584cd0d50" y="365.557647"/>
     <use style="fill:#1f77b4;stroke:#1f77b4;" x="77.61712" xlink:href="#me584cd0d50" y="365.617125"/>
     <use style="fill:#1f77b4;stroke:#1f77b4;" x="79.295163" xlink:href="#me584cd0d50" y="365.364326"/>
     <use style="fill:#1f77b4;stroke:#1f77b4;" x="81.023931" xlink:href="#me584cd0d50" y="365.179785"/>
     <use style="fill:#1f77b4;stroke:#1f77b4;" x="82.711765" xlink:href="#me584cd0d50" y="365.083912"/>
     <use style="fill:#1f77b4;stroke:#1f77b4;" x="84.428137" xlink:href="#me584cd0d50" y="364.780695"/>
     <use style="fill:#1f77b4;stroke:#1f77b4;" x="86.095482" xlink:href="#me584cd0d50" y="365.30567"/>
     <use style="fill:#1f77b4;stroke:#1f77b4;" x="87.776022" xlink:href="#me584cd0d50" y="365.102761"/>
     <use style="fill:#1f77b4;stroke:#1f77b4;" x="89.459993" xlink:href="#me584cd0d50" y="364.988502"/>
     <use style="fill:#1f77b4;stroke:#1f77b4;" x="91.191703" xlink:href="#me584cd0d50" y="364.599868"/>
     <use style="fill:#1f77b4;stroke:#1f77b4;" x="92.856686" xlink:href="#me584cd0d50" y="364.467595"/>
     <use style="fill:#1f77b4;stroke:#1f77b4;" x="94.551378" xlink:href="#me584cd0d50" y="363.858463"/>
     <use style="fill:#1f77b4;stroke:#1f77b4;" x="96.262698" xlink:href="#me584cd0d50" y="363.83248"/>
     <use style="fill:#1f77b4;stroke:#1f77b4;" x="97.940294" xlink:href="#me584cd0d50" y="363.193368"/>
     <use style="fill:#1f77b4;stroke:#1f77b4;" x="99.620148" xlink:href="#me584cd0d50" y="363.514039"/>
     <use style="fill:#1f77b4;stroke:#1f77b4;" x="101.328953" xlink:href="#me584cd0d50" y="362.722062"/>
     <use style="fill:#1f77b4;stroke:#1f77b4;" x="103.021516" xlink:href="#me584cd0d50" y="362.926687"/>
     <use style="fill:#1f77b4;stroke:#1f77b4;" x="104.723364" xlink:href="#me584cd0d50" y="363.187436"/>
     <use style="fill:#1f77b4;stroke:#1f77b4;" x="106.397304" xlink:href="#me584cd0d50" y="362.801496"/>
     <use style="fill:#1f77b4;stroke:#1f77b4;" x="108.093408" xlink:href="#me584cd0d50" y="362.65205"/>
     <use style="fill:#1f77b4;stroke:#1f77b4;" x="109.8" xlink:href="#me584cd0d50" y="362.702699"/>
     <use style="fill:#1f77b4;stroke:#1f77b4;" x="111.484869" xlink:href="#me584cd0d50" y="361.560758"/>
     <use style="fill:#1f77b4;stroke:#1f77b4;" x="113.165858" xlink:href="#me584cd0d50" y="360.803607"/>
     <use style="fill:#1f77b4;stroke:#1f77b4;" x="114.856077" xlink:href="#me584cd0d50" y="360.887739"/>
     <use style="fill:#1f77b4;stroke:#1f77b4;" x="116.546377" xlink:href="#me584cd0d50" y="360.266544"/>
     <use style="fill:#1f77b4;stroke:#1f77b4;" x="118.246438" xlink:href="#me584cd0d50" y="360.497872"/>
     <use style="fill:#1f77b4;stroke:#1f77b4;" x="119.930924" xlink:href="#me584cd0d50" y="360.267052"/>
     <use style="fill:#1f77b4;stroke:#1f77b4;" x="121.625197" xlink:href="#me584cd0d50" y="359.576019"/>
     <use style="fill:#1f77b4;stroke:#1f77b4;" x="123.319944" xlink:href="#me584cd0d50" y="359.308605"/>
     <use style="fill:#1f77b4;stroke:#1f77b4;" x="125.007608" xlink:href="#me584cd0d50" y="358.796098"/>
     <use style="fill:#1f77b4;stroke:#1f77b4;" x="126.70628" xlink:href="#me584cd0d50" y="358.380178"/>
     <use style="fill:#1f77b4;stroke:#1f77b4;" x="128.39511" xlink:href="#me584cd0d50" y="357.766284"/>
     <use style="fill:#1f77b4;stroke:#1f77b4;" x="130.089548" xlink:href="#me584cd0d50" y="357.59002"/>
     <use style="fill:#1f77b4;stroke:#1f77b4;" x="131.781071" xlink:href="#me584cd0d50" y="356.791912"/>
     <use style="fill:#1f77b4;stroke:#1f77b4;" x="133.471926" xlink:href="#me584cd0d50" y="356.227195"/>
     <use style="fill:#1f77b4;stroke:#1f77b4;" x="135.163331" xlink:href="#me584cd0d50" y="355.960854"/>
     <use style="fill:#1f77b4;stroke:#1f77b4;" x="136.847756" xlink:href="#me584cd0d50" y="354.565909"/>
     <use style="fill:#1f77b4;stroke:#1f77b4;" x="138.54139" xlink:href="#me584cd0d50" y="354.40798"/>
     <use style="fill:#1f77b4;stroke:#1f77b4;" x="140.23504" xlink:href="#me584cd0d50" y="353.294818"/>
     <use style="fill:#1f77b4;stroke:#1f77b4;" x="141.921249" xlink:href="#me584cd0d50" y="352.748436"/>
     <use style="fill:#1f77b4;stroke:#1f77b4;" x="143.618078" xlink:href="#me584cd0d50" y="352.639967"/>
     <use style="fill:#1f77b4;stroke:#1f77b4;" x="145.304829" xlink:href="#me584cd0d50" y="351.10913"/>
     <use style="fill:#1f77b4;stroke:#1f77b4;" x="146.996926" xlink:href="#me584cd0d50" y="350.24475"/>
     <use style="fill:#1f77b4;stroke:#1f77b4;" x="148.690794" xlink:href="#me584cd0d50" y="349.131466"/>
     <use style="fill:#1f77b4;stroke:#1f77b4;" x="150.378643" xlink:href="#me584cd0d50" y="347.976042"/>
     <use style="fill:#1f77b4;stroke:#1f77b4;" x="152.07117" xlink:href="#me584cd0d50" y="346.22157"/>
     <use style="fill:#1f77b4;stroke:#1f77b4;" x="153.760053" xlink:href="#me584cd0d50" y="345.345295"/>
     <use style="fill:#1f77b4;stroke:#1f77b4;" x="155.453322" xlink:href="#me584cd0d50" y="343.905434"/>
     <use style="fill:#1f77b4;stroke:#1f77b4;" x="157.142698" xlink:href="#me584cd0d50" y="341.908451"/>
     <use style="fill:#1f77b4;stroke:#1f77b4;" x="158.834335" xlink:href="#me584cd0d50" y="341.410205"/>
     <use style="fill:#1f77b4;stroke:#1f77b4;" x="160.526352" xlink:href="#me584cd0d50" y="340.045639"/>
     <use style="fill:#1f77b4;stroke:#1f77b4;" x="162.216816" xlink:href="#me584cd0d50" y="339.307896"/>
     <use style="fill:#1f77b4;stroke:#1f77b4;" x="163.909004" xlink:href="#me584cd0d50" y="336.512292"/>
     <use style="fill:#1f77b4;stroke:#1f77b4;" x="165.6" xlink:href="#me584cd0d50" y="334.727036"/>
     <use style="fill:#1f77b4;stroke:#1f77b4;" x="167.28939" xlink:href="#me584cd0d50" y="333.065333"/>
     <use style="fill:#1f77b4;stroke:#1f77b4;" x="168.980617" xlink:href="#me584cd0d50" y="330.731928"/>
     <use style="fill:#1f77b4;stroke:#1f77b4;" x="170.671809" xlink:href="#me584cd0d50" y="327.406356"/>
     <use style="fill:#1f77b4;stroke:#1f77b4;" x="172.362882" xlink:href="#me584cd0d50" y="325.111999"/>
     <use style="fill:#1f77b4;stroke:#1f77b4;" x="174.053278" xlink:href="#me584cd0d50" y="323.676778"/>
     <use style="fill:#1f77b4;stroke:#1f77b4;" x="175.745278" xlink:href="#me584cd0d50" y="320.28888"/>
     <use style="fill:#1f77b4;stroke:#1f77b4;" x="177.435608" xlink:href="#me584cd0d50" y="317.204654"/>
     <use style="fill:#1f77b4;stroke:#1f77b4;" x="179.126879" xlink:href="#me584cd0d50" y="312.600247"/>
     <use style="fill:#1f77b4;stroke:#1f77b4;" x="180.817956" xlink:href="#me584cd0d50" y="309.430598"/>
     <use style="fill:#1f77b4;stroke:#1f77b4;" x="182.508693" xlink:href="#me584cd0d50" y="304.870406"/>
     <use style="fill:#1f77b4;stroke:#1f77b4;" x="184.19961" xlink:href="#me584cd0d50" y="300.937572"/>
     <use style="fill:#1f77b4;stroke:#1f77b4;" x="185.890598" xlink:href="#me584cd0d50" y="295.636579"/>
     <use style="fill:#1f77b4;stroke:#1f77b4;" x="187.581071" xlink:href="#me584cd0d50" y="290.679341"/>
     <use style="fill:#1f77b4;stroke:#1f77b4;" x="189.271926" xlink:href="#me584cd0d50" y="286.887052"/>
     <use style="fill:#1f77b4;stroke:#1f77b4;" x="190.963331" xlink:href="#me584cd0d50" y="282.714851"/>
     <use style="fill:#1f77b4;stroke:#1f77b4;" x="192.654105" xlink:href="#me584cd0d50" y="276.163088"/>
     <use style="fill:#1f77b4;stroke:#1f77b4;" x="194.345091" xlink:href="#me584cd0d50" y="268.669947"/>
     <use style="fill:#1f77b4;stroke:#1f77b4;" x="196.03573" xlink:href="#me584cd0d50" y="261.419896"/>
     <use style="fill:#1f77b4;stroke:#1f77b4;" x="197.727042" xlink:href="#me584cd0d50" y="253.989248"/>
     <use style="fill:#1f77b4;stroke:#1f77b4;" x="199.418078" xlink:href="#me584cd0d50" y="246.973442"/>
     <use style="fill:#1f77b4;stroke:#1f77b4;" x="201.108748" xlink:href="#me584cd0d50" y="229.694103"/>
     <use style="fill:#1f77b4;stroke:#1f77b4;" x="202.799536" xlink:href="#me584cd0d50" y="224.961464"/>
     <use style="fill:#1f77b4;stroke:#1f77b4;" x="204.490794" xlink:href="#me584cd0d50" y="216.298993"/>
     <use style="fill:#1f77b4;stroke:#1f77b4;" x="206.181368" xlink:href="#me584cd0d50" y="198.687267"/>
     <use style="fill:#1f77b4;stroke:#1f77b4;" x="207.872441" xlink:href="#me584cd0d50" y="186.222385"/>
     <use style="fill:#1f77b4;stroke:#1f77b4;" x="209.563608" xlink:href="#me584cd0d50" y="180.431024"/>
     <use style="fill:#1f77b4;stroke:#1f77b4;" x="211.254427" xlink:href="#me584cd0d50" y="168.368611"/>
     <use style="fill:#1f77b4;stroke:#1f77b4;" x="212.945447" xlink:href="#me584cd0d50" y="155.169386"/>
     <use style="fill:#1f77b4;stroke:#1f77b4;" x="214.636257" xlink:href="#me584cd0d50" y="133.163321"/>
     <use style="fill:#1f77b4;stroke:#1f77b4;" x="216.327248" xlink:href="#me584cd0d50" y="116.028377"/>
     <use style="fill:#1f77b4;stroke:#1f77b4;" x="218.017931" xlink:href="#me584cd0d50" y="88.952241"/>
     <use style="fill:#1f77b4;stroke:#1f77b4;" x="219.709004" xlink:href="#me584cd0d50" y="75.930379"/>
     <use style="fill:#1f77b4;stroke:#1f77b4;" x="221.4" xlink:href="#me584cd0d50" y="43.631804"/>
    </g>
   </g>
   <g id="line2d_64">
    <defs>
     <path d="M 0 1.5 
C 0.397805 1.5 0.77937 1.341951 1.06066 1.06066 
C 1.341951 0.77937 1.5 0.397805 1.5 0 
C 1.5 -0.397805 1.341951 -0.77937 1.06066 -1.06066 
C 0.77937 -1.341951 0.397805 -1.5 0 -1.5 
C -0.397805 -1.5 -0.77937 -1.341951 -1.06066 -1.06066 
C -1.341951 -0.77937 -1.5 -0.397805 -1.5 0 
C -1.5 0.397805 -1.341951 0.77937 -1.06066 1.06066 
C -0.77937 1.341951 -0.397805 1.5 0 1.5 
z
" id="m45f19d0d50" style="stroke:#ff7f0e;"/>
    </defs>
    <g clip-path="url(#peb387c010e)">
     <use style="fill:#ff7f0e;stroke:#ff7f0e;" x="54" xlink:href="#m45f19d0d50" y="373.489854"/>
     <use style="fill:#ff7f0e;stroke:#ff7f0e;" x="57.175291" xlink:href="#m45f19d0d50" y="373.42163"/>
     <use style="fill:#ff7f0e;stroke:#ff7f0e;" x="60.728025" xlink:href="#m45f19d0d50" y="373.57781"/>
     <use style="fill:#ff7f0e;stroke:#ff7f0e;" x="63.986914" xlink:href="#m45f19d0d50" y="373.519748"/>
     <use style="fill:#ff7f0e;stroke:#ff7f0e;" x="67.422648" xlink:href="#m45f19d0d50" y="373.536676"/>
     <use style="fill:#ff7f0e;stroke:#ff7f0e;" x="70.797474" xlink:href="#m45f19d0d50" y="373.55169"/>
     <use style="fill:#ff7f0e;stroke:#ff7f0e;" x="74.289548" xlink:href="#m45f19d0d50" y="373.555922"/>
     <use style="fill:#ff7f0e;stroke:#ff7f0e;" x="77.61712" xlink:href="#m45f19d0d50" y="373.52557"/>
     <use style="fill:#ff7f0e;stroke:#ff7f0e;" x="81.023931" xlink:href="#m45f19d0d50" y="373.522821"/>
     <use style="fill:#ff7f0e;stroke:#ff7f0e;" x="84.428137" xlink:href="#m45f19d0d50" y="373.564736"/>
     <use style="fill:#ff7f0e;stroke:#ff7f0e;" x="87.776022" xlink:href="#m45f19d0d50" y="373.535328"/>
     <use style="fill:#ff7f0e;stroke:#ff7f0e;" x="91.191703" xlink:href="#m45f19d0d50" y="373.537242"/>
     <use style="fill:#ff7f0e;stroke:#ff7f0e;" x="94.551378" xlink:href="#m45f19d0d50" y="373.554628"/>
     <use style="fill:#ff7f0e;stroke:#ff7f0e;" x="97.940294" xlink:href="#m45f19d0d50" y="373.560666"/>
     <use style="fill:#ff7f0e;stroke:#ff7f0e;" x="101.328953" xlink:href="#m45f19d0d50" y="373.525516"/>
     <use style="fill:#ff7f0e;stroke:#ff7f0e;" x="104.723364" xlink:href="#m45f19d0d50" y="373.60525"/>
     <use style="fill:#ff7f0e;stroke:#ff7f0e;" x="108.093408" xlink:href="#m45f19d0d50" y="373.579454"/>
     <use style="fill:#ff7f0e;stroke:#ff7f0e;" x="111.484869" xlink:href="#m45f19d0d50" y="373.599994"/>
     <use style="fill:#ff7f0e;stroke:#ff7f0e;" x="114.856077" xlink:href="#m45f19d0d50" y="373.547"/>
     <use style="fill:#ff7f0e;stroke:#ff7f0e;" x="118.246438" xlink:href="#m45f19d0d50" y="373.582904"/>
     <use style="fill:#ff7f0e;stroke:#ff7f0e;" x="121.625197" xlink:href="#m45f19d0d50" y="373.438181"/>
     <use style="fill:#ff7f0e;stroke:#ff7f0e;" x="125.007608" xlink:href="#m45f19d0d50" y="373.519155"/>
     <use style="fill:#ff7f0e;stroke:#ff7f0e;" x="128.39511" xlink:href="#m45f19d0d50" y="373.497159"/>
     <use style="fill:#ff7f0e;stroke:#ff7f0e;" x="131.781071" xlink:href="#m45f19d0d50" y="373.57382"/>
     <use style="fill:#ff7f0e;stroke:#ff7f0e;" x="135.163331" xlink:href="#m45f19d0d50" y="373.565949"/>
     <use style="fill:#ff7f0e;stroke:#ff7f0e;" x="138.54139" xlink:href="#m45f19d0d50" y="373.582015"/>
     <use style="fill:#ff7f0e;stroke:#ff7f0e;" x="141.921249" xlink:href="#m45f19d0d50" y="373.578403"/>
     <use style="fill:#ff7f0e;stroke:#ff7f0e;" x="145.304829" xlink:href="#m45f19d0d50" y="373.559749"/>
     <use style="fill:#ff7f0e;stroke:#ff7f0e;" x="148.690794" xlink:href="#m45f19d0d50" y="373.501768"/>
     <use style="fill:#ff7f0e;stroke:#ff7f0e;" x="152.07117" xlink:href="#m45f19d0d50" y="373.558941"/>
     <use style="fill:#ff7f0e;stroke:#ff7f0e;" x="155.453322" xlink:href="#m45f19d0d50" y="373.561717"/>
     <use style="fill:#ff7f0e;stroke:#ff7f0e;" x="158.834335" xlink:href="#m45f19d0d50" y="373.574602"/>
     <use style="fill:#ff7f0e;stroke:#ff7f0e;" x="162.216816" xlink:href="#m45f19d0d50" y="373.558078"/>
     <use style="fill:#ff7f0e;stroke:#ff7f0e;" x="165.6" xlink:href="#m45f19d0d50" y="373.532255"/>
     <use style="fill:#ff7f0e;stroke:#ff7f0e;" x="168.980617" xlink:href="#m45f19d0d50" y="373.538266"/>
     <use style="fill:#ff7f0e;stroke:#ff7f0e;" x="172.362882" xlink:href="#m45f19d0d50" y="373.508965"/>
     <use style="fill:#ff7f0e;stroke:#ff7f0e;" x="175.745278" xlink:href="#m45f19d0d50" y="373.543738"/>
     <use style="fill:#ff7f0e;stroke:#ff7f0e;" x="179.126879" xlink:href="#m45f19d0d50" y="373.49503"/>
     <use style="fill:#ff7f0e;stroke:#ff7f0e;" x="182.508693" xlink:href="#m45f19d0d50" y="373.522093"/>
     <use style="fill:#ff7f0e;stroke:#ff7f0e;" x="185.890598" xlink:href="#m45f19d0d50" y="373.588646"/>
     <use style="fill:#ff7f0e;stroke:#ff7f0e;" x="189.271926" xlink:href="#m45f19d0d50" y="373.55541"/>
     <use style="fill:#ff7f0e;stroke:#ff7f0e;" x="192.654105" xlink:href="#m45f19d0d50" y="373.573227"/>
     <use style="fill:#ff7f0e;stroke:#ff7f0e;" x="196.03573" xlink:href="#m45f19d0d50" y="373.591772"/>
     <use style="fill:#ff7f0e;stroke:#ff7f0e;" x="199.418078" xlink:href="#m45f19d0d50" y="373.574521"/>
     <use style="fill:#ff7f0e;stroke:#ff7f0e;" x="202.799536" xlink:href="#m45f19d0d50" y="373.589158"/>
     <use style="fill:#ff7f0e;stroke:#ff7f0e;" x="206.181368" xlink:href="#m45f19d0d50" y="373.581556"/>
     <use style="fill:#ff7f0e;stroke:#ff7f0e;" x="209.563608" xlink:href="#m45f19d0d50" y="373.578996"/>
     <use style="fill:#ff7f0e;stroke:#ff7f0e;" x="212.945447" xlink:href="#m45f19d0d50" y="373.568672"/>
     <use style="fill:#ff7f0e;stroke:#ff7f0e;" x="216.327248" xlink:href="#m45f19d0d50" y="373.574979"/>
     <use style="fill:#ff7f0e;stroke:#ff7f0e;" x="219.709004" xlink:href="#m45f19d0d50" y="373.587055"/>
     <use style="fill:#ff7f0e;stroke:#ff7f0e;" x="223.090746" xlink:href="#m45f19d0d50" y="373.548779"/>
     <use style="fill:#ff7f0e;stroke:#ff7f0e;" x="226.472595" xlink:href="#m45f19d0d50" y="373.504707"/>
     <use style="fill:#ff7f0e;stroke:#ff7f0e;" x="229.854474" xlink:href="#m45f19d0d50" y="373.556596"/>
     <use style="fill:#ff7f0e;stroke:#ff7f0e;" x="233.236351" xlink:href="#m45f19d0d50" y="373.605439"/>
     <use style="fill:#ff7f0e;stroke:#ff7f0e;" x="236.618086" xlink:href="#m45f19d0d50" y="373.56665"/>
     <use style="fill:#ff7f0e;stroke:#ff7f0e;" x="239.999947" xlink:href="#m45f19d0d50" y="373.594926"/>
     <use style="fill:#ff7f0e;stroke:#ff7f0e;" x="243.381756" xlink:href="#m45f19d0d50" y="373.508642"/>
     <use style="fill:#ff7f0e;stroke:#ff7f0e;" x="246.763586" xlink:href="#m45f19d0d50" y="373.560262"/>
     <use style="fill:#ff7f0e;stroke:#ff7f0e;" x="250.145387" xlink:href="#m45f19d0d50" y="373.568726"/>
     <use style="fill:#ff7f0e;stroke:#ff7f0e;" x="253.527235" xlink:href="#m45f19d0d50" y="373.623661"/>
     <use style="fill:#ff7f0e;stroke:#ff7f0e;" x="256.909084" xlink:href="#m45f19d0d50" y="373.626545"/>
     <use style="fill:#ff7f0e;stroke:#ff7f0e;" x="260.290892" xlink:href="#m45f19d0d50" y="373.54053"/>
     <use style="fill:#ff7f0e;stroke:#ff7f0e;" x="263.672695" xlink:href="#m45f19d0d50" y="373.519963"/>
     <use style="fill:#ff7f0e;stroke:#ff7f0e;" x="267.054537" xlink:href="#m45f19d0d50" y="373.59525"/>
     <use style="fill:#ff7f0e;stroke:#ff7f0e;" x="270.436353" xlink:href="#m45f19d0d50" y="373.529236"/>
     <use style="fill:#ff7f0e;stroke:#ff7f0e;" x="273.818182" xlink:href="#m45f19d0d50" y="373.554412"/>
     <use style="fill:#ff7f0e;stroke:#ff7f0e;" x="277.2" xlink:href="#m45f19d0d50" y="373.542956"/>
     <use style="fill:#ff7f0e;stroke:#ff7f0e;" x="280.581797" xlink:href="#m45f19d0d50" y="373.526001"/>
     <use style="fill:#ff7f0e;stroke:#ff7f0e;" x="283.963634" xlink:href="#m45f19d0d50" y="373.524465"/>
     <use style="fill:#ff7f0e;stroke:#ff7f0e;" x="287.345453" xlink:href="#m45f19d0d50" y="373.579076"/>
     <use style="fill:#ff7f0e;stroke:#ff7f0e;" x="290.727267" xlink:href="#m45f19d0d50" y="373.579157"/>
     <use style="fill:#ff7f0e;stroke:#ff7f0e;" x="294.109091" xlink:href="#m45f19d0d50" y="373.553604"/>
     <use style="fill:#ff7f0e;stroke:#ff7f0e;" x="297.490902" xlink:href="#m45f19d0d50" y="373.576812"/>
     <use style="fill:#ff7f0e;stroke:#ff7f0e;" x="300.87272" xlink:href="#m45f19d0d50" y="373.573416"/>
     <use style="fill:#ff7f0e;stroke:#ff7f0e;" x="304.254541" xlink:href="#m45f19d0d50" y="373.459368"/>
     <use style="fill:#ff7f0e;stroke:#ff7f0e;" x="307.636359" xlink:href="#m45f19d0d50" y="373.584009"/>
     <use style="fill:#ff7f0e;stroke:#ff7f0e;" x="311.01818" xlink:href="#m45f19d0d50" y="373.560612"/>
     <use style="fill:#ff7f0e;stroke:#ff7f0e;" x="314.399996" xlink:href="#m45f19d0d50" y="373.515704"/>
     <use style="fill:#ff7f0e;stroke:#ff7f0e;" x="317.781817" xlink:href="#m45f19d0d50" y="373.559911"/>
     <use style="fill:#ff7f0e;stroke:#ff7f0e;" x="321.163635" xlink:href="#m45f19d0d50" y="373.556272"/>
     <use style="fill:#ff7f0e;stroke:#ff7f0e;" x="324.545453" xlink:href="#m45f19d0d50" y="373.607811"/>
     <use style="fill:#ff7f0e;stroke:#ff7f0e;" x="327.927272" xlink:href="#m45f19d0d50" y="373.550396"/>
     <use style="fill:#ff7f0e;stroke:#ff7f0e;" x="331.30909" xlink:href="#m45f19d0d50" y="373.577863"/>
     <use style="fill:#ff7f0e;stroke:#ff7f0e;" x="334.690909" xlink:href="#m45f19d0d50" y="373.527673"/>
     <use style="fill:#ff7f0e;stroke:#ff7f0e;" x="338.072726" xlink:href="#m45f19d0d50" y="373.556569"/>
     <use style="fill:#ff7f0e;stroke:#ff7f0e;" x="341.454544" xlink:href="#m45f19d0d50" y="373.595519"/>
     <use style="fill:#ff7f0e;stroke:#ff7f0e;" x="344.836363" xlink:href="#m45f19d0d50" y="373.450904"/>
     <use style="fill:#ff7f0e;stroke:#ff7f0e;" x="348.218182" xlink:href="#m45f19d0d50" y="373.528131"/>
     <use style="fill:#ff7f0e;stroke:#ff7f0e;" x="351.599999" xlink:href="#m45f19d0d50" y="373.598161"/>
     <use style="fill:#ff7f0e;stroke:#ff7f0e;" x="354.981818" xlink:href="#m45f19d0d50" y="373.530611"/>
     <use style="fill:#ff7f0e;stroke:#ff7f0e;" x="358.363636" xlink:href="#m45f19d0d50" y="373.600641"/>
     <use style="fill:#ff7f0e;stroke:#ff7f0e;" x="361.745454" xlink:href="#m45f19d0d50" y="373.5663"/>
     <use style="fill:#ff7f0e;stroke:#ff7f0e;" x="365.127273" xlink:href="#m45f19d0d50" y="373.571933"/>
     <use style="fill:#ff7f0e;stroke:#ff7f0e;" x="368.50909" xlink:href="#m45f19d0d50" y="373.551339"/>
     <use style="fill:#ff7f0e;stroke:#ff7f0e;" x="371.890909" xlink:href="#m45f19d0d50" y="373.575303"/>
     <use style="fill:#ff7f0e;stroke:#ff7f0e;" x="375.272727" xlink:href="#m45f19d0d50" y="373.63695"/>
     <use style="fill:#ff7f0e;stroke:#ff7f0e;" x="378.654545" xlink:href="#m45f19d0d50" y="373.57789"/>
     <use style="fill:#ff7f0e;stroke:#ff7f0e;" x="382.036363" xlink:href="#m45f19d0d50" y="373.544088"/>
     <use style="fill:#ff7f0e;stroke:#ff7f0e;" x="385.418182" xlink:href="#m45f19d0d50" y="373.571017"/>
     <use style="fill:#ff7f0e;stroke:#ff7f0e;" x="388.8" xlink:href="#m45f19d0d50" y="373.539452"/>
    </g>
   </g>
   <g id="line2d_65">
    <path clip-path="url(#peb387c010e)" d="M 54 365.574967 
L 55.639615 365.553349 
L 57.175291 365.531731 
L 59.016705 365.503936 
L 60.728025 365.476142 
L 62.326426 365.448347 
L 63.986914 365.417465 
L 65.690938 365.383494 
L 67.422648 365.346434 
L 69.168762 365.306287 
L 70.797474 365.266139 
L 72.550066 365.219815 
L 74.289548 365.170403 
L 75.91249 365.12099 
L 77.61712 365.065402 
L 79.295163 365.006724 
L 81.023931 364.941871 
L 82.711765 364.873929 
L 84.428137 364.79981 
L 86.095482 364.722603 
L 87.776022 364.63922 
L 89.459993 364.54966 
L 91.191703 364.450835 
L 92.856686 364.348922 
L 94.551378 364.237744 
L 96.262698 364.117302 
L 97.940294 363.990683 
L 99.620148 363.854799 
L 101.328953 363.706562 
L 103.021516 363.54906 
L 104.723364 363.379205 
L 106.397304 363.200085 
L 108.093408 363.005524 
L 109.8 362.795521 
L 111.484869 362.573166 
L 113.165858 362.335369 
L 114.856077 362.079042 
L 116.546377 361.804186 
L 118.246438 361.507711 
L 119.930924 361.192708 
L 121.625197 360.852998 
L 123.319944 360.488581 
L 125.007608 360.099459 
L 126.70628 359.679454 
L 128.39511 359.231655 
L 130.089548 358.749884 
L 131.781071 358.234142 
L 133.471926 357.681342 
L 135.163331 357.088393 
L 136.847756 356.455297 
L 138.54139 355.772789 
L 140.23504 355.040869 
L 141.921249 354.259536 
L 143.618078 353.416437 
L 145.304829 352.51775 
L 146.996926 351.55112 
L 148.690794 350.513461 
L 150.378643 349.404771 
L 152.07117 348.212698 
L 153.760053 346.937241 
L 155.453322 345.566048 
L 157.142698 344.099119 
L 158.834335 342.5241 
L 160.526352 340.834814 
L 162.216816 339.025087 
L 163.909004 337.082563 
L 165.6 335.001067 
L 167.28939 332.771335 
L 168.980617 330.377923 
L 170.671809 327.811569 
L 172.362882 325.059918 
L 174.053278 322.110617 
L 175.745278 318.945138 
L 177.435608 315.554215 
L 179.126879 311.916229 
L 180.817956 308.015741 
L 182.508693 303.83422 
L 184.19961 299.350048 
L 185.890598 294.541608 
L 187.581071 289.387281 
L 189.271926 283.859273 
L 190.963331 277.929789 
L 192.654105 271.574124 
L 194.345091 264.758306 
L 196.03573 257.451453 
L 197.727042 249.613417 
L 199.418078 241.210227 
L 201.108748 232.201736 
L 202.799536 222.541619 
L 204.490794 212.180465 
L 206.181368 201.075036 
L 207.872441 189.163569 
L 209.563608 176.390473 
L 211.254427 162.697072 
L 212.945447 148.012336 
L 214.636257 132.268322 
L 216.327248 115.384735 
L 218.017931 97.284369 
L 219.709004 77.871488 
L 221.4 57.05653 
" style="fill:none;stroke:#1f77b4;stroke-linecap:square;stroke-width:1.5;"/>
   </g>
   <g id="line2d_66">
    <path clip-path="url(#peb387c010e)" d="M 54 373.55253 
L 57.175291 373.55253 
L 60.728025 373.55253 
L 63.986914 373.55253 
L 67.422648 373.55253 
L 70.797474 373.55253 
L 74.289548 373.55253 
L 77.61712 373.55253 
L 81.023931 373.55253 
L 84.428137 373.55253 
L 87.776022 373.55253 
L 91.191703 373.55253 
L 94.551378 373.552531 
L 97.940294 373.552531 
L 101.328953 373.552531 
L 104.723364 373.552531 
L 108.093408 373.552531 
L 111.484869 373.552531 
L 114.856077 373.552531 
L 118.246438 373.552531 
L 121.625197 373.552531 
L 125.007608 373.552531 
L 128.39511 373.552531 
L 131.781071 373.552531 
L 135.163331 373.552531 
L 138.54139 373.552531 
L 141.921249 373.552531 
L 145.304829 373.552531 
L 148.690794 373.552531 
L 152.07117 373.552532 
L 155.453322 373.552532 
L 158.834335 373.552532 
L 162.216816 373.552532 
L 165.6 373.552533 
L 168.980617 373.552533 
L 172.362882 373.552533 
L 175.745278 373.552534 
L 179.126879 373.552534 
L 182.508693 373.552535 
L 185.890598 373.552535 
L 189.271926 373.552536 
L 192.654105 373.552537 
L 196.03573 373.552538 
L 199.418078 373.552539 
L 202.799536 373.552541 
L 206.181368 373.552542 
L 209.563608 373.552544 
L 212.945447 373.552546 
L 216.327248 373.552548 
L 219.709004 373.552551 
L 223.090746 373.552554 
L 226.472595 373.552558 
L 229.854474 373.552562 
L 233.236351 373.552566 
L 236.618086 373.552572 
L 239.999947 373.552578 
L 243.381756 373.552585 
L 246.763586 373.552593 
L 250.145387 373.552603 
L 253.527235 373.552614 
L 256.909084 373.552626 
L 260.290892 373.55264 
L 263.672695 373.552657 
L 267.054537 373.552676 
L 270.436353 373.552697 
L 273.818182 373.552722 
L 277.2 373.552751 
L 280.581797 373.552784 
L 283.963634 373.552822 
L 287.345453 373.552866 
L 290.727267 373.552916 
L 294.109091 373.552974 
L 297.490902 373.55304 
L 300.87272 373.553117 
L 304.254541 373.553205 
L 307.636359 373.553306 
L 311.01818 373.553422 
L 314.399996 373.553555 
L 317.781817 373.553709 
L 321.163635 373.553885 
L 324.545453 373.554088 
L 327.927272 373.554321 
L 331.30909 373.554589 
L 334.690909 373.554898 
L 338.072726 373.555252 
L 341.454544 373.55566 
L 344.836363 373.556129 
L 348.218182 373.556667 
L 351.599999 373.557287 
L 354.981818 373.557999 
L 358.363636 373.558818 
L 361.745454 373.55976 
L 365.127273 373.560843 
L 368.50909 373.562088 
L 371.890909 373.563519 
L 375.272727 373.565164 
L 378.654545 373.567056 
L 382.036363 373.569232 
L 385.418182 373.571733 
L 388.8 373.574609 
" style="fill:none;stroke:#ff7f0e;stroke-linecap:square;stroke-width:1.5;"/>
   </g>
   <g id="patch_3">
    <path d="M 54 378 
L 54 51.84 
" style="fill:none;stroke:#000000;stroke-linecap:square;stroke-linejoin:miter;stroke-width:0.8;"/>
   </g>
   <g id="patch_4">
    <path d="M 388.8 378 
L 388.8 51.84 
" style="fill:none;stroke:#000000;stroke-linecap:square;stroke-linejoin:miter;stroke-width:0.8;"/>
   </g>
   <g id="patch_5">
    <path d="M 54 378 
L 388.8 378 
" style="fill:none;stroke:#000000;stroke-linecap:square;stroke-linejoin:miter;stroke-width:0.8;"/>
   </g>
   <g id="patch_6">
    <path d="M 54 51.84 
L 388.8 51.84 
" style="fill:none;stroke:#000000;stroke-linecap:square;stroke-linejoin:miter;stroke-width:0.8;"/>
   </g>
   <g id="text_17">
    <!-- $t = (1.1x 10^{-6})\cdot N_p + 0.003$ -->
    <defs>
     <path d="M 42.28125 54.6875 
L 40.921875 47.703125 
L 23 47.703125 
L 17.1875 18.015625 
Q 16.890625 16.359375 16.75 15.234375 
Q 16.609375 14.109375 16.609375 13.484375 
Q 16.609375 10.359375 18.484375 8.9375 
Q 20.359375 7.515625 24.515625 7.515625 
L 33.59375 7.515625 
L 32.078125 0 
L 23.484375 0 
Q 15.484375 0 11.546875 3.125 
Q 7.625 6.25 7.625 12.59375 
Q 7.625 13.71875 7.765625 15.0625 
Q 7.90625 16.40625 8.203125 18.015625 
L 14.015625 47.703125 
L 6.390625 47.703125 
L 7.8125 54.6875 
L 15.28125 54.6875 
L 18.3125 70.21875 
L 27.296875 70.21875 
L 24.3125 54.6875 
z
" id="DejaVuSans-Oblique-116"/>
     <path d="M 10.59375 45.40625 
L 73.1875 45.40625 
L 73.1875 37.203125 
L 10.59375 37.203125 
z
M 10.59375 25.484375 
L 73.1875 25.484375 
L 73.1875 17.1875 
L 10.59375 17.1875 
z
" id="DejaVuSans-61"/>
     <path d="M 60.015625 54.6875 
L 34.90625 27.875 
L 50.296875 0 
L 39.984375 0 
L 28.421875 21.6875 
L 8.296875 0 
L -2.59375 0 
L 24.3125 28.8125 
L 10.015625 54.6875 
L 20.3125 54.6875 
L 30.8125 34.90625 
L 49.125 54.6875 
z
" id="DejaVuSans-Oblique-120"/>
     <path d="M 10.59375 35.5 
L 73.1875 35.5 
L 73.1875 27.203125 
L 10.59375 27.203125 
z
" id="DejaVuSans-8722"/>
     <path d="M 10.6875 40.921875 
L 21 40.921875 
L 21 28.515625 
L 10.6875 28.515625 
z
" id="DejaVuSans-8901"/>
     <path d="M 16.890625 72.90625 
L 30.171875 72.90625 
L 50.296875 10.40625 
L 62.5 72.90625 
L 72.125 72.90625 
L 57.90625 0 
L 44.578125 0 
L 24.515625 62.890625 
L 12.3125 0 
L 2.6875 0 
z
" id="DejaVuSans-Oblique-78"/>
     <path d="M 46 62.703125 
L 46 35.5 
L 73.1875 35.5 
L 73.1875 27.203125 
L 46 27.203125 
L 46 0 
L 37.796875 0 
L 37.796875 27.203125 
L 10.59375 27.203125 
L 10.59375 35.5 
L 37.796875 35.5 
L 37.796875 62.703125 
z
" id="DejaVuSans-43"/>
    </defs>
    <g style="fill:#1f77b4;" transform="translate(221.4 213.572231)scale(0.12 -0.12)">
     <use transform="translate(0 0.765625)" xlink:href="#DejaVuSans-Oblique-116"/>
     <use transform="translate(58.691406 0.765625)" xlink:href="#DejaVuSans-61"/>
     <use transform="translate(161.962891 0.765625)" xlink:href="#DejaVuSans-40"/>
     <use transform="translate(200.976562 0.765625)" xlink:href="#DejaVuSans-49"/>
     <use transform="translate(264.599609 0.765625)" xlink:href="#DejaVuSans-46"/>
     <use transform="translate(296.386719 0.765625)" xlink:href="#DejaVuSans-49"/>
     <use transform="translate(360.009766 0.765625)" xlink:href="#DejaVuSans-Oblique-120"/>
     <use transform="translate(419.189453 0.765625)" xlink:href="#DejaVuSans-49"/>
     <use transform="translate(482.8125 0.765625)" xlink:href="#DejaVuSans-48"/>
     <use transform="translate(547.392578 39.046875)scale(0.7)" xlink:href="#DejaVuSans-8722"/>
     <use transform="translate(606.044922 39.046875)scale(0.7)" xlink:href="#DejaVuSans-54"/>
     <use transform="translate(653.31543 0.765625)" xlink:href="#DejaVuSans-41"/>
     <use transform="translate(711.811523 0.765625)" xlink:href="#DejaVuSans-8901"/>
     <use transform="translate(763.081055 0.765625)" xlink:href="#DejaVuSans-Oblique-78"/>
     <use transform="translate(837.885742 -15.640625)scale(0.7)" xlink:href="#DejaVuSans-Oblique-112"/>
     <use transform="translate(904.536133 0.765625)" xlink:href="#DejaVuSans-43"/>
     <use transform="translate(1007.807617 0.765625)" xlink:href="#DejaVuSans-48"/>
     <use transform="translate(1071.430664 0.765625)" xlink:href="#DejaVuSans-46"/>
     <use transform="translate(1103.217773 0.765625)" xlink:href="#DejaVuSans-48"/>
     <use transform="translate(1166.84082 0.765625)" xlink:href="#DejaVuSans-48"/>
     <use transform="translate(1230.463867 0.765625)" xlink:href="#DejaVuSans-51"/>
    </g>
   </g>
   <g id="text_18">
    <!-- $t = (-8.2x 10^{-14})\cdot N_p + 0.0006$ -->
    <g style="fill:#ff7f0e;" transform="translate(192.223366 348.349091)scale(0.12 -0.12)">
     <use transform="translate(0 0.684375)" xlink:href="#DejaVuSans-Oblique-116"/>
     <use transform="translate(58.691406 0.684375)" xlink:href="#DejaVuSans-61"/>
     <use transform="translate(161.962891 0.684375)" xlink:href="#DejaVuSans-40"/>
     <use transform="translate(200.976562 0.684375)" xlink:href="#DejaVuSans-8722"/>
     <use transform="translate(284.765625 0.684375)" xlink:href="#DejaVuSans-56"/>
     <use transform="translate(348.388672 0.684375)" xlink:href="#DejaVuSans-46"/>
     <use transform="translate(374.675781 0.684375)" xlink:href="#DejaVuSans-50"/>
     <use transform="translate(438.298828 0.684375)" xlink:href="#DejaVuSans-Oblique-120"/>
     <use transform="translate(497.478516 0.684375)" xlink:href="#DejaVuSans-49"/>
     <use transform="translate(561.101562 0.684375)" xlink:href="#DejaVuSans-48"/>
     <use transform="translate(625.681641 38.965625)scale(0.7)" xlink:href="#DejaVuSans-8722"/>
     <use transform="translate(684.333984 38.965625)scale(0.7)" xlink:href="#DejaVuSans-49"/>
     <use transform="translate(728.870117 38.965625)scale(0.7)" xlink:href="#DejaVuSans-52"/>
     <use transform="translate(776.140625 0.684375)" xlink:href="#DejaVuSans-41"/>
     <use transform="translate(834.636719 0.684375)" xlink:href="#DejaVuSans-8901"/>
     <use transform="translate(885.90625 0.684375)" xlink:href="#DejaVuSans-Oblique-78"/>
     <use transform="translate(960.710938 -15.721875)scale(0.7)" xlink:href="#DejaVuSans-Oblique-112"/>
     <use transform="translate(1027.361328 0.684375)" xlink:href="#DejaVuSans-43"/>
     <use transform="translate(1130.632812 0.684375)" xlink:href="#DejaVuSans-48"/>
     <use transform="translate(1194.255859 0.684375)" xlink:href="#DejaVuSans-46"/>
     <use transform="translate(1226.042969 0.684375)" xlink:href="#DejaVuSans-48"/>
     <use transform="translate(1289.666016 0.684375)" xlink:href="#DejaVuSans-48"/>
     <use transform="translate(1353.289062 0.684375)" xlink:href="#DejaVuSans-48"/>
     <use transform="translate(1416.912109 0.684375)" xlink:href="#DejaVuSans-54"/>
    </g>
   </g>
   <g id="text_19">
    <!-- Computation Time for Tuple with $n=20$ Permutations -->
    <defs>
     <path d="M 4.203125 54.6875 
L 13.1875 54.6875 
L 24.421875 12.015625 
L 35.59375 54.6875 
L 46.1875 54.6875 
L 57.421875 12.015625 
L 68.609375 54.6875 
L 77.59375 54.6875 
L 63.28125 0 
L 52.6875 0 
L 40.921875 44.828125 
L 29.109375 0 
L 18.5 0 
z
" id="DejaVuSans-119"/>
     <path d="M 54.890625 33.015625 
L 54.890625 0 
L 45.90625 0 
L 45.90625 32.71875 
Q 45.90625 40.484375 42.875 44.328125 
Q 39.84375 48.1875 33.796875 48.1875 
Q 26.515625 48.1875 22.3125 43.546875 
Q 18.109375 38.921875 18.109375 30.90625 
L 18.109375 0 
L 9.078125 0 
L 9.078125 75.984375 
L 18.109375 75.984375 
L 18.109375 46.1875 
Q 21.34375 51.125 25.703125 53.5625 
Q 30.078125 56 35.796875 56 
Q 45.21875 56 50.046875 50.171875 
Q 54.890625 44.34375 54.890625 33.015625 
z
" id="DejaVuSans-104"/>
     <path d="M 55.71875 33.015625 
L 49.3125 0 
L 40.28125 0 
L 46.6875 32.671875 
Q 47.125 34.96875 47.359375 36.71875 
Q 47.609375 38.484375 47.609375 39.5 
Q 47.609375 43.609375 45.015625 45.890625 
Q 42.4375 48.1875 37.796875 48.1875 
Q 30.5625 48.1875 25.34375 43.375 
Q 20.125 38.578125 18.5 30.328125 
L 12.5 0 
L 3.515625 0 
L 14.109375 54.6875 
L 23.09375 54.6875 
L 21.296875 46.09375 
Q 25.046875 50.828125 30.3125 53.40625 
Q 35.59375 56 41.40625 56 
Q 48.640625 56 52.609375 52.09375 
Q 56.59375 48.1875 56.59375 41.109375 
Q 56.59375 39.359375 56.375 37.359375 
Q 56.15625 35.359375 55.71875 33.015625 
z
" id="DejaVuSans-Oblique-110"/>
     <path d="M 19.671875 64.796875 
L 19.671875 37.40625 
L 32.078125 37.40625 
Q 38.96875 37.40625 42.71875 40.96875 
Q 46.484375 44.53125 46.484375 51.125 
Q 46.484375 57.671875 42.71875 61.234375 
Q 38.96875 64.796875 32.078125 64.796875 
z
M 9.8125 72.90625 
L 32.078125 72.90625 
Q 44.34375 72.90625 50.609375 67.359375 
Q 56.890625 61.8125 56.890625 51.125 
Q 56.890625 40.328125 50.609375 34.8125 
Q 44.34375 29.296875 32.078125 29.296875 
L 19.671875 29.296875 
L 19.671875 0 
L 9.8125 0 
z
" id="DejaVuSans-80"/>
    </defs>
    <g transform="translate(59.76 45.84)scale(0.12 -0.12)">
     <use transform="translate(0 0.015625)" xlink:href="#DejaVuSans-67"/>
     <use transform="translate(69.824219 0.015625)" xlink:href="#DejaVuSans-111"/>
     <use transform="translate(131.005859 0.015625)" xlink:href="#DejaVuSans-109"/>
     <use transform="translate(228.417969 0.015625)" xlink:href="#DejaVuSans-112"/>
     <use transform="translate(291.894531 0.015625)" xlink:href="#DejaVuSans-117"/>
     <use transform="translate(355.273438 0.015625)" xlink:href="#DejaVuSans-116"/>
     <use transform="translate(394.482422 0.015625)" xlink:href="#DejaVuSans-97"/>
     <use transform="translate(455.761719 0.015625)" xlink:href="#DejaVuSans-116"/>
     <use transform="translate(494.970703 0.015625)" xlink:href="#DejaVuSans-105"/>
     <use transform="translate(522.753906 0.015625)" xlink:href="#DejaVuSans-111"/>
     <use transform="translate(583.935547 0.015625)" xlink:href="#DejaVuSans-110"/>
     <use transform="translate(647.314453 0.015625)" xlink:href="#DejaVuSans-32"/>
     <use transform="translate(679.101562 0.015625)" xlink:href="#DejaVuSans-84"/>
     <use transform="translate(740.185547 0.015625)" xlink:href="#DejaVuSans-105"/>
     <use transform="translate(767.96875 0.015625)" xlink:href="#DejaVuSans-109"/>
     <use transform="translate(865.380859 0.015625)" xlink:href="#DejaVuSans-101"/>
     <use transform="translate(926.904297 0.015625)" xlink:href="#DejaVuSans-32"/>
     <use transform="translate(958.691406 0.015625)" xlink:href="#DejaVuSans-102"/>
     <use transform="translate(993.896484 0.015625)" xlink:href="#DejaVuSans-111"/>
     <use transform="translate(1055.078125 0.015625)" xlink:href="#DejaVuSans-114"/>
     <use transform="translate(1096.191406 0.015625)" xlink:href="#DejaVuSans-32"/>
     <use transform="translate(1127.978516 0.015625)" xlink:href="#DejaVuSans-84"/>
     <use transform="translate(1189.0625 0.015625)" xlink:href="#DejaVuSans-117"/>
     <use transform="translate(1252.441406 0.015625)" xlink:href="#DejaVuSans-112"/>
     <use transform="translate(1315.917969 0.015625)" xlink:href="#DejaVuSans-108"/>
     <use transform="translate(1343.701172 0.015625)" xlink:href="#DejaVuSans-101"/>
     <use transform="translate(1405.224609 0.015625)" xlink:href="#DejaVuSans-32"/>
     <use transform="translate(1437.011719 0.015625)" xlink:href="#DejaVuSans-119"/>
     <use transform="translate(1518.798828 0.015625)" xlink:href="#DejaVuSans-105"/>
     <use transform="translate(1546.582031 0.015625)" xlink:href="#DejaVuSans-116"/>
     <use transform="translate(1585.791016 0.015625)" xlink:href="#DejaVuSans-104"/>
     <use transform="translate(1649.169922 0.015625)" xlink:href="#DejaVuSans-32"/>
     <use transform="translate(1680.957031 0.015625)" xlink:href="#DejaVuSans-Oblique-110"/>
     <use transform="translate(1763.818359 0.015625)" xlink:href="#DejaVuSans-61"/>
     <use transform="translate(1867.089844 0.015625)" xlink:href="#DejaVuSans-50"/>
     <use transform="translate(1930.712891 0.015625)" xlink:href="#DejaVuSans-48"/>
     <use transform="translate(1994.335938 0.015625)" xlink:href="#DejaVuSans-32"/>
     <use transform="translate(2026.123047 0.015625)" xlink:href="#DejaVuSans-80"/>
     <use transform="translate(2086.425781 0.015625)" xlink:href="#DejaVuSans-101"/>
     <use transform="translate(2147.949219 0.015625)" xlink:href="#DejaVuSans-114"/>
     <use transform="translate(2189.0625 0.015625)" xlink:href="#DejaVuSans-109"/>
     <use transform="translate(2286.474609 0.015625)" xlink:href="#DejaVuSans-117"/>
     <use transform="translate(2349.853516 0.015625)" xlink:href="#DejaVuSans-116"/>
     <use transform="translate(2389.0625 0.015625)" xlink:href="#DejaVuSans-97"/>
     <use transform="translate(2450.341797 0.015625)" xlink:href="#DejaVuSans-116"/>
     <use transform="translate(2489.550781 0.015625)" xlink:href="#DejaVuSans-105"/>
     <use transform="translate(2517.333984 0.015625)" xlink:href="#DejaVuSans-111"/>
     <use transform="translate(2578.515625 0.015625)" xlink:href="#DejaVuSans-110"/>
     <use transform="translate(2641.894531 0.015625)" xlink:href="#DejaVuSans-115"/>
    </g>
   </g>
   <g id="legend_1">
    <g id="patch_7">
     <path d="M 255.648438 89.19625 
L 381.8 89.19625 
Q 383.8 89.19625 383.8 87.19625 
L 383.8 58.84 
Q 383.8 56.84 381.8 56.84 
L 255.648438 56.84 
Q 253.648438 56.84 253.648438 58.84 
L 253.648438 87.19625 
Q 253.648438 89.19625 255.648438 89.19625 
z
" style="fill:#ffffff;opacity:0.8;stroke:#cccccc;stroke-linejoin:miter;"/>
    </g>
    <g id="line2d_67"/>
    <g id="line2d_68">
     <g>
      <use style="fill:#1f77b4;stroke:#1f77b4;" x="267.648438" xlink:href="#me584cd0d50" y="64.938437"/>
     </g>
    </g>
    <g id="text_20">
     <!-- Direct Permutation -->
     <defs>
      <path d="M 19.671875 64.796875 
L 19.671875 8.109375 
L 31.59375 8.109375 
Q 46.6875 8.109375 53.6875 14.9375 
Q 60.6875 21.78125 60.6875 36.53125 
Q 60.6875 51.171875 53.6875 57.984375 
Q 46.6875 64.796875 31.59375 64.796875 
z
M 9.8125 72.90625 
L 30.078125 72.90625 
Q 51.265625 72.90625 61.171875 64.09375 
Q 71.09375 55.28125 71.09375 36.53125 
Q 71.09375 17.671875 61.125 8.828125 
Q 51.171875 0 30.078125 0 
L 9.8125 0 
z
" id="DejaVuSans-68"/>
      <path d="M 48.78125 52.59375 
L 48.78125 44.1875 
Q 44.96875 46.296875 41.140625 47.34375 
Q 37.3125 48.390625 33.40625 48.390625 
Q 24.65625 48.390625 19.8125 42.84375 
Q 14.984375 37.3125 14.984375 27.296875 
Q 14.984375 17.28125 19.8125 11.734375 
Q 24.65625 6.203125 33.40625 6.203125 
Q 37.3125 6.203125 41.140625 7.25 
Q 44.96875 8.296875 48.78125 10.40625 
L 48.78125 2.09375 
Q 45.015625 0.34375 40.984375 -0.53125 
Q 36.96875 -1.421875 32.421875 -1.421875 
Q 20.0625 -1.421875 12.78125 6.34375 
Q 5.515625 14.109375 5.515625 27.296875 
Q 5.515625 40.671875 12.859375 48.328125 
Q 20.21875 56 33.015625 56 
Q 37.15625 56 41.109375 55.140625 
Q 45.0625 54.296875 48.78125 52.59375 
z
" id="DejaVuSans-99"/>
     </defs>
     <g transform="translate(285.648438 68.438437)scale(0.1 -0.1)">
      <use xlink:href="#DejaVuSans-68"/>
      <use x="77.001953" xlink:href="#DejaVuSans-105"/>
      <use x="104.785156" xlink:href="#DejaVuSans-114"/>
      <use x="143.648438" xlink:href="#DejaVuSans-101"/>
      <use x="205.171875" xlink:href="#DejaVuSans-99"/>
      <use x="260.152344" xlink:href="#DejaVuSans-116"/>
      <use x="299.361328" xlink:href="#DejaVuSans-32"/>
      <use x="331.148438" xlink:href="#DejaVuSans-80"/>
      <use x="387.826172" xlink:href="#DejaVuSans-101"/>
      <use x="449.349609" xlink:href="#DejaVuSans-114"/>
      <use x="488.712891" xlink:href="#DejaVuSans-109"/>
      <use x="586.125" xlink:href="#DejaVuSans-117"/>
      <use x="649.503906" xlink:href="#DejaVuSans-116"/>
      <use x="688.712891" xlink:href="#DejaVuSans-97"/>
      <use x="749.992188" xlink:href="#DejaVuSans-116"/>
      <use x="789.201172" xlink:href="#DejaVuSans-105"/>
      <use x="816.984375" xlink:href="#DejaVuSans-111"/>
      <use x="878.166016" xlink:href="#DejaVuSans-110"/>
     </g>
    </g>
    <g id="line2d_69"/>
    <g id="line2d_70">
     <g>
      <use style="fill:#ff7f0e;stroke:#ff7f0e;" x="267.648438" xlink:href="#m45f19d0d50" y="79.616562"/>
     </g>
    </g>
    <g id="text_21">
     <!-- Our Method -->
     <defs>
      <path d="M 39.40625 66.21875 
Q 28.65625 66.21875 22.328125 58.203125 
Q 16.015625 50.203125 16.015625 36.375 
Q 16.015625 22.609375 22.328125 14.59375 
Q 28.65625 6.59375 39.40625 6.59375 
Q 50.140625 6.59375 56.421875 14.59375 
Q 62.703125 22.609375 62.703125 36.375 
Q 62.703125 50.203125 56.421875 58.203125 
Q 50.140625 66.21875 39.40625 66.21875 
z
M 39.40625 74.21875 
Q 54.734375 74.21875 63.90625 63.9375 
Q 73.09375 53.65625 73.09375 36.375 
Q 73.09375 19.140625 63.90625 8.859375 
Q 54.734375 -1.421875 39.40625 -1.421875 
Q 24.03125 -1.421875 14.8125 8.828125 
Q 5.609375 19.09375 5.609375 36.375 
Q 5.609375 53.65625 14.8125 63.9375 
Q 24.03125 74.21875 39.40625 74.21875 
z
" id="DejaVuSans-79"/>
      <path d="M 9.8125 72.90625 
L 24.515625 72.90625 
L 43.109375 23.296875 
L 61.8125 72.90625 
L 76.515625 72.90625 
L 76.515625 0 
L 66.890625 0 
L 66.890625 64.015625 
L 48.09375 14.015625 
L 38.1875 14.015625 
L 19.390625 64.015625 
L 19.390625 0 
L 9.8125 0 
z
" id="DejaVuSans-77"/>
     </defs>
     <g transform="translate(285.648438 83.116562)scale(0.1 -0.1)">
      <use xlink:href="#DejaVuSans-79"/>
      <use x="78.710938" xlink:href="#DejaVuSans-117"/>
      <use x="142.089844" xlink:href="#DejaVuSans-114"/>
      <use x="183.203125" xlink:href="#DejaVuSans-32"/>
      <use x="214.990234" xlink:href="#DejaVuSans-77"/>
      <use x="301.269531" xlink:href="#DejaVuSans-101"/>
      <use x="362.792969" xlink:href="#DejaVuSans-116"/>
      <use x="402.001953" xlink:href="#DejaVuSans-104"/>
      <use x="465.380859" xlink:href="#DejaVuSans-111"/>
      <use x="526.5625" xlink:href="#DejaVuSans-100"/>
     </g>
    </g>
   </g>
  </g>
 </g>
 <defs>
  <clipPath id="peb387c010e">
   <rect height="326.16" width="334.8" x="54" y="51.84"/>
  </clipPath>
 </defs>
</svg>
