<?xml version="1.0" encoding="utf-8" standalone="no"?>
<!DOCTYPE svg PUBLIC "-//W3C//DTD SVG 1.1//EN"
  "http://www.w3.org/Graphics/SVG/1.1/DTD/svg11.dtd">
<!-- Created with matplotlib (https://matplotlib.org/) -->
<svg height="432pt" version="1.1" viewBox="0 0 432 432" width="432pt" xmlns="http://www.w3.org/2000/svg" xmlns:xlink="http://www.w3.org/1999/xlink">
 <defs>
  <style type="text/css">
*{stroke-linecap:butt;stroke-linejoin:round;}
  </style>
 </defs>
 <g id="figure_1">
  <g id="patch_1">
   <path d="M 0 432 
L 432 432 
L 432 0 
L 0 0 
z
" style="fill:#ffffff;"/>
  </g>
  <g id="axes_1">
   <g id="patch_2">
    <path d="M 54 378 
L 388.8 378 
L 388.8 51.84 
L 54 51.84 
z
" style="fill:#ffffff;"/>
   </g>
   <g id="matplotlib.axis_1">
    <g id="xtick_1">
     <g id="line2d_1">
      <defs>
       <path d="M 0 0 
L 0 3.5 
" id="md639e8e928" style="stroke:#000000;stroke-width:0.8;"/>
      </defs>
      <g>
       <use style="stroke:#000000;stroke-width:0.8;" x="54" xlink:href="#md639e8e928" y="378"/>
      </g>
     </g>
     <g id="text_1">
      <!-- $\mathdefault{10^{1}}$ -->
      <defs>
       <path d="M 12.40625 8.296875 
L 28.515625 8.296875 
L 28.515625 63.921875 
L 10.984375 60.40625 
L 10.984375 69.390625 
L 28.421875 72.90625 
L 38.28125 72.90625 
L 38.28125 8.296875 
L 54.390625 8.296875 
L 54.390625 0 
L 12.40625 0 
z
" id="DejaVuSans-49"/>
       <path d="M 31.78125 66.40625 
Q 24.171875 66.40625 20.328125 58.90625 
Q 16.5 51.421875 16.5 36.375 
Q 16.5 21.390625 20.328125 13.890625 
Q 24.171875 6.390625 31.78125 6.390625 
Q 39.453125 6.390625 43.28125 13.890625 
Q 47.125 21.390625 47.125 36.375 
Q 47.125 51.421875 43.28125 58.90625 
Q 39.453125 66.40625 31.78125 66.40625 
z
M 31.78125 74.21875 
Q 44.046875 74.21875 50.515625 64.515625 
Q 56.984375 54.828125 56.984375 36.375 
Q 56.984375 17.96875 50.515625 8.265625 
Q 44.046875 -1.421875 31.78125 -1.421875 
Q 19.53125 -1.421875 13.0625 8.265625 
Q 6.59375 17.96875 6.59375 36.375 
Q 6.59375 54.828125 13.0625 64.515625 
Q 19.53125 74.21875 31.78125 74.21875 
z
" id="DejaVuSans-48"/>
      </defs>
      <g transform="translate(45.2 392.598437)scale(0.1 -0.1)">
       <use transform="translate(0 0.684375)" xlink:href="#DejaVuSans-49"/>
       <use transform="translate(63.623047 0.684375)" xlink:href="#DejaVuSans-48"/>
       <use transform="translate(128.203125 38.965625)scale(0.7)" xlink:href="#DejaVuSans-49"/>
      </g>
     </g>
    </g>
    <g id="xtick_2">
     <g id="line2d_2">
      <g>
       <use style="stroke:#000000;stroke-width:0.8;" x="136.075294" xlink:href="#md639e8e928" y="378"/>
      </g>
     </g>
     <g id="text_2">
      <!-- $\mathdefault{10^{2}}$ -->
      <defs>
       <path d="M 19.1875 8.296875 
L 53.609375 8.296875 
L 53.609375 0 
L 7.328125 0 
L 7.328125 8.296875 
Q 12.9375 14.109375 22.625 23.890625 
Q 32.328125 33.6875 34.8125 36.53125 
Q 39.546875 41.84375 41.421875 45.53125 
Q 43.3125 49.21875 43.3125 52.78125 
Q 43.3125 58.59375 39.234375 62.25 
Q 35.15625 65.921875 28.609375 65.921875 
Q 23.96875 65.921875 18.8125 64.3125 
Q 13.671875 62.703125 7.8125 59.421875 
L 7.8125 69.390625 
Q 13.765625 71.78125 18.9375 73 
Q 24.125 74.21875 28.421875 74.21875 
Q 39.75 74.21875 46.484375 68.546875 
Q 53.21875 62.890625 53.21875 53.421875 
Q 53.21875 48.921875 51.53125 44.890625 
Q 49.859375 40.875 45.40625 35.40625 
Q 44.1875 33.984375 37.640625 27.21875 
Q 31.109375 20.453125 19.1875 8.296875 
z
" id="DejaVuSans-50"/>
      </defs>
      <g transform="translate(127.275294 392.598437)scale(0.1 -0.1)">
       <use transform="translate(0 0.765625)" xlink:href="#DejaVuSans-49"/>
       <use transform="translate(63.623047 0.765625)" xlink:href="#DejaVuSans-48"/>
       <use transform="translate(128.203125 39.046875)scale(0.7)" xlink:href="#DejaVuSans-50"/>
      </g>
     </g>
    </g>
    <g id="xtick_3">
     <g id="line2d_3">
      <g>
       <use style="stroke:#000000;stroke-width:0.8;" x="218.150588" xlink:href="#md639e8e928" y="378"/>
      </g>
     </g>
     <g id="text_3">
      <!-- $\mathdefault{10^{3}}$ -->
      <defs>
       <path d="M 40.578125 39.3125 
Q 47.65625 37.796875 51.625 33 
Q 55.609375 28.21875 55.609375 21.1875 
Q 55.609375 10.40625 48.1875 4.484375 
Q 40.765625 -1.421875 27.09375 -1.421875 
Q 22.515625 -1.421875 17.65625 -0.515625 
Q 12.796875 0.390625 7.625 2.203125 
L 7.625 11.71875 
Q 11.71875 9.328125 16.59375 8.109375 
Q 21.484375 6.890625 26.8125 6.890625 
Q 36.078125 6.890625 40.9375 10.546875 
Q 45.796875 14.203125 45.796875 21.1875 
Q 45.796875 27.640625 41.28125 31.265625 
Q 36.765625 34.90625 28.71875 34.90625 
L 20.21875 34.90625 
L 20.21875 43.015625 
L 29.109375 43.015625 
Q 36.375 43.015625 40.234375 45.921875 
Q 44.09375 48.828125 44.09375 54.296875 
Q 44.09375 59.90625 40.109375 62.90625 
Q 36.140625 65.921875 28.71875 65.921875 
Q 24.65625 65.921875 20.015625 65.03125 
Q 15.375 64.15625 9.8125 62.3125 
L 9.8125 71.09375 
Q 15.4375 72.65625 20.34375 73.4375 
Q 25.25 74.21875 29.59375 74.21875 
Q 40.828125 74.21875 47.359375 69.109375 
Q 53.90625 64.015625 53.90625 55.328125 
Q 53.90625 49.265625 50.4375 45.09375 
Q 46.96875 40.921875 40.578125 39.3125 
z
" id="DejaVuSans-51"/>
      </defs>
      <g transform="translate(209.350588 392.598437)scale(0.1 -0.1)">
       <use transform="translate(0 0.765625)" xlink:href="#DejaVuSans-49"/>
       <use transform="translate(63.623047 0.765625)" xlink:href="#DejaVuSans-48"/>
       <use transform="translate(128.203125 39.046875)scale(0.7)" xlink:href="#DejaVuSans-51"/>
      </g>
     </g>
    </g>
    <g id="xtick_4">
     <g id="line2d_4">
      <g>
       <use style="stroke:#000000;stroke-width:0.8;" x="300.225882" xlink:href="#md639e8e928" y="378"/>
      </g>
     </g>
     <g id="text_4">
      <!-- $\mathdefault{10^{4}}$ -->
      <defs>
       <path d="M 37.796875 64.3125 
L 12.890625 25.390625 
L 37.796875 25.390625 
z
M 35.203125 72.90625 
L 47.609375 72.90625 
L 47.609375 25.390625 
L 58.015625 25.390625 
L 58.015625 17.1875 
L 47.609375 17.1875 
L 47.609375 0 
L 37.796875 0 
L 37.796875 17.1875 
L 4.890625 17.1875 
L 4.890625 26.703125 
z
" id="DejaVuSans-52"/>
      </defs>
      <g transform="translate(291.425882 392.598437)scale(0.1 -0.1)">
       <use transform="translate(0 0.684375)" xlink:href="#DejaVuSans-49"/>
       <use transform="translate(63.623047 0.684375)" xlink:href="#DejaVuSans-48"/>
       <use transform="translate(128.203125 38.965625)scale(0.7)" xlink:href="#DejaVuSans-52"/>
      </g>
     </g>
    </g>
    <g id="xtick_5">
     <g id="line2d_5">
      <g>
       <use style="stroke:#000000;stroke-width:0.8;" x="382.301176" xlink:href="#md639e8e928" y="378"/>
      </g>
     </g>
     <g id="text_5">
      <!-- $\mathdefault{10^{5}}$ -->
      <defs>
       <path d="M 10.796875 72.90625 
L 49.515625 72.90625 
L 49.515625 64.59375 
L 19.828125 64.59375 
L 19.828125 46.734375 
Q 21.96875 47.46875 24.109375 47.828125 
Q 26.265625 48.1875 28.421875 48.1875 
Q 40.625 48.1875 47.75 41.5 
Q 54.890625 34.8125 54.890625 23.390625 
Q 54.890625 11.625 47.5625 5.09375 
Q 40.234375 -1.421875 26.90625 -1.421875 
Q 22.3125 -1.421875 17.546875 -0.640625 
Q 12.796875 0.140625 7.71875 1.703125 
L 7.71875 11.625 
Q 12.109375 9.234375 16.796875 8.0625 
Q 21.484375 6.890625 26.703125 6.890625 
Q 35.15625 6.890625 40.078125 11.328125 
Q 45.015625 15.765625 45.015625 23.390625 
Q 45.015625 31 40.078125 35.4375 
Q 35.15625 39.890625 26.703125 39.890625 
Q 22.75 39.890625 18.8125 39.015625 
Q 14.890625 38.140625 10.796875 36.28125 
z
" id="DejaVuSans-53"/>
      </defs>
      <g transform="translate(373.501176 392.598437)scale(0.1 -0.1)">
       <use transform="translate(0 0.684375)" xlink:href="#DejaVuSans-49"/>
       <use transform="translate(63.623047 0.684375)" xlink:href="#DejaVuSans-48"/>
       <use transform="translate(128.203125 38.965625)scale(0.7)" xlink:href="#DejaVuSans-53"/>
      </g>
     </g>
    </g>
    <g id="xtick_6">
     <g id="line2d_6">
      <defs>
       <path d="M 0 0 
L 0 2 
" id="m8ab81a0087" style="stroke:#000000;stroke-width:0.6;"/>
      </defs>
      <g>
       <use style="stroke:#000000;stroke-width:0.6;" x="78.707125" xlink:href="#m8ab81a0087" y="378"/>
      </g>
     </g>
    </g>
    <g id="xtick_7">
     <g id="line2d_7">
      <g>
       <use style="stroke:#000000;stroke-width:0.6;" x="93.159867" xlink:href="#m8ab81a0087" y="378"/>
      </g>
     </g>
    </g>
    <g id="xtick_8">
     <g id="line2d_8">
      <g>
       <use style="stroke:#000000;stroke-width:0.6;" x="103.414251" xlink:href="#m8ab81a0087" y="378"/>
      </g>
     </g>
    </g>
    <g id="xtick_9">
     <g id="line2d_9">
      <g>
       <use style="stroke:#000000;stroke-width:0.6;" x="111.368169" xlink:href="#m8ab81a0087" y="378"/>
      </g>
     </g>
    </g>
    <g id="xtick_10">
     <g id="line2d_10">
      <g>
       <use style="stroke:#000000;stroke-width:0.6;" x="117.866993" xlink:href="#m8ab81a0087" y="378"/>
      </g>
     </g>
    </g>
    <g id="xtick_11">
     <g id="line2d_11">
      <g>
       <use style="stroke:#000000;stroke-width:0.6;" x="123.36167" xlink:href="#m8ab81a0087" y="378"/>
      </g>
     </g>
    </g>
    <g id="xtick_12">
     <g id="line2d_12">
      <g>
       <use style="stroke:#000000;stroke-width:0.6;" x="128.121376" xlink:href="#m8ab81a0087" y="378"/>
      </g>
     </g>
    </g>
    <g id="xtick_13">
     <g id="line2d_13">
      <g>
       <use style="stroke:#000000;stroke-width:0.6;" x="132.319734" xlink:href="#m8ab81a0087" y="378"/>
      </g>
     </g>
    </g>
    <g id="xtick_14">
     <g id="line2d_14">
      <g>
       <use style="stroke:#000000;stroke-width:0.6;" x="160.782419" xlink:href="#m8ab81a0087" y="378"/>
      </g>
     </g>
    </g>
    <g id="xtick_15">
     <g id="line2d_15">
      <g>
       <use style="stroke:#000000;stroke-width:0.6;" x="175.235161" xlink:href="#m8ab81a0087" y="378"/>
      </g>
     </g>
    </g>
    <g id="xtick_16">
     <g id="line2d_16">
      <g>
       <use style="stroke:#000000;stroke-width:0.6;" x="185.489545" xlink:href="#m8ab81a0087" y="378"/>
      </g>
     </g>
    </g>
    <g id="xtick_17">
     <g id="line2d_17">
      <g>
       <use style="stroke:#000000;stroke-width:0.6;" x="193.443463" xlink:href="#m8ab81a0087" y="378"/>
      </g>
     </g>
    </g>
    <g id="xtick_18">
     <g id="line2d_18">
      <g>
       <use style="stroke:#000000;stroke-width:0.6;" x="199.942287" xlink:href="#m8ab81a0087" y="378"/>
      </g>
     </g>
    </g>
    <g id="xtick_19">
     <g id="line2d_19">
      <g>
       <use style="stroke:#000000;stroke-width:0.6;" x="205.436964" xlink:href="#m8ab81a0087" y="378"/>
      </g>
     </g>
    </g>
    <g id="xtick_20">
     <g id="line2d_20">
      <g>
       <use style="stroke:#000000;stroke-width:0.6;" x="210.19667" xlink:href="#m8ab81a0087" y="378"/>
      </g>
     </g>
    </g>
    <g id="xtick_21">
     <g id="line2d_21">
      <g>
       <use style="stroke:#000000;stroke-width:0.6;" x="214.395028" xlink:href="#m8ab81a0087" y="378"/>
      </g>
     </g>
    </g>
    <g id="xtick_22">
     <g id="line2d_22">
      <g>
       <use style="stroke:#000000;stroke-width:0.6;" x="242.857713" xlink:href="#m8ab81a0087" y="378"/>
      </g>
     </g>
    </g>
    <g id="xtick_23">
     <g id="line2d_23">
      <g>
       <use style="stroke:#000000;stroke-width:0.6;" x="257.310455" xlink:href="#m8ab81a0087" y="378"/>
      </g>
     </g>
    </g>
    <g id="xtick_24">
     <g id="line2d_24">
      <g>
       <use style="stroke:#000000;stroke-width:0.6;" x="267.564839" xlink:href="#m8ab81a0087" y="378"/>
      </g>
     </g>
    </g>
    <g id="xtick_25">
     <g id="line2d_25">
      <g>
       <use style="stroke:#000000;stroke-width:0.6;" x="275.518757" xlink:href="#m8ab81a0087" y="378"/>
      </g>
     </g>
    </g>
    <g id="xtick_26">
     <g id="line2d_26">
      <g>
       <use style="stroke:#000000;stroke-width:0.6;" x="282.017581" xlink:href="#m8ab81a0087" y="378"/>
      </g>
     </g>
    </g>
    <g id="xtick_27">
     <g id="line2d_27">
      <g>
       <use style="stroke:#000000;stroke-width:0.6;" x="287.512258" xlink:href="#m8ab81a0087" y="378"/>
      </g>
     </g>
    </g>
    <g id="xtick_28">
     <g id="line2d_28">
      <g>
       <use style="stroke:#000000;stroke-width:0.6;" x="292.271964" xlink:href="#m8ab81a0087" y="378"/>
      </g>
     </g>
    </g>
    <g id="xtick_29">
     <g id="line2d_29">
      <g>
       <use style="stroke:#000000;stroke-width:0.6;" x="296.470322" xlink:href="#m8ab81a0087" y="378"/>
      </g>
     </g>
    </g>
    <g id="xtick_30">
     <g id="line2d_30">
      <g>
       <use style="stroke:#000000;stroke-width:0.6;" x="324.933007" xlink:href="#m8ab81a0087" y="378"/>
      </g>
     </g>
    </g>
    <g id="xtick_31">
     <g id="line2d_31">
      <g>
       <use style="stroke:#000000;stroke-width:0.6;" x="339.385749" xlink:href="#m8ab81a0087" y="378"/>
      </g>
     </g>
    </g>
    <g id="xtick_32">
     <g id="line2d_32">
      <g>
       <use style="stroke:#000000;stroke-width:0.6;" x="349.640133" xlink:href="#m8ab81a0087" y="378"/>
      </g>
     </g>
    </g>
    <g id="xtick_33">
     <g id="line2d_33">
      <g>
       <use style="stroke:#000000;stroke-width:0.6;" x="357.594051" xlink:href="#m8ab81a0087" y="378"/>
      </g>
     </g>
    </g>
    <g id="xtick_34">
     <g id="line2d_34">
      <g>
       <use style="stroke:#000000;stroke-width:0.6;" x="364.092875" xlink:href="#m8ab81a0087" y="378"/>
      </g>
     </g>
    </g>
    <g id="xtick_35">
     <g id="line2d_35">
      <g>
       <use style="stroke:#000000;stroke-width:0.6;" x="369.587552" xlink:href="#m8ab81a0087" y="378"/>
      </g>
     </g>
    </g>
    <g id="xtick_36">
     <g id="line2d_36">
      <g>
       <use style="stroke:#000000;stroke-width:0.6;" x="374.347258" xlink:href="#m8ab81a0087" y="378"/>
      </g>
     </g>
    </g>
    <g id="xtick_37">
     <g id="line2d_37">
      <g>
       <use style="stroke:#000000;stroke-width:0.6;" x="378.545616" xlink:href="#m8ab81a0087" y="378"/>
      </g>
     </g>
    </g>
    <g id="text_6">
     <!-- Number of Permutations $N_p$ -->
     <defs>
      <path d="M 9.8125 72.90625 
L 23.09375 72.90625 
L 55.421875 11.921875 
L 55.421875 72.90625 
L 64.984375 72.90625 
L 64.984375 0 
L 51.703125 0 
L 19.390625 60.984375 
L 19.390625 0 
L 9.8125 0 
z
" id="DejaVuSans-78"/>
      <path d="M 8.5 21.578125 
L 8.5 54.6875 
L 17.484375 54.6875 
L 17.484375 21.921875 
Q 17.484375 14.15625 20.5 10.265625 
Q 23.53125 6.390625 29.59375 6.390625 
Q 36.859375 6.390625 41.078125 11.03125 
Q 45.3125 15.671875 45.3125 23.6875 
L 45.3125 54.6875 
L 54.296875 54.6875 
L 54.296875 0 
L 45.3125 0 
L 45.3125 8.40625 
Q 42.046875 3.421875 37.71875 1 
Q 33.40625 -1.421875 27.6875 -1.421875 
Q 18.265625 -1.421875 13.375 4.4375 
Q 8.5 10.296875 8.5 21.578125 
z
M 31.109375 56 
z
" id="DejaVuSans-117"/>
      <path d="M 52 44.1875 
Q 55.375 50.25 60.0625 53.125 
Q 64.75 56 71.09375 56 
Q 79.640625 56 84.28125 50.015625 
Q 88.921875 44.046875 88.921875 33.015625 
L 88.921875 0 
L 79.890625 0 
L 79.890625 32.71875 
Q 79.890625 40.578125 77.09375 44.375 
Q 74.3125 48.1875 68.609375 48.1875 
Q 61.625 48.1875 57.5625 43.546875 
Q 53.515625 38.921875 53.515625 30.90625 
L 53.515625 0 
L 44.484375 0 
L 44.484375 32.71875 
Q 44.484375 40.625 41.703125 44.40625 
Q 38.921875 48.1875 33.109375 48.1875 
Q 26.21875 48.1875 22.15625 43.53125 
Q 18.109375 38.875 18.109375 30.90625 
L 18.109375 0 
L 9.078125 0 
L 9.078125 54.6875 
L 18.109375 54.6875 
L 18.109375 46.1875 
Q 21.1875 51.21875 25.484375 53.609375 
Q 29.78125 56 35.6875 56 
Q 41.65625 56 45.828125 52.96875 
Q 50 49.953125 52 44.1875 
z
" id="DejaVuSans-109"/>
      <path d="M 48.6875 27.296875 
Q 48.6875 37.203125 44.609375 42.84375 
Q 40.53125 48.484375 33.40625 48.484375 
Q 26.265625 48.484375 22.1875 42.84375 
Q 18.109375 37.203125 18.109375 27.296875 
Q 18.109375 17.390625 22.1875 11.75 
Q 26.265625 6.109375 33.40625 6.109375 
Q 40.53125 6.109375 44.609375 11.75 
Q 48.6875 17.390625 48.6875 27.296875 
z
M 18.109375 46.390625 
Q 20.953125 51.265625 25.265625 53.625 
Q 29.59375 56 35.59375 56 
Q 45.5625 56 51.78125 48.09375 
Q 58.015625 40.1875 58.015625 27.296875 
Q 58.015625 14.40625 51.78125 6.484375 
Q 45.5625 -1.421875 35.59375 -1.421875 
Q 29.59375 -1.421875 25.265625 0.953125 
Q 20.953125 3.328125 18.109375 8.203125 
L 18.109375 0 
L 9.078125 0 
L 9.078125 75.984375 
L 18.109375 75.984375 
z
" id="DejaVuSans-98"/>
      <path d="M 56.203125 29.59375 
L 56.203125 25.203125 
L 14.890625 25.203125 
Q 15.484375 15.921875 20.484375 11.0625 
Q 25.484375 6.203125 34.421875 6.203125 
Q 39.59375 6.203125 44.453125 7.46875 
Q 49.3125 8.734375 54.109375 11.28125 
L 54.109375 2.78125 
Q 49.265625 0.734375 44.1875 -0.34375 
Q 39.109375 -1.421875 33.890625 -1.421875 
Q 20.796875 -1.421875 13.15625 6.1875 
Q 5.515625 13.8125 5.515625 26.8125 
Q 5.515625 40.234375 12.765625 48.109375 
Q 20.015625 56 32.328125 56 
Q 43.359375 56 49.78125 48.890625 
Q 56.203125 41.796875 56.203125 29.59375 
z
M 47.21875 32.234375 
Q 47.125 39.59375 43.09375 43.984375 
Q 39.0625 48.390625 32.421875 48.390625 
Q 24.90625 48.390625 20.390625 44.140625 
Q 15.875 39.890625 15.1875 32.171875 
z
" id="DejaVuSans-101"/>
      <path d="M 41.109375 46.296875 
Q 39.59375 47.171875 37.8125 47.578125 
Q 36.03125 48 33.890625 48 
Q 26.265625 48 22.1875 43.046875 
Q 18.109375 38.09375 18.109375 28.8125 
L 18.109375 0 
L 9.078125 0 
L 9.078125 54.6875 
L 18.109375 54.6875 
L 18.109375 46.1875 
Q 20.953125 51.171875 25.484375 53.578125 
Q 30.03125 56 36.53125 56 
Q 37.453125 56 38.578125 55.875 
Q 39.703125 55.765625 41.0625 55.515625 
z
" id="DejaVuSans-114"/>
      <path id="DejaVuSans-32"/>
      <path d="M 30.609375 48.390625 
Q 23.390625 48.390625 19.1875 42.75 
Q 14.984375 37.109375 14.984375 27.296875 
Q 14.984375 17.484375 19.15625 11.84375 
Q 23.34375 6.203125 30.609375 6.203125 
Q 37.796875 6.203125 41.984375 11.859375 
Q 46.1875 17.53125 46.1875 27.296875 
Q 46.1875 37.015625 41.984375 42.703125 
Q 37.796875 48.390625 30.609375 48.390625 
z
M 30.609375 56 
Q 42.328125 56 49.015625 48.375 
Q 55.71875 40.765625 55.71875 27.296875 
Q 55.71875 13.875 49.015625 6.21875 
Q 42.328125 -1.421875 30.609375 -1.421875 
Q 18.84375 -1.421875 12.171875 6.21875 
Q 5.515625 13.875 5.515625 27.296875 
Q 5.515625 40.765625 12.171875 48.375 
Q 18.84375 56 30.609375 56 
z
" id="DejaVuSans-111"/>
      <path d="M 37.109375 75.984375 
L 37.109375 68.5 
L 28.515625 68.5 
Q 23.6875 68.5 21.796875 66.546875 
Q 19.921875 64.59375 19.921875 59.515625 
L 19.921875 54.6875 
L 34.71875 54.6875 
L 34.71875 47.703125 
L 19.921875 47.703125 
L 19.921875 0 
L 10.890625 0 
L 10.890625 47.703125 
L 2.296875 47.703125 
L 2.296875 54.6875 
L 10.890625 54.6875 
L 10.890625 58.5 
Q 10.890625 67.625 15.140625 71.796875 
Q 19.390625 75.984375 28.609375 75.984375 
z
" id="DejaVuSans-102"/>
      <path d="M 19.671875 64.796875 
L 19.671875 37.40625 
L 32.078125 37.40625 
Q 38.96875 37.40625 42.71875 40.96875 
Q 46.484375 44.53125 46.484375 51.125 
Q 46.484375 57.671875 42.71875 61.234375 
Q 38.96875 64.796875 32.078125 64.796875 
z
M 9.8125 72.90625 
L 32.078125 72.90625 
Q 44.34375 72.90625 50.609375 67.359375 
Q 56.890625 61.8125 56.890625 51.125 
Q 56.890625 40.328125 50.609375 34.8125 
Q 44.34375 29.296875 32.078125 29.296875 
L 19.671875 29.296875 
L 19.671875 0 
L 9.8125 0 
z
" id="DejaVuSans-80"/>
      <path d="M 18.3125 70.21875 
L 18.3125 54.6875 
L 36.8125 54.6875 
L 36.8125 47.703125 
L 18.3125 47.703125 
L 18.3125 18.015625 
Q 18.3125 11.328125 20.140625 9.421875 
Q 21.96875 7.515625 27.59375 7.515625 
L 36.8125 7.515625 
L 36.8125 0 
L 27.59375 0 
Q 17.1875 0 13.234375 3.875 
Q 9.28125 7.765625 9.28125 18.015625 
L 9.28125 47.703125 
L 2.6875 47.703125 
L 2.6875 54.6875 
L 9.28125 54.6875 
L 9.28125 70.21875 
z
" id="DejaVuSans-116"/>
      <path d="M 34.28125 27.484375 
Q 23.390625 27.484375 19.1875 25 
Q 14.984375 22.515625 14.984375 16.5 
Q 14.984375 11.71875 18.140625 8.90625 
Q 21.296875 6.109375 26.703125 6.109375 
Q 34.1875 6.109375 38.703125 11.40625 
Q 43.21875 16.703125 43.21875 25.484375 
L 43.21875 27.484375 
z
M 52.203125 31.203125 
L 52.203125 0 
L 43.21875 0 
L 43.21875 8.296875 
Q 40.140625 3.328125 35.546875 0.953125 
Q 30.953125 -1.421875 24.3125 -1.421875 
Q 15.921875 -1.421875 10.953125 3.296875 
Q 6 8.015625 6 15.921875 
Q 6 25.140625 12.171875 29.828125 
Q 18.359375 34.515625 30.609375 34.515625 
L 43.21875 34.515625 
L 43.21875 35.40625 
Q 43.21875 41.609375 39.140625 45 
Q 35.0625 48.390625 27.6875 48.390625 
Q 23 48.390625 18.546875 47.265625 
Q 14.109375 46.140625 10.015625 43.890625 
L 10.015625 52.203125 
Q 14.9375 54.109375 19.578125 55.046875 
Q 24.21875 56 28.609375 56 
Q 40.484375 56 46.34375 49.84375 
Q 52.203125 43.703125 52.203125 31.203125 
z
" id="DejaVuSans-97"/>
      <path d="M 9.421875 54.6875 
L 18.40625 54.6875 
L 18.40625 0 
L 9.421875 0 
z
M 9.421875 75.984375 
L 18.40625 75.984375 
L 18.40625 64.59375 
L 9.421875 64.59375 
z
" id="DejaVuSans-105"/>
      <path d="M 54.890625 33.015625 
L 54.890625 0 
L 45.90625 0 
L 45.90625 32.71875 
Q 45.90625 40.484375 42.875 44.328125 
Q 39.84375 48.1875 33.796875 48.1875 
Q 26.515625 48.1875 22.3125 43.546875 
Q 18.109375 38.921875 18.109375 30.90625 
L 18.109375 0 
L 9.078125 0 
L 9.078125 54.6875 
L 18.109375 54.6875 
L 18.109375 46.1875 
Q 21.34375 51.125 25.703125 53.5625 
Q 30.078125 56 35.796875 56 
Q 45.21875 56 50.046875 50.171875 
Q 54.890625 44.34375 54.890625 33.015625 
z
" id="DejaVuSans-110"/>
      <path d="M 44.28125 53.078125 
L 44.28125 44.578125 
Q 40.484375 46.53125 36.375 47.5 
Q 32.28125 48.484375 27.875 48.484375 
Q 21.1875 48.484375 17.84375 46.4375 
Q 14.5 44.390625 14.5 40.28125 
Q 14.5 37.15625 16.890625 35.375 
Q 19.28125 33.59375 26.515625 31.984375 
L 29.59375 31.296875 
Q 39.15625 29.25 43.1875 25.515625 
Q 47.21875 21.78125 47.21875 15.09375 
Q 47.21875 7.46875 41.1875 3.015625 
Q 35.15625 -1.421875 24.609375 -1.421875 
Q 20.21875 -1.421875 15.453125 -0.5625 
Q 10.6875 0.296875 5.421875 2 
L 5.421875 11.28125 
Q 10.40625 8.6875 15.234375 7.390625 
Q 20.0625 6.109375 24.8125 6.109375 
Q 31.15625 6.109375 34.5625 8.28125 
Q 37.984375 10.453125 37.984375 14.40625 
Q 37.984375 18.0625 35.515625 20.015625 
Q 33.0625 21.96875 24.703125 23.78125 
L 21.578125 24.515625 
Q 13.234375 26.265625 9.515625 29.90625 
Q 5.8125 33.546875 5.8125 39.890625 
Q 5.8125 47.609375 11.28125 51.796875 
Q 16.75 56 26.8125 56 
Q 31.78125 56 36.171875 55.265625 
Q 40.578125 54.546875 44.28125 53.078125 
z
" id="DejaVuSans-115"/>
      <path d="M 16.890625 72.90625 
L 30.171875 72.90625 
L 50.296875 10.40625 
L 62.5 72.90625 
L 72.125 72.90625 
L 57.90625 0 
L 44.578125 0 
L 24.515625 62.890625 
L 12.3125 0 
L 2.6875 0 
z
" id="DejaVuSans-Oblique-78"/>
      <path d="M 49.609375 33.6875 
Q 49.609375 40.875 46.484375 44.671875 
Q 43.359375 48.484375 37.5 48.484375 
Q 33.5 48.484375 29.859375 46.4375 
Q 26.21875 44.390625 23.390625 40.484375 
Q 20.609375 36.625 18.9375 31.15625 
Q 17.28125 25.6875 17.28125 20.3125 
Q 17.28125 13.484375 20.40625 9.796875 
Q 23.53125 6.109375 29.296875 6.109375 
Q 33.546875 6.109375 37.1875 8.109375 
Q 40.828125 10.109375 43.40625 13.921875 
Q 46.1875 17.921875 47.890625 23.34375 
Q 49.609375 28.765625 49.609375 33.6875 
z
M 21.78125 46.390625 
Q 25.390625 51.125 30.296875 53.5625 
Q 35.203125 56 41.21875 56 
Q 49.609375 56 54.25 50.5 
Q 58.890625 45.015625 58.890625 35.109375 
Q 58.890625 27 56 19.65625 
Q 53.125 12.3125 47.703125 6.5 
Q 44.09375 2.640625 39.546875 0.609375 
Q 35.015625 -1.421875 29.984375 -1.421875 
Q 24.171875 -1.421875 20.21875 1 
Q 16.265625 3.421875 14.3125 8.203125 
L 8.6875 -20.796875 
L -0.296875 -20.796875 
L 14.40625 54.6875 
L 23.390625 54.6875 
z
" id="DejaVuSans-Oblique-112"/>
     </defs>
     <g transform="translate(138.36 407.798125)scale(0.12 -0.12)">
      <use transform="translate(0 0.015625)" xlink:href="#DejaVuSans-78"/>
      <use transform="translate(74.804688 0.015625)" xlink:href="#DejaVuSans-117"/>
      <use transform="translate(138.183594 0.015625)" xlink:href="#DejaVuSans-109"/>
      <use transform="translate(235.595703 0.015625)" xlink:href="#DejaVuSans-98"/>
      <use transform="translate(299.072266 0.015625)" xlink:href="#DejaVuSans-101"/>
      <use transform="translate(360.595703 0.015625)" xlink:href="#DejaVuSans-114"/>
      <use transform="translate(401.708984 0.015625)" xlink:href="#DejaVuSans-32"/>
      <use transform="translate(433.496094 0.015625)" xlink:href="#DejaVuSans-111"/>
      <use transform="translate(494.677734 0.015625)" xlink:href="#DejaVuSans-102"/>
      <use transform="translate(529.882812 0.015625)" xlink:href="#DejaVuSans-32"/>
      <use transform="translate(561.669922 0.015625)" xlink:href="#DejaVuSans-80"/>
      <use transform="translate(621.972656 0.015625)" xlink:href="#DejaVuSans-101"/>
      <use transform="translate(683.496094 0.015625)" xlink:href="#DejaVuSans-114"/>
      <use transform="translate(724.609375 0.015625)" xlink:href="#DejaVuSans-109"/>
      <use transform="translate(822.021484 0.015625)" xlink:href="#DejaVuSans-117"/>
      <use transform="translate(885.400391 0.015625)" xlink:href="#DejaVuSans-116"/>
      <use transform="translate(924.609375 0.015625)" xlink:href="#DejaVuSans-97"/>
      <use transform="translate(985.888672 0.015625)" xlink:href="#DejaVuSans-116"/>
      <use transform="translate(1025.097656 0.015625)" xlink:href="#DejaVuSans-105"/>
      <use transform="translate(1052.880859 0.015625)" xlink:href="#DejaVuSans-111"/>
      <use transform="translate(1114.0625 0.015625)" xlink:href="#DejaVuSans-110"/>
      <use transform="translate(1177.441406 0.015625)" xlink:href="#DejaVuSans-115"/>
      <use transform="translate(1229.541016 0.015625)" xlink:href="#DejaVuSans-32"/>
      <use transform="translate(1261.328125 0.015625)" xlink:href="#DejaVuSans-Oblique-78"/>
      <use transform="translate(1336.132812 -16.390625)scale(0.7)" xlink:href="#DejaVuSans-Oblique-112"/>
     </g>
    </g>
   </g>
   <g id="matplotlib.axis_2">
    <g id="ytick_1">
     <g id="line2d_38">
      <defs>
       <path d="M 0 0 
L -3.5 0 
" id="mcfa84e9453" style="stroke:#000000;stroke-width:0.8;"/>
      </defs>
      <g>
       <use style="stroke:#000000;stroke-width:0.8;" x="54" xlink:href="#mcfa84e9453" y="373.406197"/>
      </g>
     </g>
     <g id="text_7">
      <!-- 0.0 -->
      <defs>
       <path d="M 10.6875 12.40625 
L 21 12.40625 
L 21 0 
L 10.6875 0 
z
" id="DejaVuSans-46"/>
      </defs>
      <g transform="translate(31.096875 377.205416)scale(0.1 -0.1)">
       <use xlink:href="#DejaVuSans-48"/>
       <use x="63.623047" xlink:href="#DejaVuSans-46"/>
       <use x="95.410156" xlink:href="#DejaVuSans-48"/>
      </g>
     </g>
    </g>
    <g id="ytick_2">
     <g id="line2d_39">
      <g>
       <use style="stroke:#000000;stroke-width:0.8;" x="54" xlink:href="#mcfa84e9453" y="327.468169"/>
      </g>
     </g>
     <g id="text_8">
      <!-- 0.1 -->
      <g transform="translate(31.096875 331.267388)scale(0.1 -0.1)">
       <use xlink:href="#DejaVuSans-48"/>
       <use x="63.623047" xlink:href="#DejaVuSans-46"/>
       <use x="95.410156" xlink:href="#DejaVuSans-49"/>
      </g>
     </g>
    </g>
    <g id="ytick_3">
     <g id="line2d_40">
      <g>
       <use style="stroke:#000000;stroke-width:0.8;" x="54" xlink:href="#mcfa84e9453" y="281.530141"/>
      </g>
     </g>
     <g id="text_9">
      <!-- 0.2 -->
      <g transform="translate(31.096875 285.32936)scale(0.1 -0.1)">
       <use xlink:href="#DejaVuSans-48"/>
       <use x="63.623047" xlink:href="#DejaVuSans-46"/>
       <use x="95.410156" xlink:href="#DejaVuSans-50"/>
      </g>
     </g>
    </g>
    <g id="ytick_4">
     <g id="line2d_41">
      <g>
       <use style="stroke:#000000;stroke-width:0.8;" x="54" xlink:href="#mcfa84e9453" y="235.592113"/>
      </g>
     </g>
     <g id="text_10">
      <!-- 0.3 -->
      <g transform="translate(31.096875 239.391331)scale(0.1 -0.1)">
       <use xlink:href="#DejaVuSans-48"/>
       <use x="63.623047" xlink:href="#DejaVuSans-46"/>
       <use x="95.410156" xlink:href="#DejaVuSans-51"/>
      </g>
     </g>
    </g>
    <g id="ytick_5">
     <g id="line2d_42">
      <g>
       <use style="stroke:#000000;stroke-width:0.8;" x="54" xlink:href="#mcfa84e9453" y="189.654085"/>
      </g>
     </g>
     <g id="text_11">
      <!-- 0.4 -->
      <g transform="translate(31.096875 193.453303)scale(0.1 -0.1)">
       <use xlink:href="#DejaVuSans-48"/>
       <use x="63.623047" xlink:href="#DejaVuSans-46"/>
       <use x="95.410156" xlink:href="#DejaVuSans-52"/>
      </g>
     </g>
    </g>
    <g id="ytick_6">
     <g id="line2d_43">
      <g>
       <use style="stroke:#000000;stroke-width:0.8;" x="54" xlink:href="#mcfa84e9453" y="143.716056"/>
      </g>
     </g>
     <g id="text_12">
      <!-- 0.5 -->
      <g transform="translate(31.096875 147.515275)scale(0.1 -0.1)">
       <use xlink:href="#DejaVuSans-48"/>
       <use x="63.623047" xlink:href="#DejaVuSans-46"/>
       <use x="95.410156" xlink:href="#DejaVuSans-53"/>
      </g>
     </g>
    </g>
    <g id="ytick_7">
     <g id="line2d_44">
      <g>
       <use style="stroke:#000000;stroke-width:0.8;" x="54" xlink:href="#mcfa84e9453" y="97.778028"/>
      </g>
     </g>
     <g id="text_13">
      <!-- 0.6 -->
      <defs>
       <path d="M 33.015625 40.375 
Q 26.375 40.375 22.484375 35.828125 
Q 18.609375 31.296875 18.609375 23.390625 
Q 18.609375 15.53125 22.484375 10.953125 
Q 26.375 6.390625 33.015625 6.390625 
Q 39.65625 6.390625 43.53125 10.953125 
Q 47.40625 15.53125 47.40625 23.390625 
Q 47.40625 31.296875 43.53125 35.828125 
Q 39.65625 40.375 33.015625 40.375 
z
M 52.59375 71.296875 
L 52.59375 62.3125 
Q 48.875 64.0625 45.09375 64.984375 
Q 41.3125 65.921875 37.59375 65.921875 
Q 27.828125 65.921875 22.671875 59.328125 
Q 17.53125 52.734375 16.796875 39.40625 
Q 19.671875 43.65625 24.015625 45.921875 
Q 28.375 48.1875 33.59375 48.1875 
Q 44.578125 48.1875 50.953125 41.515625 
Q 57.328125 34.859375 57.328125 23.390625 
Q 57.328125 12.15625 50.6875 5.359375 
Q 44.046875 -1.421875 33.015625 -1.421875 
Q 20.359375 -1.421875 13.671875 8.265625 
Q 6.984375 17.96875 6.984375 36.375 
Q 6.984375 53.65625 15.1875 63.9375 
Q 23.390625 74.21875 37.203125 74.21875 
Q 40.921875 74.21875 44.703125 73.484375 
Q 48.484375 72.75 52.59375 71.296875 
z
" id="DejaVuSans-54"/>
      </defs>
      <g transform="translate(31.096875 101.577247)scale(0.1 -0.1)">
       <use xlink:href="#DejaVuSans-48"/>
       <use x="63.623047" xlink:href="#DejaVuSans-46"/>
       <use x="95.410156" xlink:href="#DejaVuSans-54"/>
      </g>
     </g>
    </g>
    <g id="ytick_8">
     <g id="line2d_45">
      <g>
       <use style="stroke:#000000;stroke-width:0.8;" x="54" xlink:href="#mcfa84e9453" y="51.84"/>
      </g>
     </g>
     <g id="text_14">
      <!-- 0.7 -->
      <defs>
       <path d="M 8.203125 72.90625 
L 55.078125 72.90625 
L 55.078125 68.703125 
L 28.609375 0 
L 18.3125 0 
L 43.21875 64.59375 
L 8.203125 64.59375 
z
" id="DejaVuSans-55"/>
      </defs>
      <g transform="translate(31.096875 55.639219)scale(0.1 -0.1)">
       <use xlink:href="#DejaVuSans-48"/>
       <use x="63.623047" xlink:href="#DejaVuSans-46"/>
       <use x="95.410156" xlink:href="#DejaVuSans-55"/>
      </g>
     </g>
    </g>
    <g id="text_15">
     <!-- Time per permutation (s) -->
     <defs>
      <path d="M -0.296875 72.90625 
L 61.375 72.90625 
L 61.375 64.59375 
L 35.5 64.59375 
L 35.5 0 
L 25.59375 0 
L 25.59375 64.59375 
L -0.296875 64.59375 
z
" id="DejaVuSans-84"/>
      <path d="M 18.109375 8.203125 
L 18.109375 -20.796875 
L 9.078125 -20.796875 
L 9.078125 54.6875 
L 18.109375 54.6875 
L 18.109375 46.390625 
Q 20.953125 51.265625 25.265625 53.625 
Q 29.59375 56 35.59375 56 
Q 45.5625 56 51.78125 48.09375 
Q 58.015625 40.1875 58.015625 27.296875 
Q 58.015625 14.40625 51.78125 6.484375 
Q 45.5625 -1.421875 35.59375 -1.421875 
Q 29.59375 -1.421875 25.265625 0.953125 
Q 20.953125 3.328125 18.109375 8.203125 
z
M 48.6875 27.296875 
Q 48.6875 37.203125 44.609375 42.84375 
Q 40.53125 48.484375 33.40625 48.484375 
Q 26.265625 48.484375 22.1875 42.84375 
Q 18.109375 37.203125 18.109375 27.296875 
Q 18.109375 17.390625 22.1875 11.75 
Q 26.265625 6.109375 33.40625 6.109375 
Q 40.53125 6.109375 44.609375 11.75 
Q 48.6875 17.390625 48.6875 27.296875 
z
" id="DejaVuSans-112"/>
      <path d="M 31 75.875 
Q 24.46875 64.65625 21.28125 53.65625 
Q 18.109375 42.671875 18.109375 31.390625 
Q 18.109375 20.125 21.3125 9.0625 
Q 24.515625 -2 31 -13.1875 
L 23.1875 -13.1875 
Q 15.875 -1.703125 12.234375 9.375 
Q 8.59375 20.453125 8.59375 31.390625 
Q 8.59375 42.28125 12.203125 53.3125 
Q 15.828125 64.359375 23.1875 75.875 
z
" id="DejaVuSans-40"/>
      <path d="M 8.015625 75.875 
L 15.828125 75.875 
Q 23.140625 64.359375 26.78125 53.3125 
Q 30.421875 42.28125 30.421875 31.390625 
Q 30.421875 20.453125 26.78125 9.375 
Q 23.140625 -1.703125 15.828125 -13.1875 
L 8.015625 -13.1875 
Q 14.5 -2 17.703125 9.0625 
Q 20.90625 20.125 20.90625 31.390625 
Q 20.90625 42.671875 17.703125 53.65625 
Q 14.5 64.65625 8.015625 75.875 
z
" id="DejaVuSans-41"/>
     </defs>
     <g transform="translate(24.60125 290.127187)rotate(-90)scale(0.12 -0.12)">
      <use xlink:href="#DejaVuSans-84"/>
      <use x="57.958984" xlink:href="#DejaVuSans-105"/>
      <use x="85.742188" xlink:href="#DejaVuSans-109"/>
      <use x="183.154297" xlink:href="#DejaVuSans-101"/>
      <use x="244.677734" xlink:href="#DejaVuSans-32"/>
      <use x="276.464844" xlink:href="#DejaVuSans-112"/>
      <use x="339.941406" xlink:href="#DejaVuSans-101"/>
      <use x="401.464844" xlink:href="#DejaVuSans-114"/>
      <use x="442.578125" xlink:href="#DejaVuSans-32"/>
      <use x="474.365234" xlink:href="#DejaVuSans-112"/>
      <use x="537.841797" xlink:href="#DejaVuSans-101"/>
      <use x="599.365234" xlink:href="#DejaVuSans-114"/>
      <use x="638.728516" xlink:href="#DejaVuSans-109"/>
      <use x="736.140625" xlink:href="#DejaVuSans-117"/>
      <use x="799.519531" xlink:href="#DejaVuSans-116"/>
      <use x="838.728516" xlink:href="#DejaVuSans-97"/>
      <use x="900.007812" xlink:href="#DejaVuSans-116"/>
      <use x="939.216797" xlink:href="#DejaVuSans-105"/>
      <use x="967" xlink:href="#DejaVuSans-111"/>
      <use x="1028.181641" xlink:href="#DejaVuSans-110"/>
      <use x="1091.560547" xlink:href="#DejaVuSans-32"/>
      <use x="1123.347656" xlink:href="#DejaVuSans-40"/>
      <use x="1162.361328" xlink:href="#DejaVuSans-115"/>
      <use x="1214.460938" xlink:href="#DejaVuSans-41"/>
     </g>
    </g>
   </g>
   <g id="line2d_46">
    <defs>
     <path d="M 0 1.5 
C 0.397805 1.5 0.77937 1.341951 1.06066 1.06066 
C 1.341951 0.77937 1.5 0.397805 1.5 0 
C 1.5 -0.397805 1.341951 -0.77937 1.06066 -1.06066 
C 0.77937 -1.341951 0.397805 -1.5 0 -1.5 
C -0.397805 -1.5 -0.77937 -1.341951 -1.06066 -1.06066 
C -1.341951 -0.77937 -1.5 -0.397805 -1.5 0 
C -1.5 0.397805 -1.341951 0.77937 -1.06066 1.06066 
C -0.77937 1.341951 -0.397805 1.5 0 1.5 
z
" id="mff14209330" style="stroke:#1f77b4;"/>
    </defs>
    <g clip-path="url(#p2147625ddf)">
     <use style="fill:#1f77b4;stroke:#1f77b4;" x="54" xlink:href="#mff14209330" y="341.963633"/>
     <use style="fill:#1f77b4;stroke:#1f77b4;" x="57.397317" xlink:href="#mff14209330" y="340.758116"/>
     <use style="fill:#1f77b4;stroke:#1f77b4;" x="60.498824" xlink:href="#mff14209330" y="337.112134"/>
     <use style="fill:#1f77b4;stroke:#1f77b4;" x="63.351934" xlink:href="#mff14209330" y="336.522858"/>
     <use style="fill:#1f77b4;stroke:#1f77b4;" x="65.993501" xlink:href="#mff14209330" y="333.314581"/>
     <use style="fill:#1f77b4;stroke:#1f77b4;" x="68.452742" xlink:href="#mff14209330" y="330.877895"/>
     <use style="fill:#1f77b4;stroke:#1f77b4;" x="70.753208" xlink:href="#mff14209330" y="326.962745"/>
     <use style="fill:#1f77b4;stroke:#1f77b4;" x="72.914163" xlink:href="#mff14209330" y="325.435312"/>
     <use style="fill:#1f77b4;stroke:#1f77b4;" x="74.951566" xlink:href="#mff14209330" y="321.303391"/>
     <use style="fill:#1f77b4;stroke:#1f77b4;" x="76.878784" xlink:href="#mff14209330" y="317.714603"/>
     <use style="fill:#1f77b4;stroke:#1f77b4;" x="78.707125" xlink:href="#mff14209330" y="314.317899"/>
     <use style="fill:#1f77b4;stroke:#1f77b4;" x="80.446243" xlink:href="#mff14209330" y="311.179872"/>
     <use style="fill:#1f77b4;stroke:#1f77b4;" x="82.104442" xlink:href="#mff14209330" y="305.973676"/>
     <use style="fill:#1f77b4;stroke:#1f77b4;" x="83.688918" xlink:href="#mff14209330" y="298.105459"/>
     <use style="fill:#1f77b4;stroke:#1f77b4;" x="85.205949" xlink:href="#mff14209330" y="299.496687"/>
     <use style="fill:#1f77b4;stroke:#1f77b4;" x="86.661043" xlink:href="#mff14209330" y="300.077508"/>
     <use style="fill:#1f77b4;stroke:#1f77b4;" x="88.05906" xlink:href="#mff14209330" y="298.406411"/>
     <use style="fill:#1f77b4;stroke:#1f77b4;" x="89.404308" xlink:href="#mff14209330" y="294.925615"/>
     <use style="fill:#1f77b4;stroke:#1f77b4;" x="90.700627" xlink:href="#mff14209330" y="292.38741"/>
     <use style="fill:#1f77b4;stroke:#1f77b4;" x="91.951452" xlink:href="#mff14209330" y="284.773794"/>
     <use style="fill:#1f77b4;stroke:#1f77b4;" x="93.159867" xlink:href="#mff14209330" y="286.930863"/>
     <use style="fill:#1f77b4;stroke:#1f77b4;" x="94.328655" xlink:href="#mff14209330" y="283.128776"/>
     <use style="fill:#1f77b4;stroke:#1f77b4;" x="95.460333" xlink:href="#mff14209330" y="278.805591"/>
     <use style="fill:#1f77b4;stroke:#1f77b4;" x="96.557184" xlink:href="#mff14209330" y="272.965871"/>
     <use style="fill:#1f77b4;stroke:#1f77b4;" x="97.621288" xlink:href="#mff14209330" y="274.021745"/>
     <use style="fill:#1f77b4;stroke:#1f77b4;" x="98.654545" xlink:href="#mff14209330" y="272.625687"/>
     <use style="fill:#1f77b4;stroke:#1f77b4;" x="99.658691" xlink:href="#mff14209330" y="266.073881"/>
     <use style="fill:#1f77b4;stroke:#1f77b4;" x="100.635324" xlink:href="#mff14209330" y="266.024869"/>
     <use style="fill:#1f77b4;stroke:#1f77b4;" x="101.585909" xlink:href="#mff14209330" y="267.024874"/>
     <use style="fill:#1f77b4;stroke:#1f77b4;" x="102.511801" xlink:href="#mff14209330" y="260.938669"/>
     <use style="fill:#1f77b4;stroke:#1f77b4;" x="103.414251" xlink:href="#mff14209330" y="260.055133"/>
     <use style="fill:#1f77b4;stroke:#1f77b4;" x="104.294415" xlink:href="#mff14209330" y="255.293947"/>
     <use style="fill:#1f77b4;stroke:#1f77b4;" x="105.153369" xlink:href="#mff14209330" y="252.56368"/>
     <use style="fill:#1f77b4;stroke:#1f77b4;" x="105.99211" xlink:href="#mff14209330" y="246.554668"/>
     <use style="fill:#1f77b4;stroke:#1f77b4;" x="106.811568" xlink:href="#mff14209330" y="243.370454"/>
     <use style="fill:#1f77b4;stroke:#1f77b4;" x="107.612609" xlink:href="#mff14209330" y="240.08091"/>
     <use style="fill:#1f77b4;stroke:#1f77b4;" x="108.396044" xlink:href="#mff14209330" y="236.688281"/>
     <use style="fill:#1f77b4;stroke:#1f77b4;" x="109.162629" xlink:href="#mff14209330" y="229.690906"/>
     <use style="fill:#1f77b4;stroke:#1f77b4;" x="109.913075" xlink:href="#mff14209330" y="227.701651"/>
     <use style="fill:#1f77b4;stroke:#1f77b4;" x="110.648046" xlink:href="#mff14209330" y="229.952298"/>
     <use style="fill:#1f77b4;stroke:#1f77b4;" x="111.368169" xlink:href="#mff14209330" y="232.992585"/>
     <use style="fill:#1f77b4;stroke:#1f77b4;" x="112.07403" xlink:href="#mff14209330" y="231.114323"/>
     <use style="fill:#1f77b4;stroke:#1f77b4;" x="112.766185" xlink:href="#mff14209330" y="215.876938"/>
     <use style="fill:#1f77b4;stroke:#1f77b4;" x="113.445155" xlink:href="#mff14209330" y="210.824296"/>
     <use style="fill:#1f77b4;stroke:#1f77b4;" x="114.111433" xlink:href="#mff14209330" y="217.865875"/>
     <use style="fill:#1f77b4;stroke:#1f77b4;" x="114.765485" xlink:href="#mff14209330" y="213.774905"/>
     <use style="fill:#1f77b4;stroke:#1f77b4;" x="115.407752" xlink:href="#mff14209330" y="209.579295"/>
     <use style="fill:#1f77b4;stroke:#1f77b4;" x="116.038651" xlink:href="#mff14209330" y="209.108656"/>
     <use style="fill:#1f77b4;stroke:#1f77b4;" x="116.658577" xlink:href="#mff14209330" y="206.9269"/>
     <use style="fill:#1f77b4;stroke:#1f77b4;" x="117.267905" xlink:href="#mff14209330" y="209.198039"/>
     <use style="fill:#1f77b4;stroke:#1f77b4;" x="117.866993" xlink:href="#mff14209330" y="208.777869"/>
     <use style="fill:#1f77b4;stroke:#1f77b4;" x="118.456177" xlink:href="#mff14209330" y="203.978471"/>
     <use style="fill:#1f77b4;stroke:#1f77b4;" x="119.035781" xlink:href="#mff14209330" y="205.130245"/>
     <use style="fill:#1f77b4;stroke:#1f77b4;" x="119.606111" xlink:href="#mff14209330" y="202.541035"/>
     <use style="fill:#1f77b4;stroke:#1f77b4;" x="120.167458" xlink:href="#mff14209330" y="200.743382"/>
     <use style="fill:#1f77b4;stroke:#1f77b4;" x="120.720103" xlink:href="#mff14209330" y="198.392279"/>
     <use style="fill:#1f77b4;stroke:#1f77b4;" x="121.264309" xlink:href="#mff14209330" y="195.41004"/>
     <use style="fill:#1f77b4;stroke:#1f77b4;" x="121.800332" xlink:href="#mff14209330" y="193.55952"/>
     <use style="fill:#1f77b4;stroke:#1f77b4;" x="122.328414" xlink:href="#mff14209330" y="190.046293"/>
     <use style="fill:#1f77b4;stroke:#1f77b4;" x="122.848786" xlink:href="#mff14209330" y="184.02704"/>
     <use style="fill:#1f77b4;stroke:#1f77b4;" x="123.36167" xlink:href="#mff14209330" y="182.343064"/>
     <use style="fill:#1f77b4;stroke:#1f77b4;" x="123.867279" xlink:href="#mff14209330" y="178.58564"/>
     <use style="fill:#1f77b4;stroke:#1f77b4;" x="124.365817" xlink:href="#mff14209330" y="176.284481"/>
     <use style="fill:#1f77b4;stroke:#1f77b4;" x="124.857478" xlink:href="#mff14209330" y="169.786024"/>
     <use style="fill:#1f77b4;stroke:#1f77b4;" x="125.342449" xlink:href="#mff14209330" y="161.401441"/>
     <use style="fill:#1f77b4;stroke:#1f77b4;" x="125.82091" xlink:href="#mff14209330" y="157.023954"/>
     <use style="fill:#1f77b4;stroke:#1f77b4;" x="126.293035" xlink:href="#mff14209330" y="142.610184"/>
     <use style="fill:#1f77b4;stroke:#1f77b4;" x="126.758987" xlink:href="#mff14209330" y="161.871916"/>
     <use style="fill:#1f77b4;stroke:#1f77b4;" x="127.218927" xlink:href="#mff14209330" y="152.124494"/>
     <use style="fill:#1f77b4;stroke:#1f77b4;" x="127.673007" xlink:href="#mff14209330" y="148.241446"/>
     <use style="fill:#1f77b4;stroke:#1f77b4;" x="128.121376" xlink:href="#mff14209330" y="139.037102"/>
     <use style="fill:#1f77b4;stroke:#1f77b4;" x="128.564175" xlink:href="#mff14209330" y="146.605671"/>
     <use style="fill:#1f77b4;stroke:#1f77b4;" x="129.001541" xlink:href="#mff14209330" y="124.662685"/>
     <use style="fill:#1f77b4;stroke:#1f77b4;" x="129.433605" xlink:href="#mff14209330" y="108.452731"/>
     <use style="fill:#1f77b4;stroke:#1f77b4;" x="129.860494" xlink:href="#mff14209330" y="110.154823"/>
     <use style="fill:#1f77b4;stroke:#1f77b4;" x="130.282332" xlink:href="#mff14209330" y="104.619078"/>
     <use style="fill:#1f77b4;stroke:#1f77b4;" x="130.699235" xlink:href="#mff14209330" y="87.454298"/>
     <use style="fill:#1f77b4;stroke:#1f77b4;" x="131.111319" xlink:href="#mff14209330" y="97.103881"/>
     <use style="fill:#1f77b4;stroke:#1f77b4;" x="131.518693" xlink:href="#mff14209330" y="102.825445"/>
     <use style="fill:#1f77b4;stroke:#1f77b4;" x="131.921464" xlink:href="#mff14209330" y="123.147705"/>
     <use style="fill:#1f77b4;stroke:#1f77b4;" x="132.319734" xlink:href="#mff14209330" y="103.63341"/>
     <use style="fill:#1f77b4;stroke:#1f77b4;" x="132.713604" xlink:href="#mff14209330" y="99.482354"/>
     <use style="fill:#1f77b4;stroke:#1f77b4;" x="133.103169" xlink:href="#mff14209330" y="86.502845"/>
     <use style="fill:#1f77b4;stroke:#1f77b4;" x="133.488523" xlink:href="#mff14209330" y="86.053859"/>
     <use style="fill:#1f77b4;stroke:#1f77b4;" x="133.869755" xlink:href="#mff14209330" y="74.405645"/>
     <use style="fill:#1f77b4;stroke:#1f77b4;" x="134.246952" xlink:href="#mff14209330" y="78.0059"/>
     <use style="fill:#1f77b4;stroke:#1f77b4;" x="134.6202" xlink:href="#mff14209330" y="72.252234"/>
     <use style="fill:#1f77b4;stroke:#1f77b4;" x="134.98958" xlink:href="#mff14209330" y="78.297083"/>
     <use style="fill:#1f77b4;stroke:#1f77b4;" x="135.355172" xlink:href="#mff14209330" y="74.333403"/>
     <use style="fill:#1f77b4;stroke:#1f77b4;" x="135.717051" xlink:href="#mff14209330" y="70.125909"/>
    </g>
   </g>
   <g id="line2d_47">
    <defs>
     <path d="M 0 1.5 
C 0.397805 1.5 0.77937 1.341951 1.06066 1.06066 
C 1.341951 0.77937 1.5 0.397805 1.5 0 
C 1.5 -0.397805 1.341951 -0.77937 1.06066 -1.06066 
C 0.77937 -1.341951 0.397805 -1.5 0 -1.5 
C -0.397805 -1.5 -0.77937 -1.341951 -1.06066 -1.06066 
C -1.341951 -0.77937 -1.5 -0.397805 -1.5 0 
C -1.5 0.397805 -1.341951 0.77937 -1.06066 1.06066 
C -0.77937 1.341951 -0.397805 1.5 0 1.5 
z
" id="m953267fa01" style="stroke:#ff7f0e;"/>
    </defs>
    <g clip-path="url(#p2147625ddf)">
     <use style="fill:#ff7f0e;stroke:#ff7f0e;" x="54" xlink:href="#m953267fa01" y="373.040806"/>
     <use style="fill:#ff7f0e;stroke:#ff7f0e;" x="54" xlink:href="#m953267fa01" y="373.096437"/>
     <use style="fill:#ff7f0e;stroke:#ff7f0e;" x="60.498824" xlink:href="#m953267fa01" y="373.100434"/>
     <use style="fill:#ff7f0e;stroke:#ff7f0e;" x="63.351934" xlink:href="#m953267fa01" y="373.086239"/>
     <use style="fill:#ff7f0e;stroke:#ff7f0e;" x="65.993501" xlink:href="#m953267fa01" y="373.09901"/>
     <use style="fill:#ff7f0e;stroke:#ff7f0e;" x="68.452742" xlink:href="#m953267fa01" y="373.066348"/>
     <use style="fill:#ff7f0e;stroke:#ff7f0e;" x="72.914163" xlink:href="#m953267fa01" y="373.066899"/>
     <use style="fill:#ff7f0e;stroke:#ff7f0e;" x="76.878784" xlink:href="#m953267fa01" y="373.050407"/>
     <use style="fill:#ff7f0e;stroke:#ff7f0e;" x="80.446243" xlink:href="#m953267fa01" y="373.058584"/>
     <use style="fill:#ff7f0e;stroke:#ff7f0e;" x="83.688918" xlink:href="#m953267fa01" y="373.048202"/>
     <use style="fill:#ff7f0e;stroke:#ff7f0e;" x="86.661043" xlink:href="#m953267fa01" y="373.03635"/>
     <use style="fill:#ff7f0e;stroke:#ff7f0e;" x="89.404308" xlink:href="#m953267fa01" y="373.050821"/>
     <use style="fill:#ff7f0e;stroke:#ff7f0e;" x="93.159867" xlink:href="#m953267fa01" y="373.037912"/>
     <use style="fill:#ff7f0e;stroke:#ff7f0e;" x="96.557184" xlink:href="#m953267fa01" y="373.035799"/>
     <use style="fill:#ff7f0e;stroke:#ff7f0e;" x="99.658691" xlink:href="#m953267fa01" y="373.008006"/>
     <use style="fill:#ff7f0e;stroke:#ff7f0e;" x="103.414251" xlink:href="#m953267fa01" y="373.005939"/>
     <use style="fill:#ff7f0e;stroke:#ff7f0e;" x="106.811568" xlink:href="#m953267fa01" y="373.006307"/>
     <use style="fill:#ff7f0e;stroke:#ff7f0e;" x="109.913075" xlink:href="#m953267fa01" y="372.992158"/>
     <use style="fill:#ff7f0e;stroke:#ff7f0e;" x="113.445155" xlink:href="#m953267fa01" y="372.985313"/>
     <use style="fill:#ff7f0e;stroke:#ff7f0e;" x="116.658577" xlink:href="#m953267fa01" y="372.963722"/>
     <use style="fill:#ff7f0e;stroke:#ff7f0e;" x="120.167458" xlink:href="#m953267fa01" y="372.94599"/>
     <use style="fill:#ff7f0e;stroke:#ff7f0e;" x="123.36167" xlink:href="#m953267fa01" y="372.937537"/>
     <use style="fill:#ff7f0e;stroke:#ff7f0e;" x="126.758987" xlink:href="#m953267fa01" y="372.897112"/>
     <use style="fill:#ff7f0e;stroke:#ff7f0e;" x="129.860494" xlink:href="#m953267fa01" y="372.862475"/>
     <use style="fill:#ff7f0e;stroke:#ff7f0e;" x="133.488523" xlink:href="#m953267fa01" y="372.865369"/>
     <use style="fill:#ff7f0e;stroke:#ff7f0e;" x="136.781156" xlink:href="#m953267fa01" y="372.835968"/>
     <use style="fill:#ff7f0e;stroke:#ff7f0e;" x="140.114878" xlink:href="#m953267fa01" y="372.819385"/>
     <use style="fill:#ff7f0e;stroke:#ff7f0e;" x="143.454282" xlink:href="#m953267fa01" y="372.805833"/>
     <use style="fill:#ff7f0e;stroke:#ff7f0e;" x="146.772476" xlink:href="#m953267fa01" y="372.734951"/>
     <use style="fill:#ff7f0e;stroke:#ff7f0e;" x="150.049574" xlink:href="#m953267fa01" y="372.701278"/>
     <use style="fill:#ff7f0e;stroke:#ff7f0e;" x="153.2713" xlink:href="#m953267fa01" y="372.67886"/>
     <use style="fill:#ff7f0e;stroke:#ff7f0e;" x="156.628589" xlink:href="#m953267fa01" y="372.633703"/>
     <use style="fill:#ff7f0e;stroke:#ff7f0e;" x="160.062297" xlink:href="#m953267fa01" y="372.600674"/>
     <use style="fill:#ff7f0e;stroke:#ff7f0e;" x="163.360278" xlink:href="#m953267fa01" y="372.549085"/>
     <use style="fill:#ff7f0e;stroke:#ff7f0e;" x="166.682156" xlink:href="#m953267fa01" y="372.502826"/>
     <use style="fill:#ff7f0e;stroke:#ff7f0e;" x="169.996994" xlink:href="#m953267fa01" y="372.433138"/>
     <use style="fill:#ff7f0e;stroke:#ff7f0e;" x="173.28153" xlink:href="#m953267fa01" y="372.353665"/>
     <use style="fill:#ff7f0e;stroke:#ff7f0e;" x="176.633178" xlink:href="#m953267fa01" y="372.298539"/>
     <use style="fill:#ff7f0e;stroke:#ff7f0e;" x="180.009716" xlink:href="#m953267fa01" y="372.18126"/>
     <use style="fill:#ff7f0e;stroke:#ff7f0e;" x="183.284005" xlink:href="#m953267fa01" y="372.141156"/>
     <use style="fill:#ff7f0e;stroke:#ff7f0e;" x="186.629576" xlink:href="#m953267fa01" y="372.026265"/>
     <use style="fill:#ff7f0e;stroke:#ff7f0e;" x="189.924747" xlink:href="#m953267fa01" y="371.976927"/>
     <use style="fill:#ff7f0e;stroke:#ff7f0e;" x="193.228949" xlink:href="#m953267fa01" y="371.848714"/>
     <use style="fill:#ff7f0e;stroke:#ff7f0e;" x="196.580597" xlink:href="#m953267fa01" y="371.733594"/>
     <use style="fill:#ff7f0e;stroke:#ff7f0e;" x="199.882829" xlink:href="#m953267fa01" y="371.622837"/>
     <use style="fill:#ff7f0e;stroke:#ff7f0e;" x="203.177212" xlink:href="#m953267fa01" y="371.48121"/>
     <use style="fill:#ff7f0e;stroke:#ff7f0e;" x="206.539987" xlink:href="#m953267fa01" y="371.305038"/>
     <use style="fill:#ff7f0e;stroke:#ff7f0e;" x="209.838427" xlink:href="#m953267fa01" y="371.109847"/>
     <use style="fill:#ff7f0e;stroke:#ff7f0e;" x="213.145618" xlink:href="#m953267fa01" y="370.885256"/>
     <use style="fill:#ff7f0e;stroke:#ff7f0e;" x="216.472015" xlink:href="#m953267fa01" y="370.745742"/>
     <use style="fill:#ff7f0e;stroke:#ff7f0e;" x="219.787718" xlink:href="#m953267fa01" y="370.433226"/>
     <use style="fill:#ff7f0e;stroke:#ff7f0e;" x="223.101372" xlink:href="#m953267fa01" y="370.231007"/>
     <use style="fill:#ff7f0e;stroke:#ff7f0e;" x="226.416808" xlink:href="#m953267fa01" y="369.913299"/>
     <use style="fill:#ff7f0e;stroke:#ff7f0e;" x="229.734374" xlink:href="#m953267fa01" y="369.607995"/>
     <use style="fill:#ff7f0e;stroke:#ff7f0e;" x="233.051996" xlink:href="#m953267fa01" y="369.325292"/>
     <use style="fill:#ff7f0e;stroke:#ff7f0e;" x="236.387394" xlink:href="#m953267fa01" y="368.799026"/>
     <use style="fill:#ff7f0e;stroke:#ff7f0e;" x="239.691338" xlink:href="#m953267fa01" y="368.162142"/>
     <use style="fill:#ff7f0e;stroke:#ff7f0e;" x="243.017755" xlink:href="#m953267fa01" y="367.783658"/>
     <use style="fill:#ff7f0e;stroke:#ff7f0e;" x="246.335949" xlink:href="#m953267fa01" y="367.180446"/>
     <use style="fill:#ff7f0e;stroke:#ff7f0e;" x="249.652347" xlink:href="#m953267fa01" y="366.542642"/>
     <use style="fill:#ff7f0e;stroke:#ff7f0e;" x="252.969232" xlink:href="#m953267fa01" y="366.005397"/>
     <use style="fill:#ff7f0e;stroke:#ff7f0e;" x="256.285934" xlink:href="#m953267fa01" y="365.227391"/>
     <use style="fill:#ff7f0e;stroke:#ff7f0e;" x="259.59978" xlink:href="#m953267fa01" y="364.787442"/>
     <use style="fill:#ff7f0e;stroke:#ff7f0e;" x="262.916984" xlink:href="#m953267fa01" y="364.133239"/>
     <use style="fill:#ff7f0e;stroke:#ff7f0e;" x="266.230214" xlink:href="#m953267fa01" y="363.192979"/>
     <use style="fill:#ff7f0e;stroke:#ff7f0e;" x="269.54923" xlink:href="#m953267fa01" y="362.075628"/>
     <use style="fill:#ff7f0e;stroke:#ff7f0e;" x="272.862928" xlink:href="#m953267fa01" y="360.896629"/>
     <use style="fill:#ff7f0e;stroke:#ff7f0e;" x="276.182658" xlink:href="#m953267fa01" y="360.287812"/>
     <use style="fill:#ff7f0e;stroke:#ff7f0e;" x="279.494632" xlink:href="#m953267fa01" y="358.758627"/>
     <use style="fill:#ff7f0e;stroke:#ff7f0e;" x="282.8107" xlink:href="#m953267fa01" y="357.357242"/>
     <use style="fill:#ff7f0e;stroke:#ff7f0e;" x="286.131347" xlink:href="#m953267fa01" y="355.351587"/>
     <use style="fill:#ff7f0e;stroke:#ff7f0e;" x="289.444836" xlink:href="#m953267fa01" y="354.120954"/>
     <use style="fill:#ff7f0e;stroke:#ff7f0e;" x="292.763137" xlink:href="#m953267fa01" y="352.887104"/>
     <use style="fill:#ff7f0e;stroke:#ff7f0e;" x="296.080061" xlink:href="#m953267fa01" y="350.861145"/>
     <use style="fill:#ff7f0e;stroke:#ff7f0e;" x="299.396475" xlink:href="#m953267fa01" y="348.925317"/>
     <use style="fill:#ff7f0e;stroke:#ff7f0e;" x="302.710777" xlink:href="#m953267fa01" y="346.198389"/>
     <use style="fill:#ff7f0e;stroke:#ff7f0e;" x="306.028824" xlink:href="#m953267fa01" y="344.744129"/>
     <use style="fill:#ff7f0e;stroke:#ff7f0e;" x="309.343988" xlink:href="#m953267fa01" y="341.079285"/>
     <use style="fill:#ff7f0e;stroke:#ff7f0e;" x="312.659668" xlink:href="#m953267fa01" y="338.377808"/>
     <use style="fill:#ff7f0e;stroke:#ff7f0e;" x="315.975961" xlink:href="#m953267fa01" y="335.107479"/>
     <use style="fill:#ff7f0e;stroke:#ff7f0e;" x="319.29278" xlink:href="#m953267fa01" y="331.979743"/>
     <use style="fill:#ff7f0e;stroke:#ff7f0e;" x="322.609722" xlink:href="#m953267fa01" y="328.236528"/>
     <use style="fill:#ff7f0e;stroke:#ff7f0e;" x="325.926013" xlink:href="#m953267fa01" y="323.970953"/>
     <use style="fill:#ff7f0e;stroke:#ff7f0e;" x="329.242089" xlink:href="#m953267fa01" y="318.002225"/>
     <use style="fill:#ff7f0e;stroke:#ff7f0e;" x="332.557475" xlink:href="#m953267fa01" y="313.511185"/>
     <use style="fill:#ff7f0e;stroke:#ff7f0e;" x="335.87359" xlink:href="#m953267fa01" y="306.652776"/>
     <use style="fill:#ff7f0e;stroke:#ff7f0e;" x="339.190356" xlink:href="#m953267fa01" y="300.653131"/>
     <use style="fill:#ff7f0e;stroke:#ff7f0e;" x="342.506559" xlink:href="#m953267fa01" y="294.690972"/>
     <use style="fill:#ff7f0e;stroke:#ff7f0e;" x="345.823132" xlink:href="#m953267fa01" y="287.058966"/>
     <use style="fill:#ff7f0e;stroke:#ff7f0e;" x="349.139386" xlink:href="#m953267fa01" y="278.33019"/>
     <use style="fill:#ff7f0e;stroke:#ff7f0e;" x="352.45511" xlink:href="#m953267fa01" y="265.950396"/>
     <use style="fill:#ff7f0e;stroke:#ff7f0e;" x="355.771712" xlink:href="#m953267fa01" y="258.211952"/>
     <use style="fill:#ff7f0e;stroke:#ff7f0e;" x="359.087905" xlink:href="#m953267fa01" y="246.660559"/>
     <use style="fill:#ff7f0e;stroke:#ff7f0e;" x="362.403714" xlink:href="#m953267fa01" y="234.615378"/>
     <use style="fill:#ff7f0e;stroke:#ff7f0e;" x="365.719789" xlink:href="#m953267fa01" y="217.304919"/>
     <use style="fill:#ff7f0e;stroke:#ff7f0e;" x="369.036419" xlink:href="#m953267fa01" y="200.647836"/>
     <use style="fill:#ff7f0e;stroke:#ff7f0e;" x="372.352499" xlink:href="#m953267fa01" y="179.464295"/>
     <use style="fill:#ff7f0e;stroke:#ff7f0e;" x="375.668504" xlink:href="#m953267fa01" y="167.577095"/>
     <use style="fill:#ff7f0e;stroke:#ff7f0e;" x="378.984895" xlink:href="#m953267fa01" y="142.998137"/>
     <use style="fill:#ff7f0e;stroke:#ff7f0e;" x="382.301176" xlink:href="#m953267fa01" y="119.996369"/>
    </g>
   </g>
   <g id="line2d_48">
    <path clip-path="url(#p2147625ddf)" d="M 54 348.048541 
L 57.397317 345.021083 
L 60.498824 341.993625 
L 63.351934 338.966167 
L 65.993501 335.938709 
L 68.452742 332.911251 
L 70.753208 329.883793 
L 72.914163 326.856334 
L 74.951566 323.828876 
L 76.878784 320.801418 
L 78.707125 317.77396 
L 80.446243 314.746502 
L 82.104442 311.719044 
L 83.688918 308.691586 
L 85.205949 305.664128 
L 86.661043 302.63667 
L 88.05906 299.609212 
L 89.404308 296.581754 
L 90.700627 293.554295 
L 91.951452 290.526837 
L 93.159867 287.499379 
L 94.328655 284.471921 
L 95.460333 281.444463 
L 96.557184 278.417005 
L 97.621288 275.389547 
L 98.654545 272.362089 
L 99.658691 269.334631 
L 100.635324 266.307173 
L 101.585909 263.279715 
L 102.511801 260.252256 
L 103.414251 257.224798 
L 104.294415 254.19734 
L 105.153369 251.169882 
L 105.99211 248.142424 
L 106.811568 245.114966 
L 107.612609 242.087508 
L 108.396044 239.06005 
L 109.162629 236.032592 
L 109.913075 233.005134 
L 110.648046 229.977676 
L 111.368169 226.950217 
L 112.07403 223.922759 
L 112.766185 220.895301 
L 113.445155 217.867843 
L 114.111433 214.840385 
L 114.765485 211.812927 
L 115.407752 208.785469 
L 116.038651 205.758011 
L 116.658577 202.730553 
L 117.267905 199.703095 
L 117.866993 196.675637 
L 118.456177 193.648178 
L 119.035781 190.62072 
L 119.606111 187.593262 
L 120.167458 184.565804 
L 120.720103 181.538346 
L 121.264309 178.510888 
L 121.800332 175.48343 
L 122.328414 172.455972 
L 122.848786 169.428514 
L 123.36167 166.401056 
L 123.867279 163.373598 
L 124.365817 160.346139 
L 124.857478 157.318681 
L 125.342449 154.291223 
L 125.82091 151.263765 
L 126.293035 148.236307 
L 126.758987 145.208849 
L 127.218927 142.181391 
L 127.673007 139.153933 
L 128.121376 136.126475 
L 128.564175 133.099017 
L 129.001541 130.071559 
L 129.433605 127.0441 
L 129.860494 124.016642 
L 130.282332 120.989184 
L 130.699235 117.961726 
L 131.111319 114.934268 
L 131.518693 111.90681 
L 131.921464 108.879352 
L 132.319734 105.851894 
L 132.713604 102.824436 
L 133.103169 99.796978 
L 133.488523 96.76952 
L 133.869755 93.742062 
L 134.246952 90.714603 
L 134.6202 87.687145 
L 134.98958 84.659687 
L 135.355172 81.632229 
L 135.717051 78.604771 
" style="fill:none;stroke:#1f77b4;stroke-linecap:square;stroke-width:1.5;"/>
   </g>
   <g id="line2d_49">
    <path clip-path="url(#p2147625ddf)" d="M 54 373.227485 
L 54 373.227485 
L 60.498824 373.222506 
L 63.351934 373.220016 
L 65.993501 373.217526 
L 68.452742 373.215037 
L 72.914163 373.210058 
L 76.878784 373.205079 
L 80.446243 373.2001 
L 83.688918 373.19512 
L 86.661043 373.190141 
L 89.404308 373.185162 
L 93.159867 373.177693 
L 96.557184 373.170225 
L 99.658691 373.162756 
L 103.414251 373.152798 
L 106.811568 373.14284 
L 109.913075 373.132881 
L 113.445155 373.120434 
L 116.658577 373.107986 
L 120.167458 373.093048 
L 123.36167 373.078111 
L 126.758987 373.060684 
L 129.860494 373.043257 
L 133.488523 373.020851 
L 136.781156 372.998445 
L 140.114878 372.973549 
L 143.454282 372.946164 
L 146.772476 372.916289 
L 150.049574 372.883925 
L 153.2713 372.849071 
L 156.628589 372.809238 
L 160.062297 372.764426 
L 163.360278 372.717124 
L 166.682156 372.664844 
L 169.996994 372.607584 
L 173.28153 372.545345 
L 176.633178 372.475637 
L 180.009716 372.39846 
L 183.284005 372.316305 
L 186.629576 372.224191 
L 189.924747 372.124608 
L 193.228949 372.015068 
L 196.580597 371.893079 
L 199.882829 371.761132 
L 203.177212 371.616738 
L 206.539987 371.454916 
L 209.838427 371.280647 
L 213.145618 371.08895 
L 216.472015 370.877338 
L 219.787718 370.645808 
L 223.101372 370.391873 
L 226.416808 370.113042 
L 229.734374 369.806826 
L 233.051996 369.470735 
L 236.387394 369.09979 
L 239.691338 368.696481 
L 243.017755 368.250849 
L 246.335949 367.762895 
L 249.652347 367.227639 
L 252.969232 366.640102 
L 256.285934 365.995305 
L 259.59978 365.288269 
L 262.916984 364.511526 
L 266.230214 363.660095 
L 269.54923 362.72402 
L 272.862928 361.69832 
L 276.182658 360.570548 
L 279.494632 359.335725 
L 282.8107 357.978914 
L 286.131347 356.487665 
L 289.444836 354.854512 
L 292.763137 353.059538 
L 296.080061 351.090294 
L 299.396475 348.929353 
L 302.710777 346.55929 
L 306.028824 343.955207 
L 309.343988 341.099679 
L 312.659668 337.965319 
L 315.975961 334.524744 
L 319.29278 330.748077 
L 322.609722 326.602955 
L 325.926013 322.054525 
L 329.242089 317.062951 
L 332.557475 311.585914 
L 335.87359 305.57362 
L 339.190356 298.973789 
L 342.506559 291.731651 
L 345.823132 283.782478 
L 349.139386 275.05905 
L 352.45511 265.486682 
L 355.771712 254.978238 
L 359.087905 243.446584 
L 362.403714 230.792137 
L 365.719789 216.902867 
L 369.036419 201.656785 
L 372.352499 184.926924 
L 375.668504 166.5664 
L 378.984895 146.41339 
L 382.301176 124.296116 
" style="fill:none;stroke:#ff7f0e;stroke-linecap:square;stroke-width:1.5;"/>
   </g>
   <g id="patch_3">
    <path d="M 54 378 
L 54 51.84 
" style="fill:none;stroke:#000000;stroke-linecap:square;stroke-linejoin:miter;stroke-width:0.8;"/>
   </g>
   <g id="patch_4">
    <path d="M 388.8 378 
L 388.8 51.84 
" style="fill:none;stroke:#000000;stroke-linecap:square;stroke-linejoin:miter;stroke-width:0.8;"/>
   </g>
   <g id="patch_5">
    <path d="M 54 378 
L 388.8 378 
" style="fill:none;stroke:#000000;stroke-linecap:square;stroke-linejoin:miter;stroke-width:0.8;"/>
   </g>
   <g id="patch_6">
    <path d="M 54 51.84 
L 388.8 51.84 
" style="fill:none;stroke:#000000;stroke-linecap:square;stroke-linejoin:miter;stroke-width:0.8;"/>
   </g>
   <g id="text_16">
    <!-- $t = 6.6x 10^{-3}\cdot N_p + -0.0107$ -->
    <defs>
     <path d="M 42.28125 54.6875 
L 40.921875 47.703125 
L 23 47.703125 
L 17.1875 18.015625 
Q 16.890625 16.359375 16.75 15.234375 
Q 16.609375 14.109375 16.609375 13.484375 
Q 16.609375 10.359375 18.484375 8.9375 
Q 20.359375 7.515625 24.515625 7.515625 
L 33.59375 7.515625 
L 32.078125 0 
L 23.484375 0 
Q 15.484375 0 11.546875 3.125 
Q 7.625 6.25 7.625 12.59375 
Q 7.625 13.71875 7.765625 15.0625 
Q 7.90625 16.40625 8.203125 18.015625 
L 14.015625 47.703125 
L 6.390625 47.703125 
L 7.8125 54.6875 
L 15.28125 54.6875 
L 18.3125 70.21875 
L 27.296875 70.21875 
L 24.3125 54.6875 
z
" id="DejaVuSans-Oblique-116"/>
     <path d="M 10.59375 45.40625 
L 73.1875 45.40625 
L 73.1875 37.203125 
L 10.59375 37.203125 
z
M 10.59375 25.484375 
L 73.1875 25.484375 
L 73.1875 17.1875 
L 10.59375 17.1875 
z
" id="DejaVuSans-61"/>
     <path d="M 60.015625 54.6875 
L 34.90625 27.875 
L 50.296875 0 
L 39.984375 0 
L 28.421875 21.6875 
L 8.296875 0 
L -2.59375 0 
L 24.3125 28.8125 
L 10.015625 54.6875 
L 20.3125 54.6875 
L 30.8125 34.90625 
L 49.125 54.6875 
z
" id="DejaVuSans-Oblique-120"/>
     <path d="M 10.59375 35.5 
L 73.1875 35.5 
L 73.1875 27.203125 
L 10.59375 27.203125 
z
" id="DejaVuSans-8722"/>
     <path d="M 10.6875 40.921875 
L 21 40.921875 
L 21 28.515625 
L 10.6875 28.515625 
z
" id="DejaVuSans-8901"/>
     <path d="M 46 62.703125 
L 46 35.5 
L 73.1875 35.5 
L 73.1875 27.203125 
L 46 27.203125 
L 46 0 
L 37.796875 0 
L 37.796875 27.203125 
L 10.59375 27.203125 
L 10.59375 35.5 
L 37.796875 35.5 
L 37.796875 62.703125 
z
" id="DejaVuSans-43"/>
    </defs>
    <g style="fill:#1f77b4;" transform="translate(150.528036 180.466479)scale(0.12 -0.12)">
     <use transform="translate(0 0.765625)" xlink:href="#DejaVuSans-Oblique-116"/>
     <use transform="translate(58.691406 0.765625)" xlink:href="#DejaVuSans-61"/>
     <use transform="translate(161.962891 0.765625)" xlink:href="#DejaVuSans-54"/>
     <use transform="translate(225.585938 0.765625)" xlink:href="#DejaVuSans-46"/>
     <use transform="translate(257.373047 0.765625)" xlink:href="#DejaVuSans-54"/>
     <use transform="translate(320.996094 0.765625)" xlink:href="#DejaVuSans-Oblique-120"/>
     <use transform="translate(380.175781 0.765625)" xlink:href="#DejaVuSans-49"/>
     <use transform="translate(443.798828 0.765625)" xlink:href="#DejaVuSans-48"/>
     <use transform="translate(508.378906 39.046875)scale(0.7)" xlink:href="#DejaVuSans-8722"/>
     <use transform="translate(567.03125 39.046875)scale(0.7)" xlink:href="#DejaVuSans-51"/>
     <use transform="translate(633.78418 0.765625)" xlink:href="#DejaVuSans-8901"/>
     <use transform="translate(685.053711 0.765625)" xlink:href="#DejaVuSans-Oblique-78"/>
     <use transform="translate(759.858398 -15.640625)scale(0.7)" xlink:href="#DejaVuSans-Oblique-112"/>
     <use transform="translate(826.508789 0.765625)" xlink:href="#DejaVuSans-43"/>
     <use transform="translate(949.262695 0.765625)" xlink:href="#DejaVuSans-8722"/>
     <use transform="translate(1052.53418 0.765625)" xlink:href="#DejaVuSans-48"/>
     <use transform="translate(1116.157227 0.765625)" xlink:href="#DejaVuSans-46"/>
     <use transform="translate(1147.944336 0.765625)" xlink:href="#DejaVuSans-48"/>
     <use transform="translate(1211.567383 0.765625)" xlink:href="#DejaVuSans-49"/>
     <use transform="translate(1275.19043 0.765625)" xlink:href="#DejaVuSans-48"/>
     <use transform="translate(1338.813477 0.765625)" xlink:href="#DejaVuSans-55"/>
    </g>
   </g>
   <g id="text_17">
    <!-- $t = 5.4x 10^{-6}\cdot N_p + 0.0003$ -->
    <g style="fill:#ff7f0e;" transform="translate(150.528036 327.468169)scale(0.12 -0.12)">
     <use transform="translate(0 0.765625)" xlink:href="#DejaVuSans-Oblique-116"/>
     <use transform="translate(58.691406 0.765625)" xlink:href="#DejaVuSans-61"/>
     <use transform="translate(161.962891 0.765625)" xlink:href="#DejaVuSans-53"/>
     <use transform="translate(225.585938 0.765625)" xlink:href="#DejaVuSans-46"/>
     <use transform="translate(257.373047 0.765625)" xlink:href="#DejaVuSans-52"/>
     <use transform="translate(320.996094 0.765625)" xlink:href="#DejaVuSans-Oblique-120"/>
     <use transform="translate(380.175781 0.765625)" xlink:href="#DejaVuSans-49"/>
     <use transform="translate(443.798828 0.765625)" xlink:href="#DejaVuSans-48"/>
     <use transform="translate(508.378906 39.046875)scale(0.7)" xlink:href="#DejaVuSans-8722"/>
     <use transform="translate(567.03125 39.046875)scale(0.7)" xlink:href="#DejaVuSans-54"/>
     <use transform="translate(633.78418 0.765625)" xlink:href="#DejaVuSans-8901"/>
     <use transform="translate(685.053711 0.765625)" xlink:href="#DejaVuSans-Oblique-78"/>
     <use transform="translate(759.858398 -15.640625)scale(0.7)" xlink:href="#DejaVuSans-Oblique-112"/>
     <use transform="translate(826.508789 0.765625)" xlink:href="#DejaVuSans-43"/>
     <use transform="translate(929.780273 0.765625)" xlink:href="#DejaVuSans-48"/>
     <use transform="translate(993.40332 0.765625)" xlink:href="#DejaVuSans-46"/>
     <use transform="translate(1025.19043 0.765625)" xlink:href="#DejaVuSans-48"/>
     <use transform="translate(1088.813477 0.765625)" xlink:href="#DejaVuSans-48"/>
     <use transform="translate(1152.436523 0.765625)" xlink:href="#DejaVuSans-48"/>
     <use transform="translate(1216.05957 0.765625)" xlink:href="#DejaVuSans-51"/>
    </g>
   </g>
   <g id="text_18">
    <!-- Computation Time for Tuple with $m=10,000$ Samples -->
    <defs>
     <path d="M 64.40625 67.28125 
L 64.40625 56.890625 
Q 59.421875 61.53125 53.78125 63.8125 
Q 48.140625 66.109375 41.796875 66.109375 
Q 29.296875 66.109375 22.65625 58.46875 
Q 16.015625 50.828125 16.015625 36.375 
Q 16.015625 21.96875 22.65625 14.328125 
Q 29.296875 6.6875 41.796875 6.6875 
Q 48.140625 6.6875 53.78125 8.984375 
Q 59.421875 11.28125 64.40625 15.921875 
L 64.40625 5.609375 
Q 59.234375 2.09375 53.4375 0.328125 
Q 47.65625 -1.421875 41.21875 -1.421875 
Q 24.65625 -1.421875 15.125 8.703125 
Q 5.609375 18.84375 5.609375 36.375 
Q 5.609375 53.953125 15.125 64.078125 
Q 24.65625 74.21875 41.21875 74.21875 
Q 47.75 74.21875 53.53125 72.484375 
Q 59.328125 70.75 64.40625 67.28125 
z
" id="DejaVuSans-67"/>
     <path d="M 9.421875 75.984375 
L 18.40625 75.984375 
L 18.40625 0 
L 9.421875 0 
z
" id="DejaVuSans-108"/>
     <path d="M 4.203125 54.6875 
L 13.1875 54.6875 
L 24.421875 12.015625 
L 35.59375 54.6875 
L 46.1875 54.6875 
L 57.421875 12.015625 
L 68.609375 54.6875 
L 77.59375 54.6875 
L 63.28125 0 
L 52.6875 0 
L 40.921875 44.828125 
L 29.109375 0 
L 18.5 0 
z
" id="DejaVuSans-119"/>
     <path d="M 54.890625 33.015625 
L 54.890625 0 
L 45.90625 0 
L 45.90625 32.71875 
Q 45.90625 40.484375 42.875 44.328125 
Q 39.84375 48.1875 33.796875 48.1875 
Q 26.515625 48.1875 22.3125 43.546875 
Q 18.109375 38.921875 18.109375 30.90625 
L 18.109375 0 
L 9.078125 0 
L 9.078125 75.984375 
L 18.109375 75.984375 
L 18.109375 46.1875 
Q 21.34375 51.125 25.703125 53.5625 
Q 30.078125 56 35.796875 56 
Q 45.21875 56 50.046875 50.171875 
Q 54.890625 44.34375 54.890625 33.015625 
z
" id="DejaVuSans-104"/>
     <path d="M 89.796875 33.015625 
L 83.40625 0 
L 74.421875 0 
L 80.71875 32.71875 
Q 81.109375 34.8125 81.296875 36.328125 
Q 81.5 37.84375 81.5 38.921875 
Q 81.5 43.3125 79.046875 45.75 
Q 76.609375 48.1875 72.21875 48.1875 
Q 65.671875 48.1875 60.546875 43.28125 
Q 55.421875 38.375 53.90625 30.515625 
L 47.90625 0 
L 38.921875 0 
L 45.3125 32.71875 
Q 45.703125 34.515625 45.890625 36.046875 
Q 46.09375 37.59375 46.09375 38.8125 
Q 46.09375 43.265625 43.65625 45.71875 
Q 41.21875 48.1875 36.921875 48.1875 
Q 30.28125 48.1875 25.140625 43.28125 
Q 20.015625 38.375 18.5 30.515625 
L 12.5 0 
L 3.515625 0 
L 14.203125 54.6875 
L 23.1875 54.6875 
L 21.484375 46.1875 
Q 25.140625 50.984375 30.046875 53.484375 
Q 34.96875 56 40.578125 56 
Q 46.53125 56 50.359375 52.875 
Q 54.203125 49.75 54.984375 44.1875 
Q 59.078125 49.953125 64.46875 52.96875 
Q 69.875 56 75.875 56 
Q 82.90625 56 86.734375 51.953125 
Q 90.578125 47.90625 90.578125 40.484375 
Q 90.578125 38.875 90.375 36.9375 
Q 90.1875 35.015625 89.796875 33.015625 
z
" id="DejaVuSans-Oblique-109"/>
     <path d="M 11.71875 12.40625 
L 22.015625 12.40625 
L 22.015625 4 
L 14.015625 -11.625 
L 7.71875 -11.625 
L 11.71875 4 
z
" id="DejaVuSans-44"/>
     <path d="M 53.515625 70.515625 
L 53.515625 60.890625 
Q 47.90625 63.578125 42.921875 64.890625 
Q 37.9375 66.21875 33.296875 66.21875 
Q 25.25 66.21875 20.875 63.09375 
Q 16.5 59.96875 16.5 54.203125 
Q 16.5 49.359375 19.40625 46.890625 
Q 22.3125 44.4375 30.421875 42.921875 
L 36.375 41.703125 
Q 47.40625 39.59375 52.65625 34.296875 
Q 57.90625 29 57.90625 20.125 
Q 57.90625 9.515625 50.796875 4.046875 
Q 43.703125 -1.421875 29.984375 -1.421875 
Q 24.8125 -1.421875 18.96875 -0.25 
Q 13.140625 0.921875 6.890625 3.21875 
L 6.890625 13.375 
Q 12.890625 10.015625 18.65625 8.296875 
Q 24.421875 6.59375 29.984375 6.59375 
Q 38.421875 6.59375 43.015625 9.90625 
Q 47.609375 13.234375 47.609375 19.390625 
Q 47.609375 24.75 44.3125 27.78125 
Q 41.015625 30.8125 33.5 32.328125 
L 27.484375 33.5 
Q 16.453125 35.6875 11.515625 40.375 
Q 6.59375 45.0625 6.59375 53.421875 
Q 6.59375 63.09375 13.40625 68.65625 
Q 20.21875 74.21875 32.171875 74.21875 
Q 37.3125 74.21875 42.625 73.28125 
Q 47.953125 72.359375 53.515625 70.515625 
z
" id="DejaVuSans-83"/>
    </defs>
    <g transform="translate(57.6 45.84)scale(0.12 -0.12)">
     <use transform="translate(0 0.015625)" xlink:href="#DejaVuSans-67"/>
     <use transform="translate(69.824219 0.015625)" xlink:href="#DejaVuSans-111"/>
     <use transform="translate(131.005859 0.015625)" xlink:href="#DejaVuSans-109"/>
     <use transform="translate(228.417969 0.015625)" xlink:href="#DejaVuSans-112"/>
     <use transform="translate(291.894531 0.015625)" xlink:href="#DejaVuSans-117"/>
     <use transform="translate(355.273438 0.015625)" xlink:href="#DejaVuSans-116"/>
     <use transform="translate(394.482422 0.015625)" xlink:href="#DejaVuSans-97"/>
     <use transform="translate(455.761719 0.015625)" xlink:href="#DejaVuSans-116"/>
     <use transform="translate(494.970703 0.015625)" xlink:href="#DejaVuSans-105"/>
     <use transform="translate(522.753906 0.015625)" xlink:href="#DejaVuSans-111"/>
     <use transform="translate(583.935547 0.015625)" xlink:href="#DejaVuSans-110"/>
     <use transform="translate(647.314453 0.015625)" xlink:href="#DejaVuSans-32"/>
     <use transform="translate(679.101562 0.015625)" xlink:href="#DejaVuSans-84"/>
     <use transform="translate(740.185547 0.015625)" xlink:href="#DejaVuSans-105"/>
     <use transform="translate(767.96875 0.015625)" xlink:href="#DejaVuSans-109"/>
     <use transform="translate(865.380859 0.015625)" xlink:href="#DejaVuSans-101"/>
     <use transform="translate(926.904297 0.015625)" xlink:href="#DejaVuSans-32"/>
     <use transform="translate(958.691406 0.015625)" xlink:href="#DejaVuSans-102"/>
     <use transform="translate(993.896484 0.015625)" xlink:href="#DejaVuSans-111"/>
     <use transform="translate(1055.078125 0.015625)" xlink:href="#DejaVuSans-114"/>
     <use transform="translate(1096.191406 0.015625)" xlink:href="#DejaVuSans-32"/>
     <use transform="translate(1127.978516 0.015625)" xlink:href="#DejaVuSans-84"/>
     <use transform="translate(1189.0625 0.015625)" xlink:href="#DejaVuSans-117"/>
     <use transform="translate(1252.441406 0.015625)" xlink:href="#DejaVuSans-112"/>
     <use transform="translate(1315.917969 0.015625)" xlink:href="#DejaVuSans-108"/>
     <use transform="translate(1343.701172 0.015625)" xlink:href="#DejaVuSans-101"/>
     <use transform="translate(1405.224609 0.015625)" xlink:href="#DejaVuSans-32"/>
     <use transform="translate(1437.011719 0.015625)" xlink:href="#DejaVuSans-119"/>
     <use transform="translate(1518.798828 0.015625)" xlink:href="#DejaVuSans-105"/>
     <use transform="translate(1546.582031 0.015625)" xlink:href="#DejaVuSans-116"/>
     <use transform="translate(1585.791016 0.015625)" xlink:href="#DejaVuSans-104"/>
     <use transform="translate(1649.169922 0.015625)" xlink:href="#DejaVuSans-32"/>
     <use transform="translate(1680.957031 0.015625)" xlink:href="#DejaVuSans-Oblique-109"/>
     <use transform="translate(1797.851562 0.015625)" xlink:href="#DejaVuSans-61"/>
     <use transform="translate(1901.123047 0.015625)" xlink:href="#DejaVuSans-49"/>
     <use transform="translate(1964.746094 0.015625)" xlink:href="#DejaVuSans-48"/>
     <use transform="translate(2028.369141 0.015625)" xlink:href="#DejaVuSans-44"/>
     <use transform="translate(2079.638672 0.015625)" xlink:href="#DejaVuSans-48"/>
     <use transform="translate(2143.261719 0.015625)" xlink:href="#DejaVuSans-48"/>
     <use transform="translate(2206.884766 0.015625)" xlink:href="#DejaVuSans-48"/>
     <use transform="translate(2270.507812 0.015625)" xlink:href="#DejaVuSans-32"/>
     <use transform="translate(2302.294922 0.015625)" xlink:href="#DejaVuSans-83"/>
     <use transform="translate(2365.771484 0.015625)" xlink:href="#DejaVuSans-97"/>
     <use transform="translate(2427.050781 0.015625)" xlink:href="#DejaVuSans-109"/>
     <use transform="translate(2524.462891 0.015625)" xlink:href="#DejaVuSans-112"/>
     <use transform="translate(2587.939453 0.015625)" xlink:href="#DejaVuSans-108"/>
     <use transform="translate(2615.722656 0.015625)" xlink:href="#DejaVuSans-101"/>
     <use transform="translate(2677.246094 0.015625)" xlink:href="#DejaVuSans-115"/>
    </g>
   </g>
   <g id="legend_1">
    <g id="patch_7">
     <path d="M 255.648438 89.19625 
L 381.8 89.19625 
Q 383.8 89.19625 383.8 87.19625 
L 383.8 58.84 
Q 383.8 56.84 381.8 56.84 
L 255.648438 56.84 
Q 253.648438 56.84 253.648438 58.84 
L 253.648438 87.19625 
Q 253.648438 89.19625 255.648438 89.19625 
z
" style="fill:#ffffff;opacity:0.8;stroke:#cccccc;stroke-linejoin:miter;"/>
    </g>
    <g id="line2d_50"/>
    <g id="line2d_51">
     <g>
      <use style="fill:#1f77b4;stroke:#1f77b4;" x="267.648438" xlink:href="#mff14209330" y="64.938437"/>
     </g>
    </g>
    <g id="text_19">
     <!-- Direct Permutation -->
     <defs>
      <path d="M 19.671875 64.796875 
L 19.671875 8.109375 
L 31.59375 8.109375 
Q 46.6875 8.109375 53.6875 14.9375 
Q 60.6875 21.78125 60.6875 36.53125 
Q 60.6875 51.171875 53.6875 57.984375 
Q 46.6875 64.796875 31.59375 64.796875 
z
M 9.8125 72.90625 
L 30.078125 72.90625 
Q 51.265625 72.90625 61.171875 64.09375 
Q 71.09375 55.28125 71.09375 36.53125 
Q 71.09375 17.671875 61.125 8.828125 
Q 51.171875 0 30.078125 0 
L 9.8125 0 
z
" id="DejaVuSans-68"/>
      <path d="M 48.78125 52.59375 
L 48.78125 44.1875 
Q 44.96875 46.296875 41.140625 47.34375 
Q 37.3125 48.390625 33.40625 48.390625 
Q 24.65625 48.390625 19.8125 42.84375 
Q 14.984375 37.3125 14.984375 27.296875 
Q 14.984375 17.28125 19.8125 11.734375 
Q 24.65625 6.203125 33.40625 6.203125 
Q 37.3125 6.203125 41.140625 7.25 
Q 44.96875 8.296875 48.78125 10.40625 
L 48.78125 2.09375 
Q 45.015625 0.34375 40.984375 -0.53125 
Q 36.96875 -1.421875 32.421875 -1.421875 
Q 20.0625 -1.421875 12.78125 6.34375 
Q 5.515625 14.109375 5.515625 27.296875 
Q 5.515625 40.671875 12.859375 48.328125 
Q 20.21875 56 33.015625 56 
Q 37.15625 56 41.109375 55.140625 
Q 45.0625 54.296875 48.78125 52.59375 
z
" id="DejaVuSans-99"/>
     </defs>
     <g transform="translate(285.648438 68.438437)scale(0.1 -0.1)">
      <use xlink:href="#DejaVuSans-68"/>
      <use x="77.001953" xlink:href="#DejaVuSans-105"/>
      <use x="104.785156" xlink:href="#DejaVuSans-114"/>
      <use x="143.648438" xlink:href="#DejaVuSans-101"/>
      <use x="205.171875" xlink:href="#DejaVuSans-99"/>
      <use x="260.152344" xlink:href="#DejaVuSans-116"/>
      <use x="299.361328" xlink:href="#DejaVuSans-32"/>
      <use x="331.148438" xlink:href="#DejaVuSans-80"/>
      <use x="387.826172" xlink:href="#DejaVuSans-101"/>
      <use x="449.349609" xlink:href="#DejaVuSans-114"/>
      <use x="488.712891" xlink:href="#DejaVuSans-109"/>
      <use x="586.125" xlink:href="#DejaVuSans-117"/>
      <use x="649.503906" xlink:href="#DejaVuSans-116"/>
      <use x="688.712891" xlink:href="#DejaVuSans-97"/>
      <use x="749.992188" xlink:href="#DejaVuSans-116"/>
      <use x="789.201172" xlink:href="#DejaVuSans-105"/>
      <use x="816.984375" xlink:href="#DejaVuSans-111"/>
      <use x="878.166016" xlink:href="#DejaVuSans-110"/>
     </g>
    </g>
    <g id="line2d_52"/>
    <g id="line2d_53">
     <g>
      <use style="fill:#ff7f0e;stroke:#ff7f0e;" x="267.648438" xlink:href="#m953267fa01" y="79.616562"/>
     </g>
    </g>
    <g id="text_20">
     <!-- Our Method -->
     <defs>
      <path d="M 39.40625 66.21875 
Q 28.65625 66.21875 22.328125 58.203125 
Q 16.015625 50.203125 16.015625 36.375 
Q 16.015625 22.609375 22.328125 14.59375 
Q 28.65625 6.59375 39.40625 6.59375 
Q 50.140625 6.59375 56.421875 14.59375 
Q 62.703125 22.609375 62.703125 36.375 
Q 62.703125 50.203125 56.421875 58.203125 
Q 50.140625 66.21875 39.40625 66.21875 
z
M 39.40625 74.21875 
Q 54.734375 74.21875 63.90625 63.9375 
Q 73.09375 53.65625 73.09375 36.375 
Q 73.09375 19.140625 63.90625 8.859375 
Q 54.734375 -1.421875 39.40625 -1.421875 
Q 24.03125 -1.421875 14.8125 8.828125 
Q 5.609375 19.09375 5.609375 36.375 
Q 5.609375 53.65625 14.8125 63.9375 
Q 24.03125 74.21875 39.40625 74.21875 
z
" id="DejaVuSans-79"/>
      <path d="M 9.8125 72.90625 
L 24.515625 72.90625 
L 43.109375 23.296875 
L 61.8125 72.90625 
L 76.515625 72.90625 
L 76.515625 0 
L 66.890625 0 
L 66.890625 64.015625 
L 48.09375 14.015625 
L 38.1875 14.015625 
L 19.390625 64.015625 
L 19.390625 0 
L 9.8125 0 
z
" id="DejaVuSans-77"/>
      <path d="M 45.40625 46.390625 
L 45.40625 75.984375 
L 54.390625 75.984375 
L 54.390625 0 
L 45.40625 0 
L 45.40625 8.203125 
Q 42.578125 3.328125 38.25 0.953125 
Q 33.9375 -1.421875 27.875 -1.421875 
Q 17.96875 -1.421875 11.734375 6.484375 
Q 5.515625 14.40625 5.515625 27.296875 
Q 5.515625 40.1875 11.734375 48.09375 
Q 17.96875 56 27.875 56 
Q 33.9375 56 38.25 53.625 
Q 42.578125 51.265625 45.40625 46.390625 
z
M 14.796875 27.296875 
Q 14.796875 17.390625 18.875 11.75 
Q 22.953125 6.109375 30.078125 6.109375 
Q 37.203125 6.109375 41.296875 11.75 
Q 45.40625 17.390625 45.40625 27.296875 
Q 45.40625 37.203125 41.296875 42.84375 
Q 37.203125 48.484375 30.078125 48.484375 
Q 22.953125 48.484375 18.875 42.84375 
Q 14.796875 37.203125 14.796875 27.296875 
z
" id="DejaVuSans-100"/>
     </defs>
     <g transform="translate(285.648438 83.116562)scale(0.1 -0.1)">
      <use xlink:href="#DejaVuSans-79"/>
      <use x="78.710938" xlink:href="#DejaVuSans-117"/>
      <use x="142.089844" xlink:href="#DejaVuSans-114"/>
      <use x="183.203125" xlink:href="#DejaVuSans-32"/>
      <use x="214.990234" xlink:href="#DejaVuSans-77"/>
      <use x="301.269531" xlink:href="#DejaVuSans-101"/>
      <use x="362.792969" xlink:href="#DejaVuSans-116"/>
      <use x="402.001953" xlink:href="#DejaVuSans-104"/>
      <use x="465.380859" xlink:href="#DejaVuSans-111"/>
      <use x="526.5625" xlink:href="#DejaVuSans-100"/>
     </g>
    </g>
   </g>
  </g>
 </g>
 <defs>
  <clipPath id="p2147625ddf">
   <rect height="326.16" width="334.8" x="54" y="51.84"/>
  </clipPath>
 </defs>
</svg>
